SplineFontDB: 3.2
FontName: Vazirmatn-UI-Black
FullName: Vazirmatn UI Black
FamilyName: Vazirmatn UI Black
Weight: Black
Copyright: Copyright 2015 The Vazirmatn Project Authors (https://github.com/rastikerdar/vazirmatn)
Version: 33.003
ItalicAngle: 0
UnderlinePosition: -780
UnderlineWidth: 100
Ascent: 1638
Descent: 410
InvalidEm: 0
sfntRevision: 0x002100c5
LayerCount: 2
Layer: 0 1 "Back" 1
Layer: 1 1 "Fore" 0
XUID: [1021 361 -1614679662 14027871]
StyleMap: 0x0040
FSType: 0
OS2Version: 4
OS2_WeightWidthSlopeOnly: 0
OS2_UseTypoMetrics: 1
CreationTime: 1431850356
ModificationTime: 1724682789
PfmFamily: 81
TTFWeight: 900
TTFWidth: 5
LineGap: 0
VLineGap: 0
Panose: 0 0 0 0 0 0 0 0 0 0
OS2TypoAscent: 1950
OS2TypoAOffset: 0
OS2TypoDescent: -970
OS2TypoDOffset: 0
OS2TypoLinegap: 0
OS2WinAscent: 1950
OS2WinAOffset: 0
OS2WinDescent: 970
OS2WinDOffset: 0
HheadAscent: 2100
HheadAOffset: 0
HheadDescent: -1100
HheadDOffset: 0
OS2SubXSize: 1331
OS2SubYSize: 1433
OS2SubXOff: 0
OS2SubYOff: 286
OS2SupXSize: 1331
OS2SupYSize: 1433
OS2SupXOff: 0
OS2SupYOff: 983
OS2StrikeYSize: 102
OS2StrikeYPos: 530
OS2CapHeight: 1638
OS2XHeight: 1082
OS2Vendor: '    '
OS2CodePages: 00000041.20080000
OS2UnicodeRanges: 80002003.80000000.00000008.00000000
Lookup: 1 0 0 "'c2sc' Capitals to Small Capitals lookup 0" { "'c2sc' Capitals to Small Capitals lookup 0 subtable"  } ['c2sc' ('DFLT' <'dflt' > 'cyrl' <'dflt' > 'grek' <'dflt' > 'latn' <'AZE ' 'CRT ' 'FRA ' 'MOL ' 'NAV ' 'ROM ' 'TRK ' 'dflt' > ) ]
Lookup: 1 0 0 "'smcp' Lowercase to Small Capitals lookup 1" { "'smcp' Lowercase to Small Capitals lookup 1 subtable"  } ['smcp' ('DFLT' <'dflt' > 'cyrl' <'dflt' > 'grek' <'dflt' > 'latn' <'AZE ' 'CRT ' 'FRA ' 'MOL ' 'NAV ' 'ROM ' 'TRK ' 'dflt' > ) ]
Lookup: 1 0 0 "'unic' Unicase lookup 2" { "'unic' Unicase lookup 2 subtable"  } ['unic' ('DFLT' <'dflt' > 'cyrl' <'dflt' > 'grek' <'dflt' > 'latn' <'AZE ' 'CRT ' 'FRA ' 'MOL ' 'NAV ' 'ROM ' 'TRK ' 'dflt' > ) ]

StartChar: A
Encoding: 65 65 2
Width: 1395
VWidth: 1798
GlyphClass: 2
Flags: W
AnchorPoint: "Anchor-1" 686 -250 basechar 0
AnchorPoint: "Anchor-0" 672 1351 basechar 0
LayerCount: 2
Fore
SplineSet
1022 -250 m 1,0,-1
 938 22 l 1,1,-1
 457 22 l 1,2,-1
 373 -250 l 1,3,-1
 -4 -250 l 1,4,-1
 531 1206 l 1,5,-1
 862 1206 l 1,6,-1
 1400 -250 l 1,7,-1
 1022 -250 l 1,0,-1
541 293 m 1,8,-1
 854 293 l 1,9,-1
 697 800 l 1,10,-1
 541 293 l 1,8,-1
EndSplineSet
Substitution2: "'unic' Unicase lookup 2 subtable" A.unic
Substitution2: "'c2sc' Capitals to Small Capitals lookup 0 subtable" A.smcp
Position2: "'cpsp' Capital Spacing lookup 0 subtable" dx=36 dy=0 dh=72 dv=0
EndChar

StartChar: A.smcp
Encoding: 65537 -1 3
Width: 1212
GlyphClass: 2
Flags: W
AnchorPoint: "Anchor-1" 592 0 basechar 0
AnchorPoint: "Anchor-0" 581 1320 basechar 0
LayerCount: 2
Fore
SplineSet
884 0 m 1,0,-1
 812 204 l 1,1,-1
 396 204 l 1,2,-1
 327 0 l 1,3,-1
 -13 0 l 1,4,-1
 439 1165 l 1,5,-1
 764 1165 l 1,6,-1
 1223 0 l 1,7,-1
 884 0 l 1,0,-1
596 796 m 1,8,-1
 474 434 l 1,9,-1
 731 434 l 1,10,-1
 605 794 l 1,11,-1
 600 816 l 1,12,-1
 596 796 l 1,8,-1
EndSplineSet
EndChar

StartChar: A.unic
Encoding: 65538 -1 4
Width: 1383
GlyphClass: 2
Flags: W
AnchorPoint: "Anchor-1" 682 0 basechar 0
AnchorPoint: "Anchor-0" 701 1632 basechar 0
LayerCount: 2
Fore
SplineSet
962 0 m 1,0,1
 942 49 942 49 930 123 c 1,2,3
 876 65 876 65 787.5 22.5 c 128,-1,4
 699 -20 699 -20 547 -20 c 0,5,6
 417 -20 417 -20 308.5 32.5 c 128,-1,7
 200 85 200 85 135 185.5 c 128,-1,8
 70 286 70 286 70 428 c 0,9,10
 70 628 70 628 213 744.5 c 128,-1,11
 356 861 356 861 679 861 c 2,12,-1
 915 861 l 1,13,-1
 915 963 l 2,14,15
 915 1078 915 1078 861.5 1143 c 128,-1,16
 808 1208 808 1208 681 1208 c 0,17,18
 558 1208 558 1208 501 1156 c 128,-1,19
 444 1104 444 1104 444 994 c 1,20,-1
 93 994 l 1,21,22
 93 1132 93 1132 165.5 1241 c 128,-1,23
 238 1350 238 1350 373 1413.5 c 128,-1,24
 508 1477 508 1477 697 1477 c 0,25,26
 860 1477 860 1477 988.5 1419.5 c 128,-1,27
 1117 1362 1117 1362 1191.5 1247.5 c 128,-1,28
 1266 1133 1266 1133 1266 961 c 2,29,-1
 1266 323 l 2,30,31
 1266 196 1266 196 1278 131 c 128,-1,32
 1290 66 1290 66 1312 17 c 1,33,-1
 1312 0 l 1,34,-1
 962 0 l 1,0,1
623 250 m 0,35,36
 692 250 692 250 751.5 276.5 c 128,-1,37
 811 303 811 303 853.5 344 c 128,-1,38
 896 385 896 385 915 428 c 1,39,-1
 915 601 l 1,40,-1
 677 601 l 2,41,42
 534 601 534 601 477.5 554.5 c 128,-1,43
 421 508 421 508 421 430 c 0,44,45
 421 342 421 342 478 296 c 128,-1,46
 535 250 535 250 623 250 c 0,35,36
EndSplineSet
EndChar

StartChar: AE
Encoding: 198 198 5
Width: 1926
VWidth: 1798
GlyphClass: 2
Flags: W
AnchorPoint: "Anchor-0" 939 1362 basechar 0
LayerCount: 2
Fore
SplineSet
1852 14 m 1,0,-1
 1852 -250 l 1,1,-1
 955 -250 l 1,2,-1
 941 79 l 1,3,-1
 558 79 l 1,4,-1
 406 -250 l 1,5,-1
 16 -250 l 1,6,-1
 751 1206 l 1,7,-1
 1791 1206 l 1,8,-1
 1791 942 l 1,9,-1
 1242 942 l 1,10,-1
 1255 626 l 1,11,-1
 1710 626 l 1,12,-1
 1710 362 l 1,13,-1
 1266 362 l 1,14,-1
 1281 14 l 1,15,-1
 1852 14 l 1,0,-1
683 349 m 1,16,-1
 930 349 l 1,17,-1
 909 837 l 1,18,-1
 683 349 l 1,16,-1
EndSplineSet
Substitution2: "'c2sc' Capitals to Small Capitals lookup 0 subtable" AE.smcp
Position2: "'cpsp' Capital Spacing lookup 0 subtable" dx=36 dy=0 dh=72 dv=0
EndChar

StartChar: AE.smcp
Encoding: 65539 -1 6
Width: 1626
GlyphClass: 2
Flags: W
AnchorPoint: "Anchor-1" 896 0 basechar 0
AnchorPoint: "Anchor-0" 896 1290 basechar 0
LayerCount: 2
Fore
SplineSet
1570 258 m 1,0,-1
 1570 0 l 1,1,-1
 707 0 l 1,2,-1
 699 199 l 1,3,-1
 384 199 l 1,4,-1
 299 0 l 1,5,-1
 -69 0 l 1,6,-1
 478 1165 l 1,7,-1
 1524 1165 l 1,8,-1
 1524 907 l 1,9,-1
 1006 907 l 1,10,-1
 1013 734 l 1,11,-1
 1464 734 l 1,12,-1
 1464 475 l 1,13,-1
 1023 475 l 1,14,-1
 1032 258 l 1,15,-1
 1570 258 l 1,0,-1
492 453 m 1,16,-1
 690 453 l 1,17,-1
 673 876 l 1,18,-1
 492 453 l 1,16,-1
EndSplineSet
EndChar

StartChar: Aogonek
Encoding: 260 260 27
Width: 1395
VWidth: 1798
GlyphClass: 2
Flags: W
AnchorPoint: "Anchor-1" 686 -250 basechar 0
AnchorPoint: "Anchor-0" 672 1351 basechar 0
LayerCount: 2
Fore
SplineSet
-4 -250 m 1,0,-1
 531 1206 l 1,1,-1
 862 1206 l 1,2,-1
 1400 -250 l 1,3,-1
 1292 -250 l 1,4,5
 1212 -290 1212 -290 1179 -325.5 c 128,-1,6
 1146 -361 1146 -361 1146 -411 c 0,7,8
 1146 -437 1146 -437 1159.5 -455 c 128,-1,9
 1173 -473 1173 -473 1206 -473 c 0,10,11
 1232 -473 1232 -473 1247 -467 c 128,-1,12
 1262 -461 1262 -461 1275 -455 c 1,13,-1
 1314 -623 l 1,14,15
 1289 -638 1289 -638 1249 -652.5 c 128,-1,16
 1209 -667 1209 -667 1148 -667 c 0,17,18
 1047 -667 1047 -667 976 -612.5 c 128,-1,19
 905 -558 905 -558 905 -453 c 0,20,21
 905 -396 905 -396 928.5 -341.5 c 128,-1,22
 952 -287 952 -287 1019 -240 c 1,23,-1
 938 22 l 1,24,-1
 457 22 l 1,25,-1
 373 -250 l 1,26,-1
 -4 -250 l 1,0,-1
541 293 m 1,27,-1
 854 293 l 1,28,-1
 697 800 l 1,29,-1
 541 293 l 1,27,-1
EndSplineSet
Substitution2: "'locl' Localized Forms in Latin lookup 8 subtable" Aogonek.NAV
Substitution2: "'unic' Unicase lookup 2 subtable" Aogonek.unic
Substitution2: "'c2sc' Capitals to Small Capitals lookup 0 subtable" Aogonek.smcp
Position2: "'cpsp' Capital Spacing lookup 0 subtable" dx=36 dy=0 dh=72 dv=0
EndChar

StartChar: Aogonek.smcp
Encoding: 65554 -1 29
Width: 1212
GlyphClass: 2
Flags: W
AnchorPoint: "Anchor-1" 592 0 basechar 0
AnchorPoint: "Anchor-0" 581 1320 basechar 0
LayerCount: 2
Fore
SplineSet
-13 0 m 1,0,-1
 439 1165 l 1,1,-1
 764 1165 l 1,2,-1
 1223 0 l 1,3,-1
 1148 0 l 1,4,5
 1068 -40 1068 -40 1035 -75.5 c 128,-1,6
 1002 -111 1002 -111 1002 -161 c 0,7,8
 1002 -187 1002 -187 1015.5 -205 c 128,-1,9
 1029 -223 1029 -223 1062 -223 c 0,10,11
 1088 -223 1088 -223 1103 -217 c 128,-1,12
 1118 -211 1118 -211 1131 -205 c 1,13,-1
 1170 -373 l 1,14,15
 1145 -388 1145 -388 1105 -402.5 c 128,-1,16
 1065 -417 1065 -417 1004 -417 c 0,17,18
 903 -417 903 -417 832 -362.5 c 128,-1,19
 761 -308 761 -308 761 -203 c 0,20,21
 761 -145 761 -145 785.5 -90 c 128,-1,22
 810 -35 810 -35 879 14 c 1,23,-1
 812 204 l 1,24,-1
 396 204 l 1,25,-1
 327 0 l 1,26,-1
 -13 0 l 1,0,-1
596 796 m 1,27,-1
 474 434 l 1,28,-1
 731 434 l 1,29,-1
 605 794 l 1,30,-1
 600 816 l 1,31,-1
 596 796 l 1,27,-1
EndSplineSet
Substitution2: "'locl' Localized Forms in Latin lookup 8 subtable" Aogonek.smcp.NAV
EndChar

StartChar: B
Encoding: 66 66 41
Width: 1322
VWidth: 1798
GlyphClass: 2
Flags: W
AnchorPoint: "Anchor-1" 613 -240 basechar 0
AnchorPoint: "Anchor-0" 606 1362 basechar 0
LayerCount: 2
Fore
SplineSet
691 -250 m 2,0,-1
 111 -250 l 1,1,-1
 111 1206 l 1,2,-1
 634 1206 l 2,3,4
 903 1206 903 1206 1055.5 1107 c 128,-1,5
 1208 1008 1208 1008 1208 804 c 0,6,7
 1208 705 1208 705 1162 620.5 c 128,-1,8
 1116 536 1116 536 1003 493 c 1,9,10
 1132 460 1132 460 1185 370.5 c 128,-1,11
 1238 281 1238 281 1238 181 c 0,12,13
 1238 -33 1238 -33 1099.5 -141.5 c 128,-1,14
 961 -250 961 -250 691 -250 c 2,0,-1
634 935 m 2,15,-1
 462 935 l 1,16,-1
 462 599 l 1,17,-1
 632 599 l 2,18,19
 754 599 754 599 805.5 640 c 128,-1,20
 857 681 857 681 857 762 c 0,21,22
 857 854 857 854 804 894.5 c 128,-1,23
 751 935 751 935 634 935 c 2,15,-1
889 186 m 0,24,25
 889 270 889 270 847 319.5 c 128,-1,26
 805 369 805 369 705 369 c 2,27,-1
 462 369 l 1,28,-1
 462 20 l 1,29,-1
 691 20 l 2,30,31
 798 20 798 20 843.5 68.5 c 128,-1,32
 889 117 889 117 889 186 c 0,24,25
EndSplineSet
Substitution2: "'c2sc' Capitals to Small Capitals lookup 0 subtable" B.smcp
Position2: "'cpsp' Capital Spacing lookup 0 subtable" dx=36 dy=0 dh=72 dv=0
EndChar

StartChar: B.smcp
Encoding: 65563 -1 42
Width: 1146
GlyphClass: 2
Flags: W
AnchorPoint: "Anchor-1" 536 10 basechar 0
AnchorPoint: "Anchor-0" 529 1320 basechar 0
LayerCount: 2
Fore
SplineSet
597 0 m 2,0,-1
 81 0 l 1,1,-1
 81 1165 l 1,2,-1
 549 1165 l 2,3,4
 792 1165 792 1165 926 1085 c 128,-1,5
 1060 1005 1060 1005 1060 842 c 0,6,7
 1060 764 1060 764 1023 692 c 128,-1,8
 986 620 986 620 887 585 c 1,9,10
 961 567 961 567 1004 526 c 128,-1,11
 1047 485 1047 485 1065.5 433.5 c 128,-1,12
 1084 382 1084 382 1084 334 c 0,13,14
 1084 159 1084 159 963 79.5 c 128,-1,15
 842 0 842 0 597 0 c 2,0,-1
583 905 m 2,16,-1
 419 905 l 1,17,-1
 419 683 l 1,18,-1
 571 683 l 2,19,20
 652 683 652 683 686.5 709.5 c 128,-1,21
 721 736 721 736 721 790 c 0,22,23
 721 853 721 853 687.5 879 c 128,-1,24
 654 905 654 905 583 905 c 2,16,-1
747 361 m 0,25,26
 747 413 747 413 716.5 441.5 c 128,-1,27
 686 470 686 470 611 470 c 2,28,-1
 419 470 l 1,29,-1
 419 259 l 1,30,-1
 597 259 l 2,31,32
 683 259 683 259 715 292.5 c 128,-1,33
 747 326 747 326 747 361 c 0,25,26
EndSplineSet
EndChar

StartChar: C
Encoding: 67 67 43
Width: 1344
VWidth: 1798
GlyphClass: 2
Flags: W
AnchorPoint: "Anchor-1" 680 -260 basechar 0
AnchorPoint: "Anchor-0" 680 1383 basechar 0
LayerCount: 2
Fore
SplineSet
939 243 m 1,0,-1
 1289 243 l 1,1,2
 1282 91 1282 91 1207 -25 c 128,-1,3
 1132 -141 1132 -141 999.5 -205.5 c 128,-1,4
 867 -270 867 -270 687 -270 c 0,5,6
 493 -270 493 -270 354.5 -184 c 128,-1,7
 216 -98 216 -98 143 60.5 c 128,-1,8
 70 219 70 219 70 438 c 2,9,-1
 70 517 l 2,10,11
 70 736 70 736 146 895.5 c 128,-1,12
 222 1055 222 1055 360 1141 c 128,-1,13
 498 1227 498 1227 682 1227 c 0,14,15
 872 1227 872 1227 1003 1159 c 128,-1,16
 1134 1091 1134 1091 1206 972.5 c 128,-1,17
 1278 854 1278 854 1291 703 c 1,18,-1
 941 703 l 1,19,20
 937 826 937 826 879.5 889 c 128,-1,21
 822 952 822 952 682 952 c 0,22,23
 552 952 552 952 489 852 c 128,-1,24
 426 752 426 752 426 519 c 2,25,-1
 426 438 l 2,26,27
 426 206 426 206 485 105.5 c 128,-1,28
 544 5 544 5 687 5 c 0,29,30
 806 5 806 5 870.5 62.5 c 128,-1,31
 935 120 935 120 939 243 c 1,0,-1
EndSplineSet
Substitution2: "'c2sc' Capitals to Small Capitals lookup 0 subtable" C.smcp
Position2: "'cpsp' Capital Spacing lookup 0 subtable" dx=36 dy=0 dh=72 dv=0
EndChar

StartChar: C.smcp
Encoding: 65564 -1 44
Width: 1159
GlyphClass: 2
Flags: W
AnchorPoint: "Anchor-1" 586 -4 basechar 0
AnchorPoint: "Anchor-0" 587 1320 basechar 0
LayerCount: 2
Fore
SplineSet
782 407 m 1,0,-1
 1120 407 l 1,1,2
 1115 278 1115 278 1047.5 183 c 128,-1,3
 980 88 980 88 862.5 36 c 128,-1,4
 745 -16 745 -16 590 -16 c 0,5,6
 331 -16 331 -16 189.5 138 c 128,-1,7
 48 292 48 292 48 563 c 2,8,-1
 48 601 l 2,9,10
 48 782 48 782 114.5 912 c 128,-1,11
 181 1042 181 1042 301 1112 c 128,-1,12
 421 1182 421 1182 580 1182 c 0,13,14
 750 1182 750 1182 866.5 1125 c 128,-1,15
 983 1068 983 1068 1047 970 c 128,-1,16
 1111 872 1111 872 1122 748 c 1,17,-1
 785 748 l 1,18,19
 786 816 786 816 740.5 869 c 128,-1,20
 695 922 695 922 580 922 c 0,21,22
 484 922 484 922 435 846 c 128,-1,23
 386 770 386 770 386 602 c 2,24,-1
 386 563 l 2,25,26
 386 388 386 388 432.5 315.5 c 128,-1,27
 479 243 479 243 590 243 c 0,28,29
 678 243 678 243 731 281 c 128,-1,30
 784 319 784 319 782 407 c 1,0,-1
EndSplineSet
EndChar

StartChar: D
Encoding: 68 68 54
Width: 1325
VWidth: 1798
GlyphClass: 2
Flags: W
AnchorPoint: "Anchor-1" 613 -240 basechar 0
AnchorPoint: "Anchor-0" 609 1362 basechar 0
LayerCount: 2
Fore
SplineSet
584 -250 m 2,0,-1
 111 -250 l 1,1,-1
 111 1206 l 1,2,-1
 579 1206 l 2,3,4
 777 1206 777 1206 929 1117.5 c 128,-1,5
 1081 1029 1081 1029 1167.5 871.5 c 128,-1,6
 1254 714 1254 714 1254 508 c 2,7,-1
 1254 447 l 2,8,9
 1254 241 1254 241 1168 84 c 128,-1,10
 1082 -73 1082 -73 930.5 -161.5 c 128,-1,11
 779 -250 779 -250 584 -250 c 2,0,-1
579 935 m 2,12,-1
 462 935 l 1,13,-1
 462 20 l 1,14,-1
 584 20 l 2,15,16
 734 20 734 20 815 128 c 128,-1,17
 896 236 896 236 896 447 c 2,18,-1
 896 510 l 2,19,20
 896 719 896 719 815 827 c 128,-1,21
 734 935 734 935 579 935 c 2,12,-1
EndSplineSet
Substitution2: "'c2sc' Capitals to Small Capitals lookup 0 subtable" D.smcp
Position2: "'cpsp' Capital Spacing lookup 0 subtable" dx=36 dy=0 dh=72 dv=0
EndChar

StartChar: D.smcp
Encoding: 65569 -1 55
Width: 1135
GlyphClass: 2
Flags: W
AnchorPoint: "Anchor-1" 500 10 basechar 0
AnchorPoint: "Anchor-0" 500 1320 basechar 0
LayerCount: 2
Fore
SplineSet
509 0 m 2,0,-1
 81 0 l 1,1,-1
 81 1165 l 1,2,-1
 498 1165 l 2,3,4
 669 1165 669 1165 802 1092 c 128,-1,5
 935 1019 935 1019 1010.5 892 c 128,-1,6
 1086 765 1086 765 1086 602 c 2,7,-1
 1086 562 l 2,8,9
 1086 400 1086 400 1010.5 273 c 128,-1,10
 935 146 935 146 804.5 73 c 128,-1,11
 674 0 674 0 509 0 c 2,0,-1
498 905 m 2,12,-1
 419 905 l 1,13,-1
 419 259 l 1,14,-1
 509 259 l 2,15,16
 644 259 644 259 695.5 331.5 c 128,-1,17
 747 404 747 404 747 562 c 2,18,-1
 747 604 l 2,19,20
 747 755 747 755 695.5 830 c 128,-1,21
 644 905 644 905 498 905 c 2,12,-1
EndSplineSet
EndChar

StartChar: Dcroat
Encoding: 272 272 58
Width: 1355
VWidth: 1798
GlyphClass: 2
Flags: W
AnchorPoint: "Anchor-1" 613 -240 basechar 0
AnchorPoint: "Anchor-0" 609 1362 basechar 0
LayerCount: 2
Fore
SplineSet
614 -250 m 2,0,-1
 141 -250 l 1,1,-1
 141 385 l 1,2,-1
 -1 385 l 1,3,-1
 -1 576 l 1,4,-1
 141 576 l 1,5,-1
 141 1206 l 1,6,-1
 609 1206 l 2,7,8
 807 1206 807 1206 959 1117.5 c 128,-1,9
 1111 1029 1111 1029 1197.5 871.5 c 128,-1,10
 1284 714 1284 714 1284 508 c 2,11,-1
 1284 447 l 2,12,13
 1284 241 1284 241 1198 84 c 128,-1,14
 1112 -73 1112 -73 960.5 -161.5 c 128,-1,15
 809 -250 809 -250 614 -250 c 2,0,-1
730 576 m 1,16,-1
 730 385 l 1,17,-1
 492 385 l 1,18,-1
 492 20 l 1,19,-1
 614 20 l 2,20,21
 764 20 764 20 845 128 c 128,-1,22
 926 236 926 236 926 447 c 2,23,-1
 926 510 l 2,24,25
 926 719 926 719 845 827 c 128,-1,26
 764 935 764 935 609 935 c 2,27,-1
 492 935 l 1,28,-1
 492 576 l 1,29,-1
 730 576 l 1,16,-1
EndSplineSet
Substitution2: "'c2sc' Capitals to Small Capitals lookup 0 subtable" Dcroat.smcp
Position2: "'cpsp' Capital Spacing lookup 0 subtable" dx=36 dy=0 dh=72 dv=0
EndChar

StartChar: Delta
Encoding: 8710 8710 60
Width: 1525
GlyphClass: 2
Flags: W
LayerCount: 2
Fore
SplineSet
960 1456 m 1,0,-1
 1532 0 l 1,1,-1
 17 0 l 1,2,-1
 579 1456 l 1,3,-1
 765 1456 l 1,4,-1
 769 1451 l 1,5,-1
 774 1456 l 1,6,-1
 960 1456 l 1,0,-1
485 270 m 1,7,-1
 1061 270 l 1,8,-1
 771 1056 l 1,9,-1
 485 270 l 1,7,-1
EndSplineSet
Substitution2: "'c2sc' Capitals to Small Capitals lookup 0 subtable" Delta.smcp
Position2: "'cpsp' Capital Spacing lookup 0 subtable" dx=36 dy=0 dh=72 dv=0
EndChar

StartChar: Delta.smcp
Encoding: 65572 -1 61
Width: 1173
GlyphClass: 2
Flags: W
LayerCount: 2
Fore
SplineSet
-13 0 m 1,0,-1
 395 1165 l 1,1,-1
 776 1165 l 1,2,-1
 1186 0 l 1,3,-1
 -13 0 l 1,0,-1
587 843 m 1,4,-1
 585 858 l 1,5,-1
 581 839 l 1,6,-1
 415 260 l 1,7,-1
 757 260 l 1,8,-1
 587 843 l 1,4,-1
EndSplineSet
EndChar

StartChar: E
Encoding: 69 69 62
Width: 1146
VWidth: 1798
GlyphClass: 2
Flags: W
AnchorPoint: "Anchor-1" 619 -240 basechar 0
AnchorPoint: "Anchor-0" 619 1362 basechar 0
LayerCount: 2
Fore
SplineSet
1113 20 m 1,0,-1
 1113 -250 l 1,1,-1
 111 -250 l 1,2,-1
 111 1206 l 1,3,-1
 1116 1206 l 1,4,-1
 1116 935 l 1,5,-1
 462 935 l 1,6,-1
 462 628 l 1,7,-1
 1013 628 l 1,8,-1
 1013 367 l 1,9,-1
 462 367 l 1,10,-1
 462 20 l 1,11,-1
 1113 20 l 1,0,-1
EndSplineSet
Substitution2: "'unic' Unicase lookup 2 subtable" E.unic
Substitution2: "'c2sc' Capitals to Small Capitals lookup 0 subtable" E.smcp
Position2: "'cpsp' Capital Spacing lookup 0 subtable" dx=36 dy=0 dh=72 dv=0
EndChar

StartChar: E.smcp
Encoding: 65573 -1 63
Width: 981
GlyphClass: 2
Flags: W
AnchorPoint: "Anchor-1" 537 8 basechar 0
AnchorPoint: "Anchor-0" 537 1320 basechar 0
LayerCount: 2
Fore
SplineSet
962 259 m 1,0,-1
 962 0 l 1,1,-1
 81 0 l 1,2,-1
 81 1165 l 1,3,-1
 967 1165 l 1,4,-1
 967 905 l 1,5,-1
 419 905 l 1,6,-1
 419 732 l 1,7,-1
 877 732 l 1,8,-1
 877 472 l 1,9,-1
 419 472 l 1,10,-1
 419 259 l 1,11,-1
 962 259 l 1,0,-1
EndSplineSet
EndChar

StartChar: E.unic
Encoding: 65574 -1 64
Width: 1427
GlyphClass: 2
Flags: W
AnchorPoint: "Anchor-1" 743 10 basechar 0
AnchorPoint: "Anchor-0" 735 1643 basechar 0
LayerCount: 2
Fore
SplineSet
752 -21 m 0,0,1
 532 -21 532 -21 378.5 64.5 c 128,-1,2
 225 150 225 150 145 300.5 c 128,-1,3
 65 451 65 451 65 645 c 2,4,-1
 65 816 l 2,5,6
 65 1011 65 1011 148.5 1160 c 128,-1,7
 232 1309 232 1309 376 1393 c 128,-1,8
 520 1477 520 1477 699 1477 c 0,9,10
 908 1477 908 1477 1050.5 1392 c 128,-1,11
 1193 1307 1193 1307 1266.5 1152 c 128,-1,12
 1340 997 1340 997 1340 786 c 2,13,-1
 1340 604 l 1,14,-1
 416 604 l 1,15,16
 423 512 423 512 460.5 438 c 128,-1,17
 498 364 498 364 575 320.5 c 128,-1,18
 652 277 652 277 776 277 c 0,19,20
 897 277 897 277 970 314.5 c 128,-1,21
 1043 352 1043 352 1096 392 c 1,22,-1
 1286 168 l 1,23,24
 1178 92 1178 92 1096.5 51 c 128,-1,25
 1015 10 1015 10 935.5 -5.5 c 128,-1,26
 856 -21 856 -21 752 -21 c 0,0,1
699 1180 m 0,27,28
 567 1180 567 1180 497 1088.5 c 128,-1,29
 427 997 427 997 417 864 c 1,30,-1
 990 864 l 1,31,-1
 990 916 l 2,32,33
 990 1026 990 1026 924 1103 c 128,-1,34
 858 1180 858 1180 699 1180 c 0,27,28
EndSplineSet
EndChar

StartChar: Eng
Encoding: 330 330 89
Width: 1453
VWidth: 1798
GlyphClass: 2
Flags: W
AnchorPoint: "Anchor-1" 720 -240 basechar 0
AnchorPoint: "Anchor-0" 726 1351 basechar 0
LayerCount: 2
Fore
SplineSet
113 1206 m 1,0,-1
 464 1206 l 1,1,-1
 987 302 l 1,2,-1
 987 1206 l 1,3,-1
 1338 1206 l 1,4,-1
 1338 -257 l 2,5,6
 1338 -465 1338 -465 1226.5 -576 c 128,-1,7
 1115 -687 1115 -687 920 -687 c 0,8,9
 877 -687 877 -687 838.5 -683.5 c 128,-1,10
 800 -680 800 -680 756 -670 c 1,11,-1
 770 -405 l 1,12,13
 796 -411 796 -411 814.5 -413.5 c 128,-1,14
 833 -416 833 -416 870 -416 c 0,15,16
 987 -416 987 -416 987 -257 c 2,17,-1
 987 -250 l 1,18,-1
 464 657 l 1,19,-1
 464 -250 l 1,20,-1
 113 -250 l 1,21,-1
 113 1206 l 1,0,-1
EndSplineSet
Substitution2: "'c2sc' Capitals to Small Capitals lookup 0 subtable" Eng.smcp
Position2: "'cpsp' Capital Spacing lookup 0 subtable" dx=36 dy=0 dh=72 dv=0
EndChar

StartChar: Eng.smcp
Encoding: 65591 -1 90
Width: 1231
GlyphClass: 2
Flags: W
AnchorPoint: "Anchor-1" 619 4 basechar 0
AnchorPoint: "Anchor-0" 624 1320 basechar 0
LayerCount: 2
Fore
SplineSet
1150 1165 m 1,0,-1
 1150 -15 l 2,1,2
 1150 -220 1150 -220 1040.5 -328.5 c 128,-1,3
 931 -437 931 -437 740 -437 c 0,4,5
 698 -437 698 -437 660.5 -433.5 c 128,-1,6
 623 -430 623 -430 580 -420 c 1,7,-1
 594 -165 l 1,8,9
 620 -171 620 -171 640 -174 c 128,-1,10
 660 -177 660 -177 694 -177 c 0,11,12
 811 -177 811 -177 811 -15 c 2,13,-1
 811 2 l 1,14,-1
 419 678 l 1,15,-1
 419 0 l 1,16,-1
 81 0 l 1,17,-1
 81 1165 l 1,18,-1
 419 1165 l 1,19,-1
 812 487 l 1,20,-1
 812 1165 l 1,21,-1
 1150 1165 l 1,0,-1
EndSplineSet
EndChar

StartChar: Eogonek
Encoding: 280 280 91
Width: 1146
VWidth: 1798
GlyphClass: 2
Flags: W
AnchorPoint: "Anchor-1" 619 -240 basechar 0
AnchorPoint: "Anchor-0" 619 1362 basechar 0
LayerCount: 2
Fore
SplineSet
1113 20 m 1,0,-1
 1113 -250 l 1,1,-1
 919 -250 l 1,2,3
 839 -290 839 -290 806 -325.5 c 128,-1,4
 773 -361 773 -361 773 -411 c 0,5,6
 773 -437 773 -437 786.5 -455 c 128,-1,7
 800 -473 800 -473 833 -473 c 0,8,9
 859 -473 859 -473 874 -467 c 128,-1,10
 889 -461 889 -461 902 -455 c 1,11,-1
 941 -623 l 1,12,13
 916 -638 916 -638 876 -652.5 c 128,-1,14
 836 -667 836 -667 775 -667 c 0,15,16
 674 -667 674 -667 603 -612.5 c 128,-1,17
 532 -558 532 -558 532 -453 c 0,18,19
 532 -399 532 -399 553 -347.5 c 128,-1,20
 574 -296 574 -296 632 -250 c 1,21,-1
 111 -250 l 1,22,-1
 111 1206 l 1,23,-1
 1116 1206 l 1,24,-1
 1116 935 l 1,25,-1
 462 935 l 1,26,-1
 462 628 l 1,27,-1
 1013 628 l 1,28,-1
 1013 367 l 1,29,-1
 462 367 l 1,30,-1
 462 20 l 1,31,-1
 1113 20 l 1,0,-1
EndSplineSet
Substitution2: "'locl' Localized Forms in Latin lookup 8 subtable" Eogonek.NAV
Substitution2: "'unic' Unicase lookup 2 subtable" Eogonek.unic
Substitution2: "'c2sc' Capitals to Small Capitals lookup 0 subtable" Eogonek.smcp
Position2: "'cpsp' Capital Spacing lookup 0 subtable" dx=36 dy=0 dh=72 dv=0
EndChar

StartChar: Eogonek.smcp
Encoding: 65593 -1 93
Width: 981
GlyphClass: 2
Flags: W
AnchorPoint: "Anchor-1" 537 8 basechar 0
AnchorPoint: "Anchor-0" 537 1320 basechar 0
LayerCount: 2
Fore
SplineSet
962 259 m 1,0,-1
 962 0 l 1,1,-1
 798 0 l 1,2,3
 718 -40 718 -40 685 -75.5 c 128,-1,4
 652 -111 652 -111 652 -161 c 0,5,6
 652 -187 652 -187 665.5 -205 c 128,-1,7
 679 -223 679 -223 712 -223 c 0,8,9
 738 -223 738 -223 753 -217 c 128,-1,10
 768 -211 768 -211 781 -205 c 1,11,-1
 820 -373 l 1,12,13
 795 -388 795 -388 755 -402.5 c 128,-1,14
 715 -417 715 -417 654 -417 c 0,15,16
 553 -417 553 -417 482 -362.5 c 128,-1,17
 411 -308 411 -308 411 -203 c 0,18,19
 411 -149 411 -149 432 -97.5 c 128,-1,20
 453 -46 453 -46 511 0 c 1,21,-1
 81 0 l 1,22,-1
 81 1165 l 1,23,-1
 967 1165 l 1,24,-1
 967 905 l 1,25,-1
 419 905 l 1,26,-1
 419 732 l 1,27,-1
 877 732 l 1,28,-1
 877 472 l 1,29,-1
 419 472 l 1,30,-1
 419 259 l 1,31,-1
 962 259 l 1,0,-1
EndSplineSet
Substitution2: "'locl' Localized Forms in Latin lookup 8 subtable" Eogonek.smcp.NAV
EndChar

StartChar: Eth
Encoding: 208 208 96
Width: 1355
VWidth: 1798
GlyphClass: 2
Flags: W
AnchorPoint: "Anchor-1" 613 -240 basechar 0
AnchorPoint: "Anchor-0" 609 1362 basechar 0
LayerCount: 2
Fore
SplineSet
614 -250 m 2,0,-1
 141 -250 l 1,1,-1
 141 385 l 1,2,-1
 -1 385 l 1,3,-1
 -1 576 l 1,4,-1
 141 576 l 1,5,-1
 141 1206 l 1,6,-1
 609 1206 l 2,7,8
 807 1206 807 1206 959 1117.5 c 128,-1,9
 1111 1029 1111 1029 1197.5 871.5 c 128,-1,10
 1284 714 1284 714 1284 508 c 2,11,-1
 1284 447 l 2,12,13
 1284 241 1284 241 1198 84 c 128,-1,14
 1112 -73 1112 -73 960.5 -161.5 c 128,-1,15
 809 -250 809 -250 614 -250 c 2,0,-1
730 576 m 1,16,-1
 730 385 l 1,17,-1
 492 385 l 1,18,-1
 492 20 l 1,19,-1
 614 20 l 2,20,21
 764 20 764 20 845 128 c 128,-1,22
 926 236 926 236 926 447 c 2,23,-1
 926 510 l 2,24,25
 926 719 926 719 845 827 c 128,-1,26
 764 935 764 935 609 935 c 2,27,-1
 492 935 l 1,28,-1
 492 576 l 1,29,-1
 730 576 l 1,16,-1
EndSplineSet
Substitution2: "'c2sc' Capitals to Small Capitals lookup 0 subtable" Eth.smcp
Position2: "'cpsp' Capital Spacing lookup 0 subtable" dx=36 dy=0 dh=72 dv=0
EndChar

StartChar: Euro
Encoding: 8364 8364 98
Width: 1187
GlyphClass: 2
Flags: W
LayerCount: 2
Fore
SplineSet
894 250 m 0,0,1
 941 250 941 250 985 257 c 128,-1,2
 1029 264 1029 264 1069 280 c 1,3,-1
 1112 11 l 1,4,5
 1051 -3 1051 -3 984.5 -11 c 128,-1,6
 918 -19 918 -19 849 -19 c 0,7,8
 680 -19 680 -19 547 40 c 128,-1,9
 414 99 414 99 335.5 216 c 128,-1,10
 257 333 257 333 251 508 c 1,11,-1
 86 508 l 1,12,-1
 86 668 l 1,13,-1
 251 668 l 1,14,-1
 251 790 l 1,15,-1
 86 790 l 1,16,-1
 86 949 l 1,17,-1
 254 949 l 1,18,19
 268 1121 268 1121 350.5 1238.5 c 128,-1,20
 433 1356 433 1356 569.5 1415.5 c 128,-1,21
 706 1475 706 1475 881 1475 c 0,22,23
 939 1475 939 1475 997.5 1466.5 c 128,-1,24
 1056 1458 1056 1458 1112 1444 c 1,25,-1
 1069 1174 l 1,26,27
 1034 1188 1034 1188 989.5 1196.5 c 128,-1,28
 945 1205 945 1205 903 1205 c 0,29,30
 773 1205 773 1205 696.5 1146.5 c 128,-1,31
 620 1088 620 1088 606 949 c 1,32,-1
 914 949 l 1,33,-1
 914 790 l 1,34,-1
 603 790 l 1,35,-1
 603 668 l 1,36,-1
 914 668 l 1,37,-1
 914 508 l 1,38,-1
 603 508 l 1,39,40
 608 405 608 405 645 349 c 128,-1,41
 682 293 682 293 746 271.5 c 128,-1,42
 810 250 810 250 894 250 c 0,0,1
EndSplineSet
Substitution2: "'c2sc' Capitals to Small Capitals lookup 0 subtable" Euro.smcp
Position2: "'cpsp' Capital Spacing lookup 0 subtable" dx=36 dy=0 dh=72 dv=0
EndChar

StartChar: Euro.smcp
Encoding: 65597 -1 99
Width: 1040
GlyphClass: 2
Flags: W
LayerCount: 2
Fore
SplineSet
747 244 m 0,0,1
 806 244 806 244 851.5 252 c 128,-1,2
 897 260 897 260 947 270 c 1,3,-1
 967 15 l 1,4,5
 911 0 911 0 860.5 -8 c 128,-1,6
 810 -16 810 -16 747 -16 c 0,7,8
 531 -16 531 -16 395 85.5 c 128,-1,9
 259 187 259 187 225 361 c 1,10,-1
 72 361 l 1,11,-1
 72 544 l 1,12,-1
 215 544 l 1,13,-1
 215 610 l 1,14,-1
 72 610 l 1,15,-1
 72 794 l 1,16,-1
 226 794 l 1,17,18
 261 977 261 977 396 1081 c 128,-1,19
 531 1185 531 1185 745 1185 c 0,20,21
 809 1185 809 1185 859 1177 c 128,-1,22
 909 1169 909 1169 969 1151 c 1,23,-1
 947 896 l 1,24,25
 892 911 892 911 848 918 c 128,-1,26
 804 925 804 925 745 925 c 0,27,28
 671 925 671 925 628 891.5 c 128,-1,29
 585 858 585 858 567 794 c 1,30,-1
 895 794 l 1,31,-1
 895 610 l 1,32,-1
 553 610 l 1,33,-1
 553 544 l 1,34,-1
 895 544 l 1,35,-1
 895 361 l 1,36,-1
 567 361 l 1,37,38
 603 244 603 244 747 244 c 0,0,1
EndSplineSet
EndChar

StartChar: F
Encoding: 70 70 100
Width: 1120
VWidth: 1798
GlyphClass: 2
Flags: W
AnchorPoint: "Anchor-1" 619 -240 basechar 0
AnchorPoint: "Anchor-0" 619 1362 basechar 0
LayerCount: 2
Fore
SplineSet
1028 600 m 1,0,-1
 1028 330 l 1,1,-1
 462 330 l 1,2,-1
 462 -250 l 1,3,-1
 111 -250 l 1,4,-1
 111 1206 l 1,5,-1
 1085 1206 l 1,6,-1
 1085 935 l 1,7,-1
 462 935 l 1,8,-1
 462 600 l 1,9,-1
 1028 600 l 1,0,-1
EndSplineSet
Substitution2: "'c2sc' Capitals to Small Capitals lookup 0 subtable" F.smcp
Position2: "'cpsp' Capital Spacing lookup 0 subtable" dx=36 dy=0 dh=72 dv=0
EndChar

StartChar: F.smcp
Encoding: 65598 -1 101
Width: 961
GlyphClass: 2
Flags: W
AnchorPoint: "Anchor-1" 489 10 basechar 0
AnchorPoint: "Anchor-0" 541 1320 basechar 0
LayerCount: 2
Fore
SplineSet
898 700 m 1,0,-1
 898 440 l 1,1,-1
 419 440 l 1,2,-1
 419 0 l 1,3,-1
 81 0 l 1,4,-1
 81 1165 l 1,5,-1
 938 1165 l 1,6,-1
 938 905 l 1,7,-1
 419 905 l 1,8,-1
 419 700 l 1,9,-1
 898 700 l 1,0,-1
EndSplineSet
EndChar

StartChar: G
Encoding: 71 71 102
Width: 1396
VWidth: 1798
GlyphClass: 2
Flags: W
AnchorPoint: "Anchor-1" 730 -259 basechar 0
AnchorPoint: "Anchor-0" 672 1383 basechar 0
LayerCount: 2
Fore
SplineSet
1302 528 m 1,0,-1
 1302 -70 l 1,1,2
 1265 -111 1265 -111 1188.5 -157.5 c 128,-1,3
 1112 -204 1112 -204 996 -237 c 128,-1,4
 880 -270 880 -270 723 -270 c 0,5,6
 530 -270 530 -270 385.5 -187.5 c 128,-1,7
 241 -105 241 -105 161.5 53 c 128,-1,8
 82 211 82 211 82 437 c 2,9,-1
 82 518 l 2,10,11
 82 745 82 745 162 903 c 128,-1,12
 242 1061 242 1061 382.5 1144 c 128,-1,13
 523 1227 523 1227 704 1227 c 0,14,15
 905 1227 905 1227 1031 1163.5 c 128,-1,16
 1157 1100 1157 1100 1222 988.5 c 128,-1,17
 1287 877 1287 877 1301 731 c 1,18,-1
 964 731 l 1,19,20
 948 839 948 839 893 898 c 128,-1,21
 838 957 838 957 716 957 c 0,22,23
 589 957 589 957 514 848.5 c 128,-1,24
 439 740 439 740 439 520 c 2,25,-1
 439 437 l 2,26,27
 439 219 439 219 513.5 109.5 c 128,-1,28
 588 0 588 0 748 0 c 0,29,30
 832 0 832 0 880.5 20.5 c 128,-1,31
 929 41 929 41 951 61 c 1,32,-1
 951 287 l 1,33,-1
 707 287 l 1,34,-1
 707 528 l 1,35,-1
 1302 528 l 1,0,-1
EndSplineSet
Substitution2: "'c2sc' Capitals to Small Capitals lookup 0 subtable" G.smcp
Position2: "'cpsp' Capital Spacing lookup 0 subtable" dx=36 dy=0 dh=72 dv=0
EndChar

StartChar: G.smcp
Encoding: 65599 -1 103
Width: 1182
GlyphClass: 2
Flags: W
AnchorPoint: "Anchor-1" 591 -4 basechar 0
AnchorPoint: "Anchor-0" 584 1320 basechar 0
LayerCount: 2
Fore
SplineSet
1134 642 m 1,0,-1
 1134 138 l 1,1,2
 1082 88 1082 88 951 36 c 128,-1,3
 820 -16 820 -16 620 -16 c 0,4,5
 365 -16 365 -16 213.5 131 c 128,-1,6
 62 278 62 278 62 554 c 2,7,-1
 62 610 l 2,8,9
 62 794 62 794 134 921.5 c 128,-1,10
 206 1049 206 1049 329 1115.5 c 128,-1,11
 452 1182 452 1182 605 1182 c 0,12,13
 786 1182 786 1182 898 1129 c 128,-1,14
 1010 1076 1010 1076 1066 982 c 128,-1,15
 1122 888 1122 888 1133 765 c 1,16,-1
 810 765 l 1,17,18
 798 848 798 848 755 885 c 128,-1,19
 712 922 712 922 618 922 c 0,20,21
 528 922 528 922 464 849.5 c 128,-1,22
 400 777 400 777 400 612 c 2,23,-1
 400 554 l 2,24,25
 400 394 400 394 457.5 318.5 c 128,-1,26
 515 243 515 243 648 243 c 0,27,28
 702 243 702 243 740 253.5 c 128,-1,29
 778 264 778 264 794 274 c 1,30,-1
 794 417 l 1,31,-1
 594 417 l 1,32,-1
 594 642 l 1,33,-1
 1134 642 l 1,0,-1
EndSplineSet
EndChar

StartChar: Germandbls.smcp
Encoding: 65604 -1 111
Width: 1146
GlyphClass: 2
Flags: W
LayerCount: 2
Fore
SplineSet
467 41 m 1,0,-1
 564 275 l 1,1,2
 578 262 578 262 606.5 245.5 c 128,-1,3
 635 229 635 229 669 229 c 0,4,5
 717 229 717 229 746.5 262 c 128,-1,6
 776 295 776 295 776 353 c 0,7,8
 776 425 776 425 724.5 454 c 128,-1,9
 673 483 673 483 581 483 c 2,10,-1
 501 483 l 1,11,-1
 501 677 l 1,12,-1
 646 869 l 1,13,14
 621 897 621 897 589.5 913.5 c 128,-1,15
 558 930 558 930 523 930 c 0,16,17
 483 930 483 930 445.5 886 c 128,-1,18
 408 842 408 842 408 739 c 2,19,-1
 408 0 l 1,20,-1
 81 0 l 1,21,-1
 81 741 l 1,22,-1
 81 741 l 1,23,24
 82 958 82 958 197 1069 c 128,-1,25
 312 1180 312 1180 529 1180 c 0,26,27
 678 1180 678 1180 792.5 1115 c 128,-1,28
 907 1050 907 1050 1005 922 c 1,29,-1
 796 675 l 1,30,31
 942 644 942 644 1022 562 c 128,-1,32
 1102 480 1102 480 1102 353 c 0,33,34
 1102 227 1102 227 1048.5 144 c 128,-1,35
 995 61 995 61 908 20 c 128,-1,36
 821 -21 821 -21 718 -21 c 0,37,38
 630 -21 630 -21 569.5 -2.5 c 128,-1,39
 509 16 509 16 467 41 c 1,0,-1
EndSplineSet
EndChar

StartChar: H
Encoding: 72 72 112
Width: 1439
VWidth: 1798
GlyphClass: 2
Flags: W
AnchorPoint: "Anchor-1" 714 -240 basechar 0
AnchorPoint: "Anchor-0" 712 1362 basechar 0
LayerCount: 2
Fore
SplineSet
462 1206 m 1,0,-1
 462 628 l 1,1,-1
 978 628 l 1,2,-1
 978 1206 l 1,3,-1
 1328 1206 l 1,4,-1
 1328 -250 l 1,5,-1
 978 -250 l 1,6,-1
 978 358 l 1,7,-1
 462 358 l 1,8,-1
 462 -250 l 1,9,-1
 111 -250 l 1,10,-1
 111 1206 l 1,11,-1
 462 1206 l 1,0,-1
EndSplineSet
Substitution2: "'c2sc' Capitals to Small Capitals lookup 0 subtable" H.smcp
Position2: "'cpsp' Capital Spacing lookup 0 subtable" dx=36 dy=0 dh=72 dv=0
EndChar

StartChar: H.smcp
Encoding: 65605 -1 113
Width: 1232
GlyphClass: 2
Flags: W
AnchorPoint: "Anchor-1" 615 10 basechar 0
AnchorPoint: "Anchor-0" 615 1320 basechar 0
LayerCount: 2
Fore
SplineSet
419 1165 m 1,0,-1
 419 700 l 1,1,-1
 815 700 l 1,2,-1
 815 1165 l 1,3,-1
 1151 1165 l 1,4,-1
 1151 0 l 1,5,-1
 815 0 l 1,6,-1
 815 440 l 1,7,-1
 419 440 l 1,8,-1
 419 0 l 1,9,-1
 81 0 l 1,10,-1
 81 1165 l 1,11,-1
 419 1165 l 1,0,-1
EndSplineSet
EndChar

StartChar: Hbar
Encoding: 294 294 114
Width: 1493
VWidth: 1798
GlyphClass: 2
Flags: W
AnchorPoint: "Anchor-1" 724 -240 basechar 0
AnchorPoint: "Anchor-0" 724 1362 basechar 0
LayerCount: 2
Fore
SplineSet
487 1206 m 1,0,-1
 487 993 l 1,1,-1
 1003 993 l 1,2,-1
 1003 1206 l 1,3,-1
 1353 1206 l 1,4,-1
 1353 993 l 1,5,-1
 1469 993 l 1,6,-1
 1469 810 l 1,7,-1
 1353 810 l 1,8,-1
 1353 -250 l 1,9,-1
 1003 -250 l 1,10,-1
 1003 358 l 1,11,-1
 487 358 l 1,12,-1
 487 -250 l 1,13,-1
 136 -250 l 1,14,-1
 136 810 l 1,15,-1
 33 810 l 1,16,-1
 33 993 l 1,17,-1
 136 993 l 1,18,-1
 136 1206 l 1,19,-1
 487 1206 l 1,0,-1
487 628 m 1,20,-1
 1003 628 l 1,21,-1
 1003 810 l 1,22,-1
 487 810 l 1,23,-1
 487 628 l 1,20,-1
EndSplineSet
Substitution2: "'c2sc' Capitals to Small Capitals lookup 0 subtable" Hbar.smcp
Position2: "'cpsp' Capital Spacing lookup 0 subtable" dx=36 dy=0 dh=72 dv=0
EndChar

StartChar: Hbar.smcp
Encoding: 65606 -1 115
Width: 1369
GlyphClass: 2
Flags: W
AnchorPoint: "Anchor-1" 615 10 basechar 0
AnchorPoint: "Anchor-0" 615 1320 basechar 0
LayerCount: 2
Fore
SplineSet
488 1165 m 1,0,-1
 488 1042 l 1,1,-1
 883 1042 l 1,2,-1
 883 1165 l 1,3,-1
 1219 1165 l 1,4,-1
 1219 1042 l 1,5,-1
 1309 1042 l 1,6,-1
 1309 851 l 1,7,-1
 1219 851 l 1,8,-1
 1219 0 l 1,9,-1
 883 0 l 1,10,-1
 883 440 l 1,11,-1
 488 440 l 1,12,-1
 488 0 l 1,13,-1
 150 0 l 1,14,-1
 150 851 l 1,15,-1
 60 851 l 1,16,-1
 60 1042 l 1,17,-1
 150 1042 l 1,18,-1
 150 1165 l 1,19,-1
 488 1165 l 1,0,-1
488 700 m 1,20,-1
 883 700 l 1,21,-1
 883 851 l 1,22,-1
 488 851 l 1,23,-1
 488 700 l 1,20,-1
EndSplineSet
EndChar

StartChar: I
Encoding: 73 73 118
Width: 619
VWidth: 1798
GlyphClass: 2
Flags: W
AnchorPoint: "Anchor-1" 279 -241 basechar 0
AnchorPoint: "Anchor-0" 279 1362 basechar 0
LayerCount: 2
Fore
SplineSet
484 1206 m 1,0,-1
 484 -250 l 1,1,-1
 134 -250 l 1,2,-1
 134 1206 l 1,3,-1
 484 1206 l 1,0,-1
EndSplineSet
Substitution2: "'c2sc' Capitals to Small Capitals lookup 0 subtable" I.smcp
Position2: "'cpsp' Capital Spacing lookup 0 subtable" dx=36 dy=0 dh=72 dv=0
EndChar

StartChar: I.smcp
Encoding: 65608 -1 119
Width: 546
GlyphClass: 2
Flags: W
AnchorPoint: "Anchor-1" 244 4 basechar 0
AnchorPoint: "Anchor-0" 244 1320 basechar 0
LayerCount: 2
Fore
SplineSet
442 1165 m 1,0,-1
 442 0 l 1,1,-1
 104 0 l 1,2,-1
 104 1165 l 1,3,-1
 442 1165 l 1,0,-1
EndSplineSet
EndChar

StartChar: J
Encoding: 74 74 140
Width: 1151
VWidth: 1798
GlyphClass: 2
Flags: W
AnchorPoint: "Anchor-1" 512 -260 basechar 0
AnchorPoint: "Anchor-0" 852 1349 basechar 0
LayerCount: 2
Fore
SplineSet
690 207 m 2,0,-1
 690 1206 l 1,1,-1
 1040 1206 l 1,2,-1
 1040 207 l 2,3,4
 1040 61 1040 61 973.5 -46 c 128,-1,5
 907 -153 907 -153 793.5 -211.5 c 128,-1,6
 680 -270 680 -270 539 -270 c 0,7,8
 393 -270 393 -270 279.5 -221 c 128,-1,9
 166 -172 166 -172 101.5 -70 c 128,-1,10
 37 32 37 32 37 190 c 1,11,-1
 389 190 l 1,12,13
 389 79 389 79 427.5 39.5 c 128,-1,14
 466 0 466 0 539 0 c 0,15,16
 611 0 611 0 650.5 55 c 128,-1,17
 690 110 690 110 690 207 c 2,0,-1
EndSplineSet
Substitution2: "'c2sc' Capitals to Small Capitals lookup 0 subtable" J.smcp
Position2: "'cpsp' Capital Spacing lookup 0 subtable" dx=36 dy=0 dh=72 dv=0
EndChar

StartChar: J.smcp
Encoding: 65619 -1 141
Width: 995
GlyphClass: 2
Flags: W
AnchorPoint: "Anchor-1" 457 -10 basechar 0
AnchorPoint: "Anchor-0" 734 1320 basechar 0
LayerCount: 2
Fore
SplineSet
573 415 m 2,0,-1
 573 1165 l 1,1,-1
 911 1165 l 1,2,-1
 911 415 l 2,3,4
 911 278 911 278 851 181.5 c 128,-1,5
 791 85 791 85 692.5 34.5 c 128,-1,6
 594 -16 594 -16 476 -16 c 0,7,8
 272 -16 272 -16 150.5 81.5 c 128,-1,9
 29 179 29 179 29 388 c 1,10,-1
 367 388 l 1,11,12
 367 314 367 314 392 278.5 c 128,-1,13
 417 243 417 243 476 243 c 0,14,15
 528 243 528 243 550.5 283.5 c 128,-1,16
 573 324 573 324 573 415 c 2,0,-1
EndSplineSet
EndChar

StartChar: K
Encoding: 75 75 144
Width: 1310
VWidth: 1798
GlyphClass: 2
Flags: W
AnchorPoint: "Anchor-1" 660 -160 basechar 0
AnchorPoint: "Anchor-0" 605 1345 basechar 0
LayerCount: 2
Fore
SplineSet
916 -250 m 1,0,-1
 606 291 l 1,1,-1
 462 134 l 1,2,-1
 462 -250 l 1,3,-1
 111 -250 l 1,4,-1
 111 1206 l 1,5,-1
 462 1206 l 1,6,-1
 462 564 l 1,7,-1
 584 749 l 1,8,-1
 898 1206 l 1,9,-1
 1331 1206 l 1,10,-1
 840 563 l 1,11,-1
 1331 -250 l 1,12,-1
 916 -250 l 1,0,-1
EndSplineSet
Substitution2: "'salt' Stylistic Alternatives lookup 13 subtable" K.alt
Substitution2: "'c2sc' Capitals to Small Capitals lookup 0 subtable" K.smcp
Position2: "'cpsp' Capital Spacing lookup 0 subtable" dx=36 dy=0 dh=72 dv=0
EndChar

StartChar: K.alt
Encoding: 65621 -1 145
Width: 1326
GlyphClass: 2
Flags: W
LayerCount: 2
Fore
SplineSet
935 0 m 1,0,-1
 627 576 l 1,1,-1
 459 576 l 1,2,-1
 459 0 l 1,3,-1
 109 0 l 1,4,-1
 109 1456 l 1,5,-1
 459 1456 l 1,6,-1
 459 893 l 1,7,-1
 595 893 l 1,8,-1
 875 1456 l 1,9,-1
 1299 1456 l 1,10,-1
 900 784 l 1,11,-1
 1349 0 l 1,12,-1
 935 0 l 1,0,-1
EndSplineSet
EndChar

StartChar: K.smcp
Encoding: 65622 -1 146
Width: 1133
GlyphClass: 2
Flags: W
AnchorPoint: "Anchor-1" 532 6 basechar 0
AnchorPoint: "Anchor-0" 518 1320 basechar 0
LayerCount: 2
Fore
SplineSet
758 0 m 1,0,-1
 534 396 l 1,1,-1
 424 287 l 1,2,-1
 419 303 l 1,3,-1
 419 0 l 1,4,-1
 81 0 l 1,5,-1
 81 1165 l 1,6,-1
 419 1165 l 1,7,-1
 419 704 l 1,8,-1
 504 830 l 1,9,-1
 730 1165 l 1,10,-1
 1155 1165 l 1,11,-1
 763 646 l 1,12,-1
 1155 0 l 1,13,-1
 758 0 l 1,0,-1
EndSplineSet
EndChar

StartChar: L
Encoding: 76 76 149
Width: 1110
VWidth: 1798
GlyphClass: 2
Flags: W
AnchorPoint: "Anchor-1" 620 -240 basechar 0
AnchorPoint: "Anchor-0" 264 1346 basechar 0
LayerCount: 2
Fore
SplineSet
1073 20 m 1,0,-1
 1073 -250 l 1,1,-1
 111 -250 l 1,2,-1
 111 1206 l 1,3,-1
 462 1206 l 1,4,-1
 462 20 l 1,5,-1
 1073 20 l 1,0,-1
EndSplineSet
Substitution2: "'c2sc' Capitals to Small Capitals lookup 0 subtable" L.smcp
Position2: "'cpsp' Capital Spacing lookup 0 subtable" dx=36 dy=0 dh=72 dv=0
EndChar

StartChar: L.smcp
Encoding: 65624 -1 150
Width: 955
GlyphClass: 2
Flags: W
AnchorPoint: "Anchor-1" 527 8 basechar 0
AnchorPoint: "Anchor-0" 233 1320 basechar 0
LayerCount: 2
Fore
SplineSet
926 259 m 1,0,-1
 926 0 l 1,1,-1
 81 0 l 1,2,-1
 81 1165 l 1,3,-1
 419 1165 l 1,4,-1
 419 259 l 1,5,-1
 926 259 l 1,0,-1
EndSplineSet
EndChar

StartChar: Lslash
Encoding: 321 321 161
Width: 1161
VWidth: 1798
GlyphClass: 2
Flags: W
AnchorPoint: "Anchor-1" 618 -240 basechar 0
AnchorPoint: "Anchor-0" 262 1346 basechar 0
LayerCount: 2
Fore
SplineSet
1123 20 m 1,0,-1
 1123 -250 l 1,1,-1
 162 -250 l 1,2,-1
 162 389 l 1,3,-1
 26 352 l 1,4,-1
 26 530 l 1,5,-1
 162 567 l 1,6,-1
 162 1206 l 1,7,-1
 512 1206 l 1,8,-1
 512 663 l 1,9,-1
 707 717 l 1,10,-1
 707 539 l 1,11,-1
 512 485 l 1,12,-1
 512 20 l 1,13,-1
 1123 20 l 1,0,-1
EndSplineSet
Substitution2: "'c2sc' Capitals to Small Capitals lookup 0 subtable" Lslash.smcp
Position2: "'cpsp' Capital Spacing lookup 0 subtable" dx=36 dy=0 dh=72 dv=0
EndChar

StartChar: Lslash.smcp
Encoding: 65631 -1 162
Width: 989
GlyphClass: 2
Flags: W
AnchorPoint: "Anchor-1" 527 8 basechar 0
AnchorPoint: "Anchor-0" 233 1320 basechar 0
LayerCount: 2
Fore
SplineSet
959 259 m 1,0,-1
 959 0 l 1,1,-1
 115 0 l 1,2,-1
 115 531 l 1,3,-1
 11 502 l 1,4,-1
 11 680 l 1,5,-1
 115 709 l 1,6,-1
 115 1165 l 1,7,-1
 453 1165 l 1,8,-1
 453 801 l 1,9,-1
 693 867 l 1,10,-1
 693 689 l 1,11,-1
 453 623 l 1,12,-1
 453 259 l 1,13,-1
 959 259 l 1,0,-1
EndSplineSet
EndChar

StartChar: M
Encoding: 77 77 163
Width: 1795
VWidth: 1798
GlyphClass: 2
Flags: W
AnchorPoint: "Anchor-1" 893 -240 basechar 0
AnchorPoint: "Anchor-0" 890 1351 basechar 0
LayerCount: 2
Fore
SplineSet
111 1206 m 1,0,-1
 571 1206 l 1,1,-1
 896 193 l 1,2,-1
 1221 1206 l 1,3,-1
 1682 1206 l 1,4,-1
 1682 -250 l 1,5,-1
 1330 -250 l 1,6,-1
 1330 90 l 1,7,-1
 1364 786 l 1,8,-1
 1012 -250 l 1,9,-1
 780 -250 l 1,10,-1
 428 786 l 1,11,-1
 462 90 l 1,12,-1
 462 -250 l 1,13,-1
 111 -250 l 1,14,-1
 111 1206 l 1,0,-1
EndSplineSet
Substitution2: "'unic' Unicase lookup 2 subtable" M.unic
Substitution2: "'c2sc' Capitals to Small Capitals lookup 0 subtable" M.smcp
Position2: "'cpsp' Capital Spacing lookup 0 subtable" dx=36 dy=0 dh=72 dv=0
EndChar

StartChar: M.smcp
Encoding: 65632 -1 164
Width: 1546
GlyphClass: 2
Flags: W
AnchorPoint: "Anchor-1" 765 10 basechar 0
AnchorPoint: "Anchor-0" 765 1320 basechar 0
LayerCount: 2
Fore
SplineSet
81 1165 m 1,0,-1
 528 1165 l 1,1,-1
 771 422 l 1,2,-1
 1014 1165 l 1,3,-1
 1463 1165 l 1,4,-1
 1463 0 l 1,5,-1
 1124 0 l 1,6,-1
 1124 180 l 1,7,-1
 1158 804 l 1,8,-1
 880 0 l 1,9,-1
 662 0 l 1,10,-1
 386 799 l 1,11,-1
 421 180 l 1,12,-1
 421 0 l 1,13,-1
 81 0 l 1,14,-1
 81 1165 l 1,0,-1
EndSplineSet
EndChar

StartChar: M.unic
Encoding: 65633 -1 165
Width: 2213
GlyphClass: 2
Flags: W
AnchorPoint: "Anchor-1" 1118 10 basechar 0
AnchorPoint: "Anchor-0" 1114 1632 basechar 0
LayerCount: 2
Fore
SplineSet
731 1196 m 0,0,1
 627 1196 627 1196 555.5 1126.5 c 128,-1,2
 484 1057 484 1057 462 946 c 1,3,-1
 462 0 l 1,4,-1
 111 0 l 1,5,-1
 111 1456 l 1,6,-1
 441 1456 l 1,7,-1
 454 1312 l 1,8,9
 527 1387 527 1387 627 1431.5 c 128,-1,10
 727 1476 727 1476 851 1476 c 0,11,12
 1111 1476 1111 1476 1218 1271 c 1,13,14
 1300 1363 1300 1363 1416 1419.5 c 128,-1,15
 1532 1476 1532 1476 1671 1476 c 0,16,17
 1871 1476 1871 1476 1986 1359.5 c 128,-1,18
 2101 1243 2101 1243 2101 965 c 2,19,-1
 2101 0 l 1,20,-1
 1752 0 l 1,21,-1
 1752 918 l 2,22,23
 1752 1076 1752 1076 1699 1136 c 128,-1,24
 1646 1196 1646 1196 1551 1196 c 0,25,26
 1447 1196 1447 1196 1375.5 1126.5 c 128,-1,27
 1304 1057 1304 1057 1282 946 c 1,28,-1
 1282 0 l 1,29,-1
 932 0 l 1,30,-1
 932 918 l 2,31,32
 932 1076 932 1076 879.5 1136 c 128,-1,33
 827 1196 827 1196 731 1196 c 0,0,1
EndSplineSet
EndChar

StartChar: N
Encoding: 78 78 166
Width: 1438
VWidth: 1798
GlyphClass: 2
Flags: W
AnchorPoint: "Anchor-1" 720 -240 basechar 0
AnchorPoint: "Anchor-0" 726 1351 basechar 0
LayerCount: 2
Fore
SplineSet
1327 1206 m 1,0,-1
 1327 -250 l 1,1,-1
 977 -250 l 1,2,-1
 462 656 l 1,3,-1
 462 -250 l 1,4,-1
 111 -250 l 1,5,-1
 111 1206 l 1,6,-1
 462 1206 l 1,7,-1
 977 300 l 1,8,-1
 977 1206 l 1,9,-1
 1327 1206 l 1,0,-1
EndSplineSet
Substitution2: "'unic' Unicase lookup 2 subtable" N.unic
Substitution2: "'c2sc' Capitals to Small Capitals lookup 0 subtable" N.smcp
Position2: "'cpsp' Capital Spacing lookup 0 subtable" dx=36 dy=0 dh=72 dv=0
EndChar

StartChar: N.smcp
Encoding: 65634 -1 167
Width: 1231
GlyphClass: 2
Flags: W
AnchorPoint: "Anchor-1" 619 4 basechar 0
AnchorPoint: "Anchor-0" 624 1320 basechar 0
LayerCount: 2
Fore
SplineSet
1150 1165 m 1,0,-1
 1150 0 l 1,1,-1
 812 0 l 1,2,-1
 419 678 l 1,3,-1
 419 0 l 1,4,-1
 81 0 l 1,5,-1
 81 1165 l 1,6,-1
 419 1165 l 1,7,-1
 812 487 l 1,8,-1
 812 1165 l 1,9,-1
 1150 1165 l 1,0,-1
EndSplineSet
EndChar

StartChar: N.unic
Encoding: 65635 -1 168
Width: 1439
GlyphClass: 2
Flags: W
AnchorPoint: "Anchor-1" 720 10 basechar 0
AnchorPoint: "Anchor-0" 726 1632 basechar 0
LayerCount: 2
Fore
SplineSet
760 1196 m 0,0,1
 644 1196 644 1196 565 1125 c 128,-1,2
 486 1054 486 1054 462 941 c 1,3,-1
 462 0 l 1,4,-1
 111 0 l 1,5,-1
 111 1456 l 1,6,-1
 441 1456 l 1,7,-1
 455 1304 l 1,8,9
 532 1382 532 1382 639 1429 c 128,-1,10
 746 1476 746 1476 880 1476 c 0,11,12
 1019 1476 1019 1476 1119 1425.5 c 128,-1,13
 1219 1375 1219 1375 1273.5 1263 c 128,-1,14
 1328 1151 1328 1151 1328 965 c 2,15,-1
 1328 0 l 1,16,-1
 978 0 l 1,17,-1
 978 918 l 2,18,19
 978 1076 978 1076 921 1136 c 128,-1,20
 864 1196 864 1196 760 1196 c 0,0,1
EndSplineSet
EndChar

StartChar: NameMe.65564
Encoding: 65638 -1 172
Width: 576
GlyphClass: 1
Flags: W
LayerCount: 2
Fore
SplineSet
133 1277 m 1,0,-1
 422 1277 l 1,1,-1
 422 501 l 2,2,3
 422 401 422 401 448.5 355.5 c 128,-1,4
 475 310 475 310 571 310 c 2,5,-1
 596 310 l 1,6,-1
 596 0 l 1,7,-1
 571 0 l 2,8,9
 348 0 348 0 240.5 118 c 128,-1,10
 133 236 133 236 133 471 c 2,11,-1
 133 1277 l 1,0,-1
EndSplineSet
EndChar

StartChar: NameMe.65565
Encoding: 65639 -1 173
Width: 696
GlyphClass: 1
Flags: W
LayerCount: 2
Fore
SplineSet
507 230 m 0,0,1
 524 230 524 230 559 223.5 c 128,-1,2
 594 217 594 217 621 206 c 1,3,-1
 597 84 l 1,4,5
 578 90 578 90 551.5 95.5 c 128,-1,6
 525 101 525 101 507 101 c 0,7,8
 447 101 447 101 412.5 65.5 c 128,-1,9
 378 30 378 30 378 -8 c 0,10,11
 378 -24 378 -24 381 -27 c 128,-1,12
 384 -30 384 -30 401 -30 c 2,13,-1
 493 -30 l 2,14,15
 554 -30 554 -30 588 -64 c 128,-1,16
 622 -98 622 -98 622 -149 c 0,17,18
 622 -244 622 -244 573.5 -304.5 c 128,-1,19
 525 -365 525 -365 444.5 -393.5 c 128,-1,20
 364 -422 364 -422 268 -422 c 0,21,22
 207 -422 207 -422 158 -410 c 128,-1,23
 109 -398 109 -398 67 -379 c 1,24,-1
 124 -259 l 1,25,26
 154 -274 154 -274 187.5 -284 c 128,-1,27
 221 -294 221 -294 270 -294 c 0,28,29
 318 -294 318 -294 371.5 -281 c 128,-1,30
 425 -268 425 -268 462.5 -240.5 c 128,-1,31
 500 -213 500 -213 500 -169 c 0,32,33
 500 -167 500 -167 494 -163.5 c 128,-1,34
 488 -160 488 -160 469 -160 c 2,35,-1
 396 -160 l 2,36,37
 329 -160 329 -160 290 -122 c 128,-1,38
 251 -84 251 -84 251 -15 c 0,39,40
 251 60 251 60 287.5 115 c 128,-1,41
 324 170 324 170 382.5 200 c 128,-1,42
 441 230 441 230 507 230 c 0,0,1
EndSplineSet
EndChar

StartChar: NameMe.65583
Encoding: 65641 -1 175
Width: 471
GlyphClass: 1
Flags: W
LayerCount: 2
Fore
SplineSet
-57 1331 m 1,0,-1
 -34 1424 l 1,1,2
 -18 1411 -18 1411 2 1399.5 c 128,-1,3
 22 1388 22 1388 42 1377 c 1,4,5
 122 1511 122 1511 188.5 1570.5 c 128,-1,6
 255 1630 255 1630 337 1630 c 0,7,8
 421 1630 421 1630 475 1577.5 c 128,-1,9
 529 1525 529 1525 529 1445 c 0,10,11
 529 1339 529 1339 454 1297 c 128,-1,12
 379 1255 379 1255 207 1255 c 2,13,-1
 182 1255 l 2,14,15
 89 1255 89 1255 29 1272.5 c 128,-1,16
 -31 1290 -31 1290 -57 1331 c 1,0,-1
205 1361 m 2,17,18
 336 1361 336 1361 380.5 1377 c 128,-1,19
 425 1393 425 1393 425 1441 c 0,20,21
 425 1476 425 1476 402.5 1499 c 128,-1,22
 380 1522 380 1522 342 1522 c 0,23,24
 294 1522 294 1522 253 1486.5 c 128,-1,25
 212 1451 212 1451 153 1361 c 1,26,-1
 205 1361 l 2,17,18
EndSplineSet
EndChar

StartChar: NameMe.65703
Encoding: 65642 -1 176
Width: 556
GlyphClass: 1
Flags: W
LayerCount: 2
Fore
SplineSet
423 1274 m 1,0,-1
 423 1 l 1,1,-1
 134 1 l 1,2,-1
 134 1274 l 1,3,-1
 423 1274 l 1,0,-1
EndSplineSet
EndChar

StartChar: O
Encoding: 79 79 186
Width: 1414
VWidth: 1798
GlyphClass: 2
Flags: W
AnchorPoint: "Anchor-1" 707 -250 basechar 0
AnchorPoint: "Anchor-0" 707 1353 basechar 0
LayerCount: 2
Fore
SplineSet
1343 507 m 2,0,-1
 1343 448 l 2,1,2
 1343 225 1343 225 1262 64.5 c 128,-1,3
 1181 -96 1181 -96 1037.5 -183 c 128,-1,4
 894 -270 894 -270 708 -270 c 0,5,6
 521 -270 521 -270 377 -183 c 128,-1,7
 233 -96 233 -96 151.5 64.5 c 128,-1,8
 70 225 70 225 70 448 c 2,9,-1
 70 507 l 2,10,11
 70 730 70 730 151 891 c 128,-1,12
 232 1052 232 1052 375.5 1139 c 128,-1,13
 519 1226 519 1226 706 1226 c 0,14,15
 892 1226 892 1226 1036 1139 c 128,-1,16
 1180 1052 1180 1052 1261.5 891 c 128,-1,17
 1343 730 1343 730 1343 507 c 2,0,-1
987 448 m 2,18,-1
 987 509 l 2,19,20
 987 725 987 725 913.5 838 c 128,-1,21
 840 951 840 951 706 951 c 0,22,23
 567 951 567 951 497 838 c 128,-1,24
 427 725 427 725 427 509 c 2,25,-1
 427 448 l 2,26,27
 427 234 427 234 498 119 c 128,-1,28
 569 4 569 4 708 4 c 0,29,30
 842 4 842 4 914.5 119 c 128,-1,31
 987 234 987 234 987 448 c 2,18,-1
EndSplineSet
Substitution2: "'c2sc' Capitals to Small Capitals lookup 0 subtable" O.smcp
Position2: "'cpsp' Capital Spacing lookup 0 subtable" dx=36 dy=0 dh=72 dv=0
EndChar

StartChar: O.smcp
Encoding: 65649 -1 187
Width: 1216
GlyphClass: 2
Flags: W
AnchorPoint: "Anchor-1" 631 0 basechar 0
AnchorPoint: "Anchor-0" 606 1320 basechar 0
LayerCount: 2
Fore
SplineSet
1167 602 m 2,0,-1
 1167 562 l 2,1,2
 1167 384 1167 384 1095 254.5 c 128,-1,3
 1023 125 1023 125 897 54.5 c 128,-1,4
 771 -16 771 -16 609 -16 c 0,5,6
 444 -16 444 -16 317.5 54.5 c 128,-1,7
 191 125 191 125 119.5 254.5 c 128,-1,8
 48 384 48 384 48 562 c 2,9,-1
 48 602 l 2,10,11
 48 780 48 780 119 910 c 128,-1,12
 190 1040 190 1040 316 1110.5 c 128,-1,13
 442 1181 442 1181 607 1181 c 0,14,15
 769 1181 769 1181 895.5 1110.5 c 128,-1,16
 1022 1040 1022 1040 1094.5 910 c 128,-1,17
 1167 780 1167 780 1167 602 c 2,0,-1
827 562 m 2,18,-1
 827 603 l 2,19,20
 827 756 827 756 769 840 c 128,-1,21
 711 924 711 924 607 924 c 0,22,23
 496 924 496 924 442 840 c 128,-1,24
 388 756 388 756 388 603 c 2,25,-1
 388 562 l 2,26,27
 388 412 388 412 443 326 c 128,-1,28
 498 240 498 240 609 240 c 0,29,30
 711 240 711 240 769 326 c 128,-1,31
 827 412 827 412 827 562 c 2,18,-1
EndSplineSet
EndChar

StartChar: OE
Encoding: 338 338 188
Width: 1995
VWidth: 1798
GlyphClass: 2
Flags: W
AnchorPoint: "Anchor-1" 953 -250 basechar 0
AnchorPoint: "Anchor-0" 953 1353 basechar 0
LayerCount: 2
Fore
SplineSet
720 1226 m 0,0,1
 796 1226 796 1226 869.5 1220 c 128,-1,2
 943 1214 943 1214 1010 1206 c 1,3,-1
 1921 1206 l 1,4,-1
 1921 935 l 1,5,-1
 1267 935 l 1,6,-1
 1267 628 l 1,7,-1
 1818 628 l 1,8,-1
 1818 367 l 1,9,-1
 1267 367 l 1,10,-1
 1267 20 l 1,11,-1
 1918 20 l 1,12,-1
 1918 -250 l 1,13,-1
 1010 -250 l 1,14,15
 943 -257 943 -257 870.5 -263.5 c 128,-1,16
 798 -270 798 -270 722 -270 c 0,17,18
 536 -270 536 -270 394 -194.5 c 128,-1,19
 252 -119 252 -119 172.5 15.5 c 128,-1,20
 93 150 93 150 93 326 c 2,21,-1
 93 630 l 2,22,23
 93 807 93 807 172 941 c 128,-1,24
 251 1075 251 1075 392.5 1150.5 c 128,-1,25
 534 1226 534 1226 720 1226 c 0,0,1
430 326 m 2,26,27
 430 158 430 158 509 74 c 128,-1,28
 588 -10 588 -10 722 -10 c 0,29,30
 772 -10 772 -10 821 -6.5 c 128,-1,31
 870 -3 870 -3 916 2 c 1,32,-1
 916 953 l 1,33,34
 870 959 870 959 820.5 962.5 c 128,-1,35
 771 966 771 966 720 966 c 0,36,37
 586 966 586 966 508 883 c 128,-1,38
 430 800 430 800 430 632 c 2,39,-1
 430 326 l 2,26,27
EndSplineSet
Substitution2: "'c2sc' Capitals to Small Capitals lookup 0 subtable" OE.smcp
Position2: "'cpsp' Capital Spacing lookup 0 subtable" dx=36 dy=0 dh=72 dv=0
EndChar

StartChar: OE.smcp
Encoding: 65650 -1 189
Width: 1668
GlyphClass: 2
Flags: W
LayerCount: 2
Fore
SplineSet
979 1165 m 2,0,-1
 1654 1165 l 1,1,-1
 1654 905 l 1,2,-1
 1106 905 l 1,3,-1
 1106 732 l 1,4,-1
 1564 732 l 1,5,-1
 1564 472 l 1,6,-1
 1106 472 l 1,7,-1
 1106 259 l 1,8,-1
 1649 259 l 1,9,-1
 1649 0 l 1,10,-1
 978 0 l 2,11,12
 906 0 906 0 833 -4 c 128,-1,13
 760 -8 760 -8 701 -12 c 128,-1,14
 642 -16 642 -16 609 -16 c 0,15,16
 444 -16 444 -16 317.5 54.5 c 128,-1,17
 191 125 191 125 119.5 254.5 c 128,-1,18
 48 384 48 384 48 562 c 2,19,-1
 48 602 l 2,20,21
 48 780 48 780 119 910 c 128,-1,22
 190 1040 190 1040 316 1110.5 c 128,-1,23
 442 1181 442 1181 607 1181 c 0,24,25
 640 1181 640 1181 701 1177 c 128,-1,26
 762 1173 762 1173 835.5 1169 c 128,-1,27
 909 1165 909 1165 979 1165 c 2,0,-1
388 562 m 2,28,29
 388 412 388 412 443 326 c 128,-1,30
 498 240 498 240 609 240 c 0,31,32
 624 240 624 240 669 242.5 c 128,-1,33
 714 245 714 245 768 248 c 1,34,-1
 768 915 l 1,35,36
 711 918 711 918 666 921 c 128,-1,37
 621 924 621 924 607 924 c 0,38,39
 496 924 496 924 442 840 c 128,-1,40
 388 756 388 756 388 603 c 2,41,-1
 388 562 l 2,28,29
EndSplineSet
EndChar

StartChar: Ohorn
Encoding: 416 416 200
Width: 1455
VWidth: 1798
GlyphClass: 2
Flags: W
AnchorPoint: "Anchor-1" 692 -250 basechar 0
AnchorPoint: "Anchor-0" 703 1345 basechar 0
LayerCount: 2
Fore
SplineSet
1346 507 m 2,0,-1
 1346 448 l 2,1,2
 1346 225 1346 225 1264.5 64.5 c 128,-1,3
 1183 -96 1183 -96 1040 -183 c 128,-1,4
 897 -270 897 -270 711 -270 c 0,5,6
 524 -270 524 -270 380 -183 c 128,-1,7
 236 -96 236 -96 154.5 64.5 c 128,-1,8
 73 225 73 225 73 448 c 2,9,-1
 73 507 l 2,10,11
 73 730 73 730 154 891 c 128,-1,12
 235 1052 235 1052 378.5 1139 c 128,-1,13
 522 1226 522 1226 709 1226 c 0,14,15
 852 1226 852 1226 971 1173.5 c 128,-1,16
 1090 1121 1090 1121 1175 1024 c 1,17,18
 1239 1045 1239 1045 1260 1118.5 c 128,-1,19
 1281 1192 1281 1192 1281 1306 c 1,20,-1
 1485 1306 l 1,21,22
 1485 1138 1485 1138 1433.5 1028 c 128,-1,23
 1382 918 1382 918 1271 876 c 1,24,25
 1307 798 1307 798 1326.5 705.5 c 128,-1,26
 1346 613 1346 613 1346 507 c 2,0,-1
989 448 m 2,27,-1
 989 509 l 2,28,29
 989 725 989 725 916 838 c 128,-1,30
 843 951 843 951 709 951 c 0,31,32
 570 951 570 951 499.5 838 c 128,-1,33
 429 725 429 725 429 509 c 2,34,-1
 429 448 l 2,35,36
 429 234 429 234 500.5 119 c 128,-1,37
 572 4 572 4 711 4 c 0,38,39
 845 4 845 4 917 119 c 128,-1,40
 989 234 989 234 989 448 c 2,27,-1
EndSplineSet
EndChar

StartChar: Omega
Encoding: 8486 8486 205
Width: 1382
GlyphClass: 2
Flags: W
AnchorPoint: "Anchor-1" 679 10 basechar 0
LayerCount: 2
Fore
SplineSet
120 0 m 1,0,-1
 120 274 l 1,1,-1
 342 274 l 1,2,3
 239 363 239 363 169 496.5 c 128,-1,4
 99 630 99 630 99 794 c 2,5,-1
 99 869 l 2,6,7
 99 1046 99 1046 172.5 1183 c 128,-1,8
 246 1320 246 1320 378 1397.5 c 128,-1,9
 510 1475 510 1475 683 1475 c 0,10,11
 857 1475 857 1475 989.5 1397.5 c 128,-1,12
 1122 1320 1122 1320 1196 1183 c 128,-1,13
 1270 1046 1270 1046 1270 869 c 2,14,-1
 1270 794 l 2,15,16
 1270 629 1270 629 1200 495.5 c 128,-1,17
 1130 362 1130 362 1028 274 c 1,18,-1
 1248 274 l 1,19,-1
 1248 0 l 1,20,-1
 735 0 l 1,21,-1
 735 278 l 1,22,23
 791 317 791 317 830 434.5 c 128,-1,24
 869 552 869 552 869 794 c 2,25,-1
 869 871 l 2,26,27
 869 1035 869 1035 820 1118 c 128,-1,28
 771 1201 771 1201 683 1201 c 0,29,30
 597 1201 597 1201 548.5 1118 c 128,-1,31
 500 1035 500 1035 500 871 c 2,32,-1
 500 794 l 2,33,34
 500 550 500 550 539.5 433 c 128,-1,35
 579 316 579 316 640 278 c 1,36,-1
 640 0 l 1,37,-1
 120 0 l 1,0,-1
EndSplineSet
Substitution2: "'c2sc' Capitals to Small Capitals lookup 0 subtable" Omega.smcp
Position2: "'cpsp' Capital Spacing lookup 0 subtable" dx=36 dy=0 dh=72 dv=0
EndChar

StartChar: Omega.smcp
Encoding: 65658 -1 206
Width: 1215
GlyphClass: 2
Flags: W
AnchorPoint: "Anchor-1" 637 10 basechar 0
LayerCount: 2
Fore
SplineSet
83 0 m 1,0,-1
 83 264 l 1,1,-1
 282 264 l 1,2,3
 183 331 183 331 118 434 c 128,-1,4
 53 537 53 537 53 668 c 2,5,-1
 53 699 l 2,6,7
 53 822 53 822 119.5 932.5 c 128,-1,8
 186 1043 186 1043 310 1112 c 128,-1,9
 434 1181 434 1181 606 1181 c 0,10,11
 780 1181 780 1181 904.5 1112 c 128,-1,12
 1029 1043 1029 1043 1095.5 933 c 128,-1,13
 1162 823 1162 823 1162 701 c 2,14,-1
 1162 668 l 2,15,16
 1162 537 1162 537 1097 434 c 128,-1,17
 1032 331 1032 331 934 264 c 1,18,-1
 1139 264 l 1,19,-1
 1139 0 l 1,20,-1
 659 0 l 1,21,-1
 659 268 l 1,22,23
 742 313 742 313 783 392 c 128,-1,24
 824 471 824 471 824 604 c 2,25,-1
 824 655 l 2,26,27
 824 771 824 771 774.5 847.5 c 128,-1,28
 725 924 725 924 606 924 c 0,29,30
 490 924 490 924 441 847.5 c 128,-1,31
 392 771 392 771 392 655 c 2,32,-1
 392 604 l 2,33,34
 392 471 392 471 431.5 391.5 c 128,-1,35
 471 312 471 312 561 268 c 1,36,-1
 561 0 l 1,37,-1
 83 0 l 1,0,-1
EndSplineSet
EndChar

StartChar: Oslash
Encoding: 216 216 207
Width: 1410
VWidth: 1798
GlyphClass: 2
Flags: W
AnchorPoint: "Anchor-0" 715 1424 basechar 0
LayerCount: 2
Fore
SplineSet
1355 507 m 2,0,-1
 1355 448 l 2,1,2
 1355 225 1355 225 1273.5 64.5 c 128,-1,3
 1192 -96 1192 -96 1048.5 -183 c 128,-1,4
 905 -270 905 -270 719 -270 c 0,5,6
 558 -270 558 -270 427 -205 c 1,7,-1
 347 -345 l 1,8,-1
 139 -345 l 1,9,-1
 280 -100 l 1,10,11
 186 -6 186 -6 133.5 132.5 c 128,-1,12
 81 271 81 271 81 448 c 2,13,-1
 81 507 l 2,14,15
 81 730 81 730 162 891 c 128,-1,16
 243 1052 243 1052 386.5 1139 c 128,-1,17
 530 1226 530 1226 717 1226 c 0,18,19
 875 1226 875 1226 1005 1162 c 1,20,-1
 1066 1268 l 1,21,-1
 1273 1268 l 1,22,-1
 1152 1058 l 1,23,24
 1248 964 1248 964 1301.5 824.5 c 128,-1,25
 1355 685 1355 685 1355 507 c 2,0,-1
438 448 m 2,26,27
 438 316 438 316 465 222 c 1,28,-1
 859 908 l 1,29,30
 799 951 799 951 717 951 c 0,31,32
 578 951 578 951 508 838 c 128,-1,33
 438 725 438 725 438 509 c 2,34,-1
 438 448 l 2,26,27
998 448 m 2,35,-1
 998 509 l 2,36,37
 998 643 998 643 969 739 c 1,38,-1
 573 48 l 1,39,40
 633 4 633 4 719 4 c 0,41,42
 853 4 853 4 925.5 119 c 128,-1,43
 998 234 998 234 998 448 c 2,35,-1
EndSplineSet
Substitution2: "'c2sc' Capitals to Small Capitals lookup 0 subtable" Oslash.smcp
Position2: "'cpsp' Capital Spacing lookup 0 subtable" dx=36 dy=0 dh=72 dv=0
EndChar

StartChar: Oslash.smcp
Encoding: 65659 -1 208
Width: 1216
GlyphClass: 2
Flags: W
AnchorPoint: "Anchor-1" 631 0 basechar 0
AnchorPoint: "Anchor-0" 606 1320 basechar 0
LayerCount: 2
Fore
SplineSet
1167 602 m 2,0,-1
 1167 562 l 2,1,2
 1167 384 1167 384 1095 254.5 c 128,-1,3
 1023 125 1023 125 897 54.5 c 128,-1,4
 771 -16 771 -16 609 -16 c 0,5,6
 437 -16 437 -16 306 61 c 1,7,-1
 220 -55 l 1,8,-1
 46 -55 l 1,9,-1
 197 148 l 1,10,11
 126 222 126 222 87 327 c 128,-1,12
 48 432 48 432 48 562 c 2,13,-1
 48 602 l 2,14,15
 48 780 48 780 119 910 c 128,-1,16
 190 1040 190 1040 316 1110.5 c 128,-1,17
 442 1181 442 1181 607 1181 c 0,18,19
 777 1181 777 1181 909 1103 c 1,20,-1
 995 1219 l 1,21,-1
 1168 1219 l 1,22,-1
 1017 1016 l 1,23,24
 1088 941 1088 941 1127.5 836.5 c 128,-1,25
 1167 732 1167 732 1167 602 c 2,0,-1
388 562 m 2,26,27
 388 484 388 484 403 424 c 1,28,-1
 739 875 l 1,29,30
 686 924 686 924 607 924 c 0,31,32
 496 924 496 924 442 840 c 128,-1,33
 388 756 388 756 388 603 c 2,34,-1
 388 562 l 2,26,27
827 562 m 2,35,-1
 827 603 l 2,36,37
 827 680 827 680 812 740 c 1,38,-1
 475 288 l 1,39,40
 528 240 528 240 609 240 c 0,41,42
 711 240 711 240 769 326 c 128,-1,43
 827 412 827 412 827 562 c 2,35,-1
EndSplineSet
EndChar

StartChar: P
Encoding: 80 80 213
Width: 1334
VWidth: 1798
GlyphClass: 2
Flags: W
AnchorPoint: "Anchor-1" 613 -240 basechar 0
AnchorPoint: "Anchor-0" 606 1362 basechar 0
LayerCount: 2
Fore
SplineSet
692 244 m 2,0,-1
 462 244 l 1,1,-1
 462 -250 l 1,2,-1
 111 -250 l 1,3,-1
 111 1206 l 1,4,-1
 692 1206 l 2,5,6
 867 1206 867 1206 993.5 1142 c 128,-1,7
 1120 1078 1120 1078 1188 966.5 c 128,-1,8
 1256 855 1256 855 1256 712 c 0,9,10
 1256 571 1256 571 1188 466 c 128,-1,11
 1120 361 1120 361 993.5 302.5 c 128,-1,12
 867 244 867 244 692 244 c 2,0,-1
692 935 m 2,13,-1
 462 935 l 1,14,-1
 462 515 l 1,15,-1
 692 515 l 2,16,17
 802 515 802 515 851.5 570 c 128,-1,18
 901 625 901 625 901 710 c 0,19,20
 901 799 901 799 851.5 867 c 128,-1,21
 802 935 802 935 692 935 c 2,13,-1
EndSplineSet
Substitution2: "'c2sc' Capitals to Small Capitals lookup 0 subtable" P.smcp
Position2: "'cpsp' Capital Spacing lookup 0 subtable" dx=36 dy=0 dh=72 dv=0
EndChar

StartChar: P.smcp
Encoding: 65662 -1 214
Width: 1156
GlyphClass: 2
Flags: W
AnchorPoint: "Anchor-1" 574 0 basechar 0
AnchorPoint: "Anchor-0" 576 1320 basechar 0
LayerCount: 2
Fore
SplineSet
590 365 m 2,0,-1
 419 365 l 1,1,-1
 419 0 l 1,2,-1
 81 0 l 1,3,-1
 81 1165 l 1,4,-1
 590 1165 l 2,5,6
 743 1165 743 1165 854.5 1111 c 128,-1,7
 966 1057 966 1057 1026.5 963 c 128,-1,8
 1087 869 1087 869 1087 749 c 0,9,10
 1087 637 1087 637 1026.5 550 c 128,-1,11
 966 463 966 463 854.5 414 c 128,-1,12
 743 365 743 365 590 365 c 2,0,-1
590 905 m 2,13,-1
 419 905 l 1,14,-1
 419 625 l 1,15,-1
 590 625 l 2,16,17
 671 625 671 625 711 660 c 128,-1,18
 751 695 751 695 751 747 c 0,19,20
 751 811 751 811 711 858 c 128,-1,21
 671 905 671 905 590 905 c 2,13,-1
EndSplineSet
EndChar

StartChar: Q
Encoding: 81 81 215
Width: 1414
VWidth: 1798
GlyphClass: 2
Flags: W
AnchorPoint: "Anchor-1" 698 -260 basechar 0
AnchorPoint: "Anchor-0" 700 1350 basechar 0
LayerCount: 2
Fore
SplineSet
1346 507 m 2,0,-1
 1346 448 l 2,1,2
 1346 248 1346 248 1279 96.5 c 128,-1,3
 1212 -55 1212 -55 1094 -146 c 1,4,-1
 1329 -332 l 1,5,-1
 1111 -516 l 1,6,-1
 799 -265 l 1,7,8
 756 -270 756 -270 710 -270 c 0,9,10
 523 -270 523 -270 379 -183 c 128,-1,11
 235 -96 235 -96 153.5 64.5 c 128,-1,12
 72 225 72 225 72 448 c 2,13,-1
 72 507 l 2,14,15
 72 730 72 730 153 891 c 128,-1,16
 234 1052 234 1052 377.5 1139 c 128,-1,17
 521 1226 521 1226 708 1226 c 0,18,19
 894 1226 894 1226 1038 1139 c 128,-1,20
 1182 1052 1182 1052 1264 891 c 128,-1,21
 1346 730 1346 730 1346 507 c 2,0,-1
989 448 m 2,22,-1
 989 509 l 2,23,24
 989 725 989 725 915.5 838 c 128,-1,25
 842 951 842 951 708 951 c 0,26,27
 569 951 569 951 499 838 c 128,-1,28
 429 725 429 725 429 509 c 2,29,-1
 429 448 l 2,30,31
 429 234 429 234 500 119 c 128,-1,32
 571 4 571 4 710 4 c 0,33,34
 844 4 844 4 916.5 119 c 128,-1,35
 989 234 989 234 989 448 c 2,22,-1
EndSplineSet
Substitution2: "'c2sc' Capitals to Small Capitals lookup 0 subtable" Q.smcp
Position2: "'cpsp' Capital Spacing lookup 0 subtable" dx=36 dy=0 dh=72 dv=0
EndChar

StartChar: Q.smcp
Encoding: 65663 -1 216
Width: 1216
GlyphClass: 2
Flags: W
AnchorPoint: "Anchor-1" 599 -10 basechar 0
AnchorPoint: "Anchor-0" 599 1320 basechar 0
LayerCount: 2
Fore
SplineSet
1171 602 m 2,0,-1
 1171 562 l 2,1,2
 1171 406 1171 406 1115 287 c 128,-1,3
 1059 168 1059 168 961 93 c 1,4,-1
 1150 -50 l 1,5,-1
 944 -221 l 1,6,-1
 674 -13 l 1,7,8
 644 -16 644 -16 613 -16 c 0,9,10
 449 -16 449 -16 322.5 54.5 c 128,-1,11
 196 125 196 125 125 254.5 c 128,-1,12
 54 384 54 384 54 562 c 2,13,-1
 54 602 l 2,14,15
 54 780 54 780 124.5 910 c 128,-1,16
 195 1040 195 1040 321 1110.5 c 128,-1,17
 447 1181 447 1181 612 1181 c 0,18,19
 774 1181 774 1181 900 1110.5 c 128,-1,20
 1026 1040 1026 1040 1098.5 910 c 128,-1,21
 1171 780 1171 780 1171 602 c 2,0,-1
834 562 m 2,22,-1
 834 603 l 2,23,24
 834 756 834 756 775 840 c 128,-1,25
 716 924 716 924 612 924 c 0,26,27
 501 924 501 924 446.5 840 c 128,-1,28
 392 756 392 756 392 603 c 2,29,-1
 392 562 l 2,30,31
 392 412 392 412 447 326 c 128,-1,32
 502 240 502 240 613 240 c 0,33,34
 717 240 717 240 775.5 326 c 128,-1,35
 834 412 834 412 834 562 c 2,22,-1
EndSplineSet
EndChar

StartChar: R
Encoding: 82 82 217
Width: 1336
VWidth: 1798
GlyphClass: 2
Flags: W
AnchorPoint: "Anchor-1" 611 -240 basechar 0
AnchorPoint: "Anchor-0" 610 1351 basechar 0
LayerCount: 2
Fore
SplineSet
908 -250 m 1,0,-1
 651 264 l 1,1,-1
 462 264 l 1,2,-1
 462 -250 l 1,3,-1
 111 -250 l 1,4,-1
 111 1206 l 1,5,-1
 684 1206 l 2,6,7
 936 1206 936 1206 1085.5 1093.5 c 128,-1,8
 1235 981 1235 981 1235 766 c 0,9,10
 1235 598 1235 598 1165.5 502 c 128,-1,11
 1096 406 1096 406 981 352 c 1,12,-1
 1284 -235 l 1,13,-1
 1284 -250 l 1,14,-1
 908 -250 l 1,0,-1
684 935 m 2,15,-1
 462 935 l 1,16,-1
 462 535 l 1,17,-1
 684 535 l 2,18,19
 784 535 784 535 834 588 c 128,-1,20
 884 641 884 641 884 734 c 0,21,22
 884 828 884 828 833 881.5 c 128,-1,23
 782 935 782 935 684 935 c 2,15,-1
EndSplineSet
Substitution2: "'c2sc' Capitals to Small Capitals lookup 0 subtable" R.smcp
Position2: "'cpsp' Capital Spacing lookup 0 subtable" dx=36 dy=0 dh=72 dv=0
EndChar

StartChar: R.smcp
Encoding: 65664 -1 218
Width: 1170
GlyphClass: 2
Flags: W
AnchorPoint: "Anchor-1" 525 8 basechar 0
AnchorPoint: "Anchor-0" 520 1320 basechar 0
LayerCount: 2
Fore
SplineSet
755 0 m 1,0,-1
 552 386 l 1,1,-1
 419 386 l 1,2,-1
 419 0 l 1,3,-1
 81 0 l 1,4,-1
 81 1165 l 1,5,-1
 597 1165 l 2,6,7
 814 1165 814 1165 947 1077.5 c 128,-1,8
 1080 990 1080 990 1080 818 c 0,9,10
 1080 669 1080 669 1020.5 594.5 c 128,-1,11
 961 520 961 520 867 475 c 1,12,-1
 1119 13 l 1,13,-1
 1119 0 l 1,14,-1
 755 0 l 1,0,-1
597 905 m 2,15,-1
 419 905 l 1,16,-1
 419 646 l 1,17,-1
 597 646 l 2,18,19
 742 646 742 646 742 778 c 0,20,21
 742 841 742 841 702.5 873 c 128,-1,22
 663 905 663 905 597 905 c 2,15,-1
EndSplineSet
EndChar

StartChar: S
Encoding: 83 83 225
Width: 1282
VWidth: 1798
GlyphClass: 2
Flags: W
AnchorPoint: "Anchor-1" 628 -251 basechar 0
AnchorPoint: "Anchor-0" 622 1353 basechar 0
LayerCount: 2
Fore
SplineSet
861 137 m 0,0,1
 861 183 861 183 842 217 c 128,-1,2
 823 251 823 251 768 282.5 c 128,-1,3
 713 314 713 314 604 350 c 0,4,5
 476 393 476 393 362.5 451.5 c 128,-1,6
 249 510 249 510 178.5 598 c 128,-1,7
 108 686 108 686 108 817 c 0,8,9
 108 942 108 942 181 1034 c 128,-1,10
 254 1126 254 1126 380.5 1176 c 128,-1,11
 507 1226 507 1226 668 1226 c 0,12,13
 828 1226 828 1226 950.5 1170.5 c 128,-1,14
 1073 1115 1073 1115 1142.5 1013.5 c 128,-1,15
 1212 912 1212 912 1212 774 c 1,16,-1
 863 774 l 1,17,18
 863 857 863 857 812.5 909 c 128,-1,19
 762 961 762 961 660 961 c 0,20,21
 560 961 560 961 509 917.5 c 128,-1,22
 458 874 458 874 458 814 c 0,23,24
 458 749 458 749 529.5 705 c 128,-1,25
 601 661 601 661 725 620 c 0,26,27
 957 547 957 547 1084.5 435 c 128,-1,28
 1212 323 1212 323 1212 139 c 0,29,30
 1212 -57 1212 -57 1065 -163.5 c 128,-1,31
 918 -270 918 -270 674 -270 c 0,32,33
 562 -270 562 -270 453.5 -241.5 c 128,-1,34
 345 -213 345 -213 257 -153.5 c 128,-1,35
 169 -94 169 -94 116.5 -0.5 c 128,-1,36
 64 93 64 93 64 222 c 1,37,-1
 416 222 l 1,38,39
 416 94 416 94 483 44 c 128,-1,40
 550 -6 550 -6 674 -6 c 0,41,42
 774 -6 774 -6 817.5 36.5 c 128,-1,43
 861 79 861 79 861 137 c 0,0,1
EndSplineSet
Substitution2: "'c2sc' Capitals to Small Capitals lookup 0 subtable" S.smcp
Position2: "'cpsp' Capital Spacing lookup 0 subtable" dx=36 dy=0 dh=72 dv=0
EndChar

StartChar: S.smcp
Encoding: 65668 -1 226
Width: 1119
GlyphClass: 2
Flags: W
AnchorPoint: "Anchor-1" 552 0 basechar 0
AnchorPoint: "Anchor-0" 543 1320 basechar 0
LayerCount: 2
Fore
SplineSet
725 318 m 0,0,1
 725 368 725 368 681.5 400.5 c 128,-1,2
 638 433 638 433 525 460 c 0,3,4
 370 496 370 496 275.5 540 c 128,-1,5
 181 584 181 584 138 653 c 128,-1,6
 95 722 95 722 95 830 c 0,7,8
 95 935 95 935 154.5 1014 c 128,-1,9
 214 1093 214 1093 316.5 1137 c 128,-1,10
 419 1181 419 1181 548 1181 c 0,11,12
 690 1181 690 1181 802.5 1139.5 c 128,-1,13
 915 1098 915 1098 980 1017 c 128,-1,14
 1045 936 1045 936 1045 815 c 1,15,-1
 708 815 l 1,16,17
 708 865 708 865 665.5 906 c 128,-1,18
 623 947 623 947 550 947 c 0,19,20
 476 947 476 947 443 911.5 c 128,-1,21
 410 876 410 876 410 845 c 0,22,23
 410 801 410 801 449.5 773.5 c 128,-1,24
 489 746 489 746 589 720 c 1,25,26
 819 672 819 672 929.5 585.5 c 128,-1,27
 1040 499 1040 499 1040 329 c 0,28,29
 1040 163 1040 163 912.5 73.5 c 128,-1,30
 785 -16 785 -16 573 -16 c 0,31,32
 478 -16 478 -16 385.5 5.5 c 128,-1,33
 293 27 293 27 218.5 74 c 128,-1,34
 144 121 144 121 99.5 196.5 c 128,-1,35
 55 272 55 272 55 379 c 1,36,-1
 393 379 l 1,37,38
 393 293 393 293 438 255 c 128,-1,39
 483 217 483 217 595 217 c 0,40,41
 650 217 650 217 678 234.5 c 128,-1,42
 706 252 706 252 715.5 275.5 c 128,-1,43
 725 299 725 299 725 318 c 0,0,1
EndSplineSet
EndChar

StartChar: Schwa
Encoding: 399 399 233
Width: 1430
VWidth: 1798
GlyphClass: 2
Flags: W
AnchorPoint: "Anchor-1" 696 -250 basechar 0
AnchorPoint: "Anchor-0" 661 1353 basechar 0
LayerCount: 2
Fore
SplineSet
708 -271 m 0,0,1
 500 -271 500 -271 357.5 -186 c 128,-1,2
 215 -101 215 -101 142 54 c 128,-1,3
 69 209 69 209 69 420 c 2,4,-1
 69 597 l 1,5,-1
 993 597 l 1,6,7
 988 690 988 690 950.5 765 c 128,-1,8
 913 840 913 840 831.5 884.5 c 128,-1,9
 750 929 750 929 614 929 c 256,10,11
 478 929 478 929 374 909.5 c 128,-1,12
 270 890 270 890 211 872 c 1,13,-1
 162 1154 l 1,14,15
 185 1164 185 1164 258.5 1181.5 c 128,-1,16
 332 1199 332 1199 433 1213 c 128,-1,17
 534 1227 534 1227 638 1227 c 0,18,19
 870 1227 870 1227 1027 1141.5 c 128,-1,20
 1184 1056 1184 1056 1263.5 906 c 128,-1,21
 1343 756 1343 756 1343 561 c 2,22,-1
 1343 390 l 2,23,24
 1343 196 1343 196 1259.5 46.5 c 128,-1,25
 1176 -103 1176 -103 1032.5 -187 c 128,-1,26
 889 -271 889 -271 708 -271 c 0,0,1
708 26 m 0,27,28
 836 26 836 26 906 110.5 c 128,-1,29
 976 195 976 195 990 321 c 1,30,-1
 419 321 l 1,31,-1
 419 290 l 2,32,33
 419 180 419 180 485 103 c 128,-1,34
 551 26 551 26 708 26 c 0,27,28
EndSplineSet
EndChar

StartChar: T
Encoding: 84 84 237
Width: 1292
VWidth: 1798
GlyphClass: 2
Flags: W
AnchorPoint: "Anchor-1" 614 -250 basechar 0
AnchorPoint: "Anchor-0" 612 1350 basechar 0
LayerCount: 2
Fore
SplineSet
1254 1206 m 1,0,-1
 1254 935 l 1,1,-1
 816 935 l 1,2,-1
 816 -250 l 1,3,-1
 465 -250 l 1,4,-1
 465 935 l 1,5,-1
 37 935 l 1,6,-1
 37 1206 l 1,7,-1
 1254 1206 l 1,0,-1
EndSplineSet
Substitution2: "'c2sc' Capitals to Small Capitals lookup 0 subtable" T.smcp
Position2: "'cpsp' Capital Spacing lookup 0 subtable" dx=36 dy=0 dh=72 dv=0
EndChar

StartChar: T.smcp
Encoding: 65674 -1 238
Width: 1128
GlyphClass: 2
Flags: W
AnchorPoint: "Anchor-1" 531 3 basechar 0
AnchorPoint: "Anchor-0" 530 1320 basechar 0
LayerCount: 2
Fore
SplineSet
1098 1165 m 1,0,-1
 1098 905 l 1,1,-1
 728 905 l 1,2,-1
 728 0 l 1,3,-1
 388 0 l 1,4,-1
 388 905 l 1,5,-1
 29 905 l 1,6,-1
 29 1165 l 1,7,-1
 1098 1165 l 1,0,-1
EndSplineSet
EndChar

StartChar: Tbar
Encoding: 358 358 239
Width: 1292
VWidth: 1798
GlyphClass: 2
Flags: W
AnchorPoint: "Anchor-1" 614 -250 basechar 0
AnchorPoint: "Anchor-0" 612 1350 basechar 0
LayerCount: 2
Fore
SplineSet
976 664 m 1,0,-1
 976 473 l 1,1,-1
 816 473 l 1,2,-1
 816 -250 l 1,3,-1
 465 -250 l 1,4,-1
 465 473 l 1,5,-1
 245 473 l 1,6,-1
 245 664 l 1,7,-1
 465 664 l 1,8,-1
 465 935 l 1,9,-1
 37 935 l 1,10,-1
 37 1206 l 1,11,-1
 1254 1206 l 1,12,-1
 1254 935 l 1,13,-1
 816 935 l 1,14,-1
 816 664 l 1,15,-1
 976 664 l 1,0,-1
EndSplineSet
Substitution2: "'c2sc' Capitals to Small Capitals lookup 0 subtable" Tbar.smcp
Position2: "'cpsp' Capital Spacing lookup 0 subtable" dx=36 dy=0 dh=72 dv=0
EndChar

StartChar: Thorn
Encoding: 222 222 244
Width: 1266
VWidth: 1798
GlyphClass: 2
Flags: W
LayerCount: 2
Fore
SplineSet
117 1206 m 1,0,-1
 455 1206 l 1,1,-1
 455 948 l 1,2,-1
 654 948 l 2,3,4
 836 948 836 948 960.5 889 c 128,-1,5
 1085 830 1085 830 1149.5 726.5 c 128,-1,6
 1214 623 1214 623 1214 488 c 0,7,8
 1214 354 1214 354 1149.5 250 c 128,-1,9
 1085 146 1085 146 960.5 87 c 128,-1,10
 836 28 836 28 654 28 c 2,11,-1
 455 28 l 1,12,-1
 455 -250 l 1,13,-1
 117 -250 l 1,14,-1
 117 1206 l 1,0,-1
654 688 m 2,15,-1
 455 688 l 1,16,-1
 455 288 l 1,17,-1
 654 288 l 2,18,19
 773 288 773 288 824.5 348 c 128,-1,20
 876 408 876 408 876 486 c 0,21,22
 876 566 876 566 824.5 627 c 128,-1,23
 773 688 773 688 654 688 c 2,15,-1
EndSplineSet
Substitution2: "'c2sc' Capitals to Small Capitals lookup 0 subtable" Thorn.smcp
Position2: "'cpsp' Capital Spacing lookup 0 subtable" dx=36 dy=0 dh=72 dv=0
EndChar

StartChar: Thorn.smcp
Encoding: 65678 -1 245
Width: 1056
GlyphClass: 2
Flags: W
AnchorPoint: "Anchor-1" 450 10 basechar 0
AnchorPoint: "Anchor-0" 526 1320 basechar 0
LayerCount: 2
Fore
SplineSet
81 0 m 1,0,-1
 81 1165 l 1,1,-1
 419 1165 l 1,2,-1
 419 1015 l 1,3,-1
 524 1015 l 2,4,5
 677 1015 677 1015 788.5 963.5 c 128,-1,6
 900 912 900 912 960.5 822.5 c 128,-1,7
 1021 733 1021 733 1021 619 c 0,8,9
 1021 501 1021 501 960.5 409.5 c 128,-1,10
 900 318 900 318 788.5 266.5 c 128,-1,11
 677 215 677 215 524 215 c 2,12,-1
 419 215 l 1,13,-1
 419 0 l 1,14,-1
 81 0 l 1,0,-1
524 755 m 2,15,-1
 419 755 l 1,16,-1
 419 475 l 1,17,-1
 524 475 l 2,18,19
 605 475 605 475 645 516 c 128,-1,20
 685 557 685 557 685 617 c 0,21,22
 685 673 685 673 645 714 c 128,-1,23
 605 755 605 755 524 755 c 2,15,-1
EndSplineSet
EndChar

StartChar: U
Encoding: 85 85 246
Width: 1361
VWidth: 1798
GlyphClass: 2
Flags: W
AnchorPoint: "Anchor-1" 666 -250 basechar 0
AnchorPoint: "Anchor-0" 667 1351 basechar 0
LayerCount: 2
Fore
SplineSet
901 1206 m 1,0,-1
 1252 1206 l 1,1,-1
 1252 255 l 2,2,3
 1252 -1 1252 -1 1096 -135.5 c 128,-1,4
 940 -270 940 -270 681 -270 c 0,5,6
 510 -270 510 -270 380.5 -210 c 128,-1,7
 251 -150 251 -150 178.5 -32.5 c 128,-1,8
 106 85 106 85 106 255 c 2,9,-1
 106 1206 l 1,10,-1
 458 1206 l 1,11,-1
 458 255 l 2,12,13
 458 120 458 120 516 60 c 128,-1,14
 574 0 574 0 681 0 c 0,15,16
 789 0 789 0 845 60 c 128,-1,17
 901 120 901 120 901 255 c 2,18,-1
 901 1206 l 1,0,-1
EndSplineSet
Substitution2: "'unic' Unicase lookup 2 subtable" U.unic
Substitution2: "'c2sc' Capitals to Small Capitals lookup 0 subtable" U.smcp
Position2: "'cpsp' Capital Spacing lookup 0 subtable" dx=36 dy=0 dh=72 dv=0
EndChar

StartChar: U.smcp
Encoding: 65679 -1 247
Width: 1179
GlyphClass: 2
Flags: W
AnchorPoint: "Anchor-1" 574 0 basechar 0
AnchorPoint: "Anchor-0" 576 1320 basechar 0
LayerCount: 2
Fore
SplineSet
754 1165 m 1,0,-1
 1092 1165 l 1,1,-1
 1092 418 l 2,2,3
 1092 209 1092 209 958.5 96.5 c 128,-1,4
 825 -16 825 -16 590 -16 c 0,5,6
 361 -16 361 -16 222.5 96.5 c 128,-1,7
 84 209 84 209 84 418 c 2,8,-1
 84 1165 l 1,9,-1
 423 1165 l 1,10,-1
 423 418 l 2,11,12
 423 324 423 324 465 283.5 c 128,-1,13
 507 243 507 243 590 243 c 256,14,15
 673 243 673 243 713.5 283.5 c 128,-1,16
 754 324 754 324 754 418 c 2,17,-1
 754 1165 l 1,0,-1
EndSplineSet
EndChar

StartChar: U.unic
Encoding: 65680 -1 248
Width: 1439
GlyphClass: 2
Flags: W
AnchorPoint: "Anchor-1" 721 0 basechar 0
AnchorPoint: "Anchor-0" 722 1632 basechar 0
LayerCount: 2
Fore
SplineSet
998 0 m 1,0,-1
 985 143 l 1,1,2
 908 67 908 67 802.5 23.5 c 128,-1,3
 697 -20 697 -20 568 -20 c 0,4,5
 428 -20 428 -20 325.5 32.5 c 128,-1,6
 223 85 223 85 167 201.5 c 128,-1,7
 111 318 111 318 111 511 c 2,8,-1
 111 1456 l 1,9,-1
 461 1456 l 1,10,-1
 461 558 l 2,11,12
 461 445 461 445 491 382 c 128,-1,13
 521 319 521 319 570.5 293.5 c 128,-1,14
 620 268 620 268 678 268 c 0,15,16
 738 268 738 268 800.5 300.5 c 128,-1,17
 863 333 863 333 911 391 c 128,-1,18
 959 449 959 449 977 526 c 1,19,-1
 977 1456 l 1,20,-1
 1328 1456 l 1,21,-1
 1328 0 l 1,22,-1
 998 0 l 1,0,-1
EndSplineSet
EndChar

StartChar: Uhorn
Encoding: 431 431 263
Width: 1475
VWidth: 1798
GlyphClass: 2
Flags: W
AnchorPoint: "Anchor-1" 692 -259 basechar 0
AnchorPoint: "Anchor-0" 694 1362 basechar 0
LayerCount: 2
Fore
SplineSet
901 1206 m 1,0,-1
 1252 1206 l 1,1,-1
 1252 974 l 1,2,3
 1343 981 1343 981 1382.5 1020.5 c 128,-1,4
 1422 1060 1422 1060 1431 1128 c 128,-1,5
 1440 1196 1440 1196 1440 1287 c 1,6,-1
 1645 1287 l 1,7,8
 1645 1141 1645 1141 1611 1036.5 c 128,-1,9
 1577 932 1577 932 1492 874 c 128,-1,10
 1407 816 1407 816 1252 810 c 1,11,-1
 1252 255 l 2,12,13
 1252 -1 1252 -1 1096 -135.5 c 128,-1,14
 940 -270 940 -270 681 -270 c 0,15,16
 510 -270 510 -270 380.5 -210 c 128,-1,17
 251 -150 251 -150 178.5 -32.5 c 128,-1,18
 106 85 106 85 106 255 c 2,19,-1
 106 1206 l 1,20,-1
 458 1206 l 1,21,-1
 458 255 l 2,22,23
 458 120 458 120 516 60 c 128,-1,24
 574 0 574 0 681 0 c 0,25,26
 789 0 789 0 845 60 c 128,-1,27
 901 120 901 120 901 255 c 2,28,-1
 901 1206 l 1,0,-1
EndSplineSet
EndChar

StartChar: Uogonek
Encoding: 370 370 270
Width: 1361
VWidth: 1798
GlyphClass: 2
Flags: W
AnchorPoint: "Anchor-1" 666 -250 basechar 0
AnchorPoint: "Anchor-0" 667 1351 basechar 0
LayerCount: 2
Fore
SplineSet
901 1206 m 1,0,-1
 1252 1206 l 1,1,-1
 1252 255 l 2,2,3
 1252 108 1252 108 1198.5 0 c 128,-1,4
 1145 -108 1145 -108 1047 -173 c 1,5,-1
 1051 -174 l 1,6,7
 971 -214 971 -214 938 -249.5 c 128,-1,8
 905 -285 905 -285 905 -335 c 0,9,10
 905 -361 905 -361 918.5 -379 c 128,-1,11
 932 -397 932 -397 965 -397 c 0,12,13
 991 -397 991 -397 1006 -391 c 128,-1,14
 1021 -385 1021 -385 1034 -379 c 1,15,-1
 1073 -547 l 1,16,17
 1048 -562 1048 -562 1008 -576.5 c 128,-1,18
 968 -591 968 -591 907 -591 c 0,19,20
 806 -591 806 -591 735 -536.5 c 128,-1,21
 664 -482 664 -482 664 -377 c 0,22,23
 664 -350 664 -350 669 -323 c 128,-1,24
 674 -296 674 -296 686 -270 c 1,25,-1
 681 -270 l 2,26,27
 510 -270 510 -270 380.5 -210 c 128,-1,28
 251 -150 251 -150 178.5 -32.5 c 128,-1,29
 106 85 106 85 106 255 c 2,30,-1
 106 1206 l 1,31,-1
 458 1206 l 1,32,-1
 458 255 l 2,33,34
 458 120 458 120 516 60 c 128,-1,35
 574 0 574 0 681 0 c 0,36,37
 789 0 789 0 845 60 c 128,-1,38
 901 120 901 120 901 255 c 2,39,-1
 901 1206 l 1,0,-1
EndSplineSet
Substitution2: "'unic' Unicase lookup 2 subtable" Uogonek.unic
Substitution2: "'c2sc' Capitals to Small Capitals lookup 0 subtable" Uogonek.smcp
Position2: "'cpsp' Capital Spacing lookup 0 subtable" dx=36 dy=0 dh=72 dv=0
EndChar

StartChar: Uogonek.smcp
Encoding: 65694 -1 271
Width: 1179
GlyphClass: 2
Flags: W
AnchorPoint: "Anchor-1" 574 0 basechar 0
AnchorPoint: "Anchor-0" 576 1320 basechar 0
LayerCount: 2
Fore
SplineSet
754 1165 m 1,0,-1
 1092 1165 l 1,1,-1
 1092 418 l 2,2,3
 1092 264 1092 264 1019 162 c 128,-1,4
 946 60 946 60 812 16 c 1,5,6
 751 -30 751 -30 751 -94 c 0,7,8
 751 -120 751 -120 764.5 -138 c 128,-1,9
 778 -156 778 -156 811 -156 c 0,10,11
 837 -156 837 -156 852 -150 c 128,-1,12
 867 -144 867 -144 880 -138 c 1,13,-1
 919 -306 l 1,14,15
 894 -321 894 -321 854 -335.5 c 128,-1,16
 814 -350 814 -350 753 -350 c 0,17,18
 652 -350 652 -350 581 -295.5 c 128,-1,19
 510 -241 510 -241 510 -136 c 0,20,21
 510 -105 510 -105 516.5 -74.5 c 128,-1,22
 523 -44 523 -44 539 -14 c 1,23,24
 332 -2 332 -2 208 109.5 c 128,-1,25
 84 221 84 221 84 418 c 2,26,-1
 84 1165 l 1,27,-1
 423 1165 l 1,28,-1
 423 418 l 2,29,30
 423 324 423 324 465 283.5 c 128,-1,31
 507 243 507 243 590 243 c 256,32,33
 673 243 673 243 713.5 283.5 c 128,-1,34
 754 324 754 324 754 418 c 2,35,-1
 754 1165 l 1,0,-1
EndSplineSet
EndChar

StartChar: V
Encoding: 86 86 279
Width: 1354
VWidth: 1798
GlyphClass: 2
Flags: W
AnchorPoint: "Anchor-1" 655 -240 basechar 0
AnchorPoint: "Anchor-0" 655 1362 basechar 0
LayerCount: 2
Fore
SplineSet
387 1206 m 1,0,-1
 676 144 l 1,1,-1
 965 1206 l 1,2,-1
 1358 1206 l 1,3,-1
 867 -250 l 1,4,-1
 484 -250 l 1,5,-1
 -4 1206 l 1,6,-1
 387 1206 l 1,0,-1
EndSplineSet
Substitution2: "'c2sc' Capitals to Small Capitals lookup 0 subtable" V.smcp
Position2: "'cpsp' Capital Spacing lookup 0 subtable" dx=36 dy=0 dh=72 dv=0
EndChar

StartChar: V.smcp
Encoding: 65700 -1 280
Width: 1174
GlyphClass: 2
Flags: W
AnchorPoint: "Anchor-1" 561 10 basechar 0
AnchorPoint: "Anchor-0" 561 1320 basechar 0
LayerCount: 2
Fore
SplineSet
587 322 m 1,0,-1
 833 1165 l 1,1,-1
 1186 1165 l 1,2,-1
 776 0 l 1,3,-1
 395 0 l 1,4,-1
 -13 1165 l 1,5,-1
 340 1165 l 1,6,-1
 581 326 l 1,7,-1
 585 307 l 1,8,-1
 587 322 l 1,0,-1
EndSplineSet
EndChar

StartChar: W
Encoding: 87 87 281
Width: 1780
VWidth: 1798
GlyphClass: 2
Flags: W
AnchorPoint: "Anchor-1" 922 -240 basechar 0
AnchorPoint: "Anchor-0" 924 1351 basechar 0
LayerCount: 2
Fore
SplineSet
370 1206 m 1,0,-1
 537 295 l 1,1,-1
 737 1206 l 1,2,-1
 1035 1206 l 1,3,-1
 1239 292 l 1,4,-1
 1406 1206 l 1,5,-1
 1753 1206 l 1,6,-1
 1444 -250 l 1,7,-1
 1081 -250 l 1,8,-1
 886 580 l 1,9,-1
 695 -250 l 1,10,-1
 331 -250 l 1,11,-1
 22 1206 l 1,12,-1
 370 1206 l 1,0,-1
EndSplineSet
Substitution2: "'c2sc' Capitals to Small Capitals lookup 0 subtable" W.smcp
Position2: "'cpsp' Capital Spacing lookup 0 subtable" dx=36 dy=0 dh=72 dv=0
EndChar

StartChar: W.smcp
Encoding: 65701 -1 282
Width: 1523
GlyphClass: 2
Flags: W
AnchorPoint: "Anchor-1" 786 10 basechar 0
AnchorPoint: "Anchor-0" 786 1320 basechar 0
LayerCount: 2
Fore
SplineSet
345 1165 m 1,0,-1
 464 490 l 1,1,-1
 606 1165 l 1,2,-1
 902 1165 l 1,3,-1
 1048 490 l 1,4,-1
 1168 1165 l 1,5,-1
 1489 1165 l 1,6,-1
 1234 0 l 1,7,-1
 891 0 l 1,8,-1
 754 600 l 1,9,-1
 623 0 l 1,10,-1
 279 0 l 1,11,-1
 22 1165 l 1,12,-1
 345 1165 l 1,0,-1
EndSplineSet
EndChar

StartChar: X
Encoding: 88 88 289
Width: 1308
VWidth: 1798
GlyphClass: 2
Flags: W
AnchorPoint: "Anchor-1" 645 -240 basechar 0
AnchorPoint: "Anchor-0" 653 1362 basechar 0
LayerCount: 2
Fore
SplineSet
416 1206 m 1,0,-1
 654 722 l 1,1,-1
 892 1206 l 1,2,-1
 1292 1206 l 1,3,-1
 886 484 l 1,4,-1
 1303 -250 l 1,5,-1
 899 -250 l 1,6,-1
 654 243 l 1,7,-1
 409 -250 l 1,8,-1
 4 -250 l 1,9,-1
 422 484 l 1,10,-1
 15 1206 l 1,11,-1
 416 1206 l 1,0,-1
EndSplineSet
Substitution2: "'c2sc' Capitals to Small Capitals lookup 0 subtable" X.smcp
Position2: "'cpsp' Capital Spacing lookup 0 subtable" dx=36 dy=0 dh=72 dv=0
EndChar

StartChar: X.smcp
Encoding: 65707 -1 290
Width: 1130
GlyphClass: 2
Flags: W
AnchorPoint: "Anchor-1" 550 8 basechar 0
AnchorPoint: "Anchor-0" 550 1320 basechar 0
LayerCount: 2
Fore
SplineSet
379 1165 m 1,0,-1
 545 809 l 1,1,-1
 714 1165 l 1,2,-1
 1100 1165 l 1,3,-1
 760 587 l 1,4,-1
 1136 0 l 1,5,-1
 737 0 l 1,6,-1
 549 363 l 1,7,-1
 372 0 l 1,8,-1
 -15 0 l 1,9,-1
 336 587 l 1,10,-1
 -5 1165 l 1,11,-1
 379 1165 l 1,0,-1
EndSplineSet
EndChar

StartChar: Y
Encoding: 89 89 291
Width: 1286
VWidth: 1798
GlyphClass: 2
Flags: W
AnchorPoint: "Anchor-1" 615 -249 basechar 0
AnchorPoint: "Anchor-0" 618 1350 basechar 0
LayerCount: 2
Fore
SplineSet
375 1206 m 1,0,-1
 643 574 l 1,1,-1
 912 1206 l 1,2,-1
 1290 1206 l 1,3,-1
 822 273 l 1,4,-1
 822 -250 l 1,5,-1
 465 -250 l 1,6,-1
 465 273 l 1,7,-1
 -4 1206 l 1,8,-1
 375 1206 l 1,0,-1
EndSplineSet
Substitution2: "'c2sc' Capitals to Small Capitals lookup 0 subtable" Y.smcp
Position2: "'cpsp' Capital Spacing lookup 0 subtable" dx=36 dy=0 dh=72 dv=0
EndChar

StartChar: Y.smcp
Encoding: 65708 -1 292
Width: 1120
GlyphClass: 2
Flags: W
AnchorPoint: "Anchor-1" 533 10 basechar 0
AnchorPoint: "Anchor-0" 533 1320 basechar 0
LayerCount: 2
Fore
SplineSet
353 1165 m 1,0,-1
 560 703 l 1,1,-1
 767 1165 l 1,2,-1
 1129 1165 l 1,3,-1
 726 411 l 1,4,-1
 726 0 l 1,5,-1
 387 0 l 1,6,-1
 387 423 l 1,7,-1
 -9 1165 l 1,8,-1
 353 1165 l 1,0,-1
EndSplineSet
EndChar

StartChar: Z
Encoding: 90 90 301
Width: 1250
VWidth: 1798
GlyphClass: 2
Flags: W
AnchorPoint: "Anchor-1" 613 -240 basechar 0
AnchorPoint: "Anchor-0" 616 1351 basechar 0
LayerCount: 2
Fore
SplineSet
1201 20 m 1,0,-1
 1201 -250 l 1,1,-1
 67 -250 l 1,2,-1
 67 -65 l 1,3,-1
 762 935 l 1,4,-1
 62 935 l 1,5,-1
 62 1206 l 1,6,-1
 1194 1206 l 1,7,-1
 1194 1026 l 1,8,-1
 506 20 l 1,9,-1
 1201 20 l 1,0,-1
EndSplineSet
Substitution2: "'c2sc' Capitals to Small Capitals lookup 0 subtable" Z.smcp
Position2: "'cpsp' Capital Spacing lookup 0 subtable" dx=36 dy=0 dh=72 dv=0
EndChar

StartChar: Z.smcp
Encoding: 65714 -1 302
Width: 1080
GlyphClass: 2
Flags: W
AnchorPoint: "Anchor-1" 533 10 basechar 0
AnchorPoint: "Anchor-0" 533 1320 basechar 0
LayerCount: 2
Fore
SplineSet
1047 259 m 1,0,-1
 1047 0 l 1,1,-1
 52 0 l 1,2,-1
 52 161 l 1,3,-1
 122 254 l 1,4,-1
 122 259 l 1,5,-1
 126 259 l 1,6,-1
 612 905 l 1,7,-1
 44 905 l 1,8,-1
 44 1165 l 1,9,-1
 1046 1165 l 1,10,-1
 1046 1008 l 1,11,-1
 495 259 l 1,12,-1
 1047 259 l 1,0,-1
EndSplineSet
EndChar

StartChar: a
Encoding: 97 97 309
Width: 1088
VWidth: 1798
GlyphClass: 2
Flags: W
AnchorPoint: "Anchor-1" 502 -250 basechar 0
AnchorPoint: "Anchor-0" 582 1040 basechar 0
LayerCount: 2
Fore
SplineSet
704 -250 m 1,0,1
 685 -211 685 -211 673 -153 c 1,2,3
 634 -202 634 -202 572.5 -236 c 128,-1,4
 511 -270 511 -270 413 -270 c 0,5,6
 313 -270 313 -270 229.5 -229 c 128,-1,7
 146 -188 146 -188 96 -114.5 c 128,-1,8
 46 -41 46 -41 46 55 c 0,9,10
 46 222 46 222 169 316.5 c 128,-1,11
 292 411 292 411 553 411 c 2,12,-1
 657 411 l 1,13,-1
 657 468 l 2,14,15
 657 536 657 536 627.5 576.5 c 128,-1,16
 598 617 598 617 528 617 c 0,17,18
 408 617 408 617 408 499 c 1,19,-1
 71 499 l 1,20,21
 71 600 71 600 129.5 679.5 c 128,-1,22
 188 759 188 759 295 805.5 c 128,-1,23
 402 852 402 852 546 852 c 0,24,25
 675 852 675 852 776.5 809 c 128,-1,26
 878 766 878 766 937 680.5 c 128,-1,27
 996 595 996 595 996 466 c 2,28,-1
 996 23 l 2,29,30
 996 -83 996 -83 1008 -137.5 c 128,-1,31
 1020 -192 1020 -192 1042 -233 c 1,32,-1
 1042 -250 l 1,33,-1
 704 -250 l 1,0,1
493 -30 m 0,34,35
 555 -30 555 -30 597 -3.5 c 128,-1,36
 639 23 639 23 657 56 c 1,37,-1
 657 231 l 1,38,-1
 551 231 l 2,39,40
 457 231 457 231 420 183 c 128,-1,41
 383 135 383 135 383 73 c 0,42,43
 383 27 383 27 414.5 -1.5 c 128,-1,44
 446 -30 446 -30 493 -30 c 0,34,35
EndSplineSet
Substitution2: "'unic' Unicase lookup 2 subtable" A.unic
Substitution2: "'smcp' Lowercase to Small Capitals lookup 1 subtable" A.smcp
EndChar

StartChar: acute
Encoding: 180 180 313
Width: 692
VWidth: 1798
GlyphClass: 2
Flags: W
LayerCount: 2
Fore
SplineSet
90 972 m 1,0,-1
 288 1286 l 1,1,-1
 644 1286 l 1,2,-1
 365 972 l 1,3,-1
 90 972 l 1,0,-1
EndSplineSet
EndChar

StartChar: acutecomb
Encoding: 769 769 314
Width: 0
VWidth: 1798
GlyphClass: 4
Flags: W
AnchorPoint: "Anchor-3" -566 1391 basemark 0
AnchorPoint: "Anchor-3" -566 1040 mark 0
AnchorPoint: "Anchor-0" -566 1040 mark 0
LayerCount: 2
Fore
SplineSet
-691 972 m 1,0,-1
 -493 1286 l 1,1,-1
 -138 1286 l 1,2,-1
 -416 972 l 1,3,-1
 -691 972 l 1,0,-1
EndSplineSet
EndChar

StartChar: ae
Encoding: 230 230 316
Width: 1730
VWidth: 1798
GlyphClass: 2
Flags: W
AnchorPoint: "Anchor-0" 859 1041 basechar 0
LayerCount: 2
Fore
SplineSet
1238 -270 m 0,0,1
 1116 -270 1116 -270 1020.5 -234.5 c 128,-1,2
 925 -199 925 -199 859 -136 c 1,3,4
 804 -189 804 -189 711 -229.5 c 128,-1,5
 618 -270 618 -270 485 -270 c 0,6,7
 280 -270 280 -270 170.5 -176.5 c 128,-1,8
 61 -83 61 -83 61 74 c 0,9,10
 61 232 61 232 193 318.5 c 128,-1,11
 325 405 325 405 581 405 c 2,12,-1
 717 405 l 1,13,-1
 717 451 l 2,14,15
 717 517 717 517 683 554.5 c 128,-1,16
 649 592 649 592 584 592 c 0,17,18
 512 592 512 592 474.5 562.5 c 128,-1,19
 437 533 437 533 437 490 c 1,20,-1
 99 509 l 1,21,22
 99 609 99 609 159 686 c 128,-1,23
 219 763 219 763 329.5 807.5 c 128,-1,24
 440 852 440 852 589 852 c 0,25,26
 790 852 790 852 908 761 c 1,27,28
 968 805 968 805 1048 829 c 128,-1,29
 1128 853 1128 853 1227 852 c 0,30,31
 1439 852 1439 852 1562.5 720 c 128,-1,32
 1686 588 1686 588 1686 362 c 2,33,-1
 1686 185 l 1,34,-1
 1047 185 l 1,35,36
 1058 99 1058 99 1114 44.5 c 128,-1,37
 1170 -10 1170 -10 1285 -10 c 0,38,39
 1382 -10 1382 -10 1444.5 9.5 c 128,-1,40
 1507 29 1507 29 1569 57 c 1,41,-1
 1651 -149 l 1,42,43
 1589 -196 1589 -196 1477.5 -233 c 128,-1,44
 1366 -270 1366 -270 1238 -270 c 0,0,1
1227 592 m 0,45,46
 1138 592 1138 592 1098 538 c 128,-1,47
 1058 484 1058 484 1048 396 c 1,48,-1
 1356 396 l 1,49,-1
 1356 422 l 2,50,51
 1356 502 1356 502 1322.5 547 c 128,-1,52
 1289 592 1289 592 1227 592 c 0,45,46
549 -38 m 0,53,54
 593 -38 593 -38 638.5 -19.5 c 128,-1,55
 684 -1 684 -1 717 25 c 1,56,-1
 717 198 l 1,57,-1
 717 201 l 1,58,-1
 583 201 l 2,59,60
 492 201 492 201 445.5 161 c 128,-1,61
 399 121 399 121 399 70 c 0,62,63
 399 20 399 20 435.5 -9 c 128,-1,64
 472 -38 472 -38 549 -38 c 0,53,54
EndSplineSet
Substitution2: "'unic' Unicase lookup 2 subtable" AE
Substitution2: "'smcp' Lowercase to Small Capitals lookup 1 subtable" AE.smcp
EndChar

StartChar: afii57636
Encoding: 8362 8362 321
Width: 1885
GlyphClass: 2
Flags: W
LayerCount: 2
Fore
SplineSet
98 1082 m 1,0,-1
 940 1082 l 2,1,2
 1098 1082 1098 1082 1183.5 1036.5 c 128,-1,3
 1269 991 1269 991 1302.5 899 c 128,-1,4
 1336 807 1336 807 1336 669 c 2,5,-1
 1336 370 l 1,6,-1
 998 370 l 1,7,-1
 998 669 l 2,8,9
 998 742 998 742 976 774 c 128,-1,10
 954 806 954 806 915.5 814 c 128,-1,11
 877 822 877 822 827 822 c 2,12,-1
 435 822 l 1,13,-1
 435 0 l 1,14,-1
 98 0 l 1,15,-1
 98 1082 l 1,0,-1
1099 0 m 2,16,-1
 548 0 l 1,17,-1
 548 714 l 1,18,-1
 886 714 l 1,19,-1
 886 260 l 1,20,-1
 1278 260 l 2,21,22
 1327 260 1327 260 1365.5 268 c 128,-1,23
 1404 276 1404 276 1426.5 308.5 c 128,-1,24
 1449 341 1449 341 1449 413 c 2,25,-1
 1449 1082 l 1,26,-1
 1787 1082 l 1,27,-1
 1787 413 l 2,28,29
 1787 310 1787 310 1725 232.5 c 128,-1,30
 1663 155 1663 155 1561.5 103 c 128,-1,31
 1460 51 1460 51 1339 25.5 c 128,-1,32
 1218 0 1218 0 1099 0 c 2,16,-1
EndSplineSet
EndChar

StartChar: ampersand
Encoding: 38 38 325
Width: 1381
VWidth: 1798
GlyphClass: 2
Flags: W
LayerCount: 2
Fore
SplineSet
308 515 m 1,0,-1
 312 517 l 1,1,2
 252 601 252 601 219 677 c 128,-1,3
 186 753 186 753 186 834 c 0,4,5
 186 949 186 949 236.5 1037.5 c 128,-1,6
 287 1126 287 1126 379.5 1176.5 c 128,-1,7
 472 1227 472 1227 597 1227 c 0,8,9
 713 1227 713 1227 798.5 1179 c 128,-1,10
 884 1131 884 1131 931 1051.5 c 128,-1,11
 978 972 978 972 978 877 c 0,12,13
 978 777 978 777 923 695.5 c 128,-1,14
 868 614 868 614 785 555 c 2,15,-1
 699 495 l 1,16,-1
 923 237 l 1,17,18
 948 289 948 289 962.5 349.5 c 128,-1,19
 977 410 977 410 977 478 c 1,20,-1
 1259 478 l 1,21,22
 1259 343 1259 343 1228 222.5 c 128,-1,23
 1197 102 1197 102 1123 6 c 1,24,-1
 1346 -250 l 1,25,-1
 970 -250 l 1,26,-1
 902 -173 l 1,27,28
 818 -223 818 -223 730.5 -247 c 128,-1,29
 643 -271 643 -271 532 -271 c 0,30,31
 385 -271 385 -271 278.5 -218 c 128,-1,32
 172 -165 172 -165 114 -72 c 128,-1,33
 56 21 56 21 56 141 c 0,34,35
 56 268 56 268 126.5 351 c 128,-1,36
 197 434 197 434 308 515 c 1,0,-1
477 838 m 0,37,38
 477 797 477 797 498 755.5 c 128,-1,39
 519 714 519 714 554 668 c 1,40,-1
 617 708 l 2,41,42
 679 748 679 748 693.5 783.5 c 128,-1,43
 708 819 708 819 708 853 c 0,44,45
 708 894 708 894 678.5 930.5 c 128,-1,46
 649 967 649 967 596 967 c 0,47,48
 537 967 537 967 507 929 c 128,-1,49
 477 891 477 891 477 838 c 0,37,38
395 164 m 0,50,51
 395 86 395 86 443 37.5 c 128,-1,52
 491 -11 491 -11 555 -11 c 0,53,54
 642 -11 642 -11 723 30 c 1,55,-1
 461 329 l 1,56,-1
 451 322 l 1,57,58
 420 284 420 284 407.5 246 c 128,-1,59
 395 208 395 208 395 164 c 0,50,51
EndSplineSet
Substitution2: "'smcp' Lowercase to Small Capitals lookup 1 subtable" ampersand.smcp
Substitution2: "'c2sc' Capitals to Small Capitals lookup 0 subtable" ampersand.smcp
Position2: "'cpsp' Capital Spacing lookup 0 subtable" dx=36 dy=0 dh=72 dv=0
EndChar

StartChar: ampersand.smcp
Encoding: 65718 -1 326
Width: 1386
GlyphClass: 2
Flags: W
LayerCount: 2
Fore
SplineSet
555 -21 m 0,0,1
 335 -21 335 -21 207 69.5 c 128,-1,2
 79 160 79 160 79 301 c 0,3,4
 79 401 79 401 138 468 c 128,-1,5
 197 535 197 535 300 596 c 2,6,-1
 313 604 l 1,7,8
 248 671 248 671 212.5 735 c 128,-1,9
 177 799 177 799 177 887 c 0,10,11
 177 961 177 961 219.5 1028.5 c 128,-1,12
 262 1096 262 1096 345.5 1138.5 c 128,-1,13
 429 1181 429 1181 550 1181 c 0,14,15
 728 1181 728 1181 834 1097.5 c 128,-1,16
 940 1014 940 1014 940 866 c 0,17,18
 940 782 940 782 885.5 714 c 128,-1,19
 831 646 831 646 748 596 c 2,20,-1
 700 566 l 1,21,-1
 887 385 l 1,22,23
 932 457 932 457 932 552 c 1,24,-1
 1214 552 l 1,25,26
 1214 431 1214 431 1178.5 344 c 128,-1,27
 1143 257 1143 257 1085 194 c 1,28,-1
 1286 0 l 1,29,-1
 925 0 l 1,30,-1
 879 45 l 1,31,32
 802 11 802 11 719 -5 c 128,-1,33
 636 -21 636 -21 555 -21 c 0,0,1
455 852 m 0,34,35
 455 824 455 824 474.5 796 c 128,-1,36
 494 768 494 768 527 734 c 1,37,-1
 557 753 l 2,38,39
 625 793 625 793 641 816 c 128,-1,40
 657 839 657 839 657 867 c 0,41,42
 657 893 657 893 630.5 917 c 128,-1,43
 604 941 604 941 557 941 c 0,44,45
 507 941 507 941 481 915 c 128,-1,46
 455 889 455 889 455 852 c 0,34,35
417 334 m 0,47,48
 417 288 417 288 454 262 c 128,-1,49
 491 236 491 236 552 236 c 0,50,51
 617 236 617 236 673 248 c 1,52,-1
 487 432 l 1,53,-1
 481 428 l 2,54,55
 444 404 444 404 430.5 380 c 128,-1,56
 417 356 417 356 417 334 c 0,47,48
EndSplineSet
EndChar

StartChar: aogonek
Encoding: 261 261 327
Width: 1088
VWidth: 1798
GlyphClass: 2
Flags: W
AnchorPoint: "Anchor-1" 502 -250 basechar 0
AnchorPoint: "Anchor-0" 582 1040 basechar 0
LayerCount: 2
Fore
SplineSet
1008 -623 m 1,0,1
 983 -638 983 -638 943 -652.5 c 128,-1,2
 903 -667 903 -667 842 -667 c 0,3,4
 741 -667 741 -667 670 -612.5 c 128,-1,5
 599 -558 599 -558 599 -453 c 0,6,7
 599 -398 599 -398 620.5 -345.5 c 128,-1,8
 642 -293 642 -293 703 -247 c 1,9,10
 684 -208 684 -208 673 -153 c 1,11,12
 634 -202 634 -202 572.5 -236 c 128,-1,13
 511 -270 511 -270 413 -270 c 0,14,15
 313 -270 313 -270 229.5 -229 c 128,-1,16
 146 -188 146 -188 96 -114.5 c 128,-1,17
 46 -41 46 -41 46 55 c 0,18,19
 46 222 46 222 169 316.5 c 128,-1,20
 292 411 292 411 553 411 c 2,21,-1
 657 411 l 1,22,-1
 657 468 l 2,23,24
 657 536 657 536 627.5 576.5 c 128,-1,25
 598 617 598 617 528 617 c 0,26,27
 408 617 408 617 408 499 c 1,28,-1
 71 499 l 1,29,30
 71 600 71 600 129.5 679.5 c 128,-1,31
 188 759 188 759 295 805.5 c 128,-1,32
 402 852 402 852 546 852 c 0,33,34
 675 852 675 852 776.5 809 c 128,-1,35
 878 766 878 766 937 680.5 c 128,-1,36
 996 595 996 595 996 466 c 2,37,-1
 996 23 l 2,38,39
 996 -83 996 -83 1008 -137.5 c 128,-1,40
 1020 -192 1020 -192 1042 -233 c 1,41,-1
 1042 -250 l 1,42,-1
 986 -250 l 1,43,44
 906 -290 906 -290 873 -325.5 c 128,-1,45
 840 -361 840 -361 840 -411 c 0,46,47
 840 -437 840 -437 853.5 -455 c 128,-1,48
 867 -473 867 -473 900 -473 c 0,49,50
 926 -473 926 -473 941 -467 c 128,-1,51
 956 -461 956 -461 969 -455 c 1,52,-1
 1008 -623 l 1,0,1
493 -30 m 0,53,54
 555 -30 555 -30 597 -3.5 c 128,-1,55
 639 23 639 23 657 56 c 1,56,-1
 657 231 l 1,57,-1
 551 231 l 2,58,59
 457 231 457 231 420 183 c 128,-1,60
 383 135 383 135 383 73 c 0,61,62
 383 27 383 27 414.5 -1.5 c 128,-1,63
 446 -30 446 -30 493 -30 c 0,53,54
EndSplineSet
Substitution2: "'locl' Localized Forms in Latin lookup 8 subtable" aogonek.NAV
Substitution2: "'unic' Unicase lookup 2 subtable" Aogonek.unic
Substitution2: "'smcp' Lowercase to Small Capitals lookup 1 subtable" Aogonek.smcp
EndChar

StartChar: approxequal
Encoding: 8776 8776 329
Width: 1196
GlyphClass: 2
Flags: W
LayerCount: 2
Fore
SplineSet
101 667 m 1,0,-1
 101 917 l 1,1,2
 148 967 148 967 215 995 c 128,-1,3
 282 1023 282 1023 347 1023 c 0,4,5
 427 1025 427 1025 484 1003.5 c 128,-1,6
 541 982 541 982 604 950 c 0,7,8
 663 920 663 920 716.5 900.5 c 128,-1,9
 770 881 770 881 844 881 c 0,10,11
 909 881 909 881 965.5 914.5 c 128,-1,12
 1022 948 1022 948 1069 1007 c 1,13,-1
 1069 757 l 1,14,15
 1022 708 1022 708 971 679.5 c 128,-1,16
 920 651 920 651 855 651 c 0,17,18
 781 651 781 651 727.5 670.5 c 128,-1,19
 674 690 674 690 615 720 c 0,20,21
 552 752 552 752 495 773.5 c 128,-1,22
 438 795 438 795 358 793 c 0,23,24
 293 793 293 793 220.5 759.5 c 128,-1,25
 148 726 148 726 101 667 c 1,0,-1
101 247 m 1,26,-1
 101 497 l 1,27,28
 148 547 148 547 209.5 575 c 128,-1,29
 271 603 271 603 336 603 c 0,30,31
 416 605 416 605 472.5 583.5 c 128,-1,32
 529 562 529 562 592 530 c 0,33,34
 651 500 651 500 705 480.5 c 128,-1,35
 759 461 759 461 833 461 c 0,36,37
 898 461 898 461 960 494.5 c 128,-1,38
 1022 528 1022 528 1069 587 c 1,39,-1
 1069 337 l 1,40,41
 1022 288 1022 288 965.5 259.5 c 128,-1,42
 909 231 909 231 844 231 c 0,43,44
 770 231 770 231 716.5 250.5 c 128,-1,45
 663 270 663 270 604 300 c 0,46,47
 541 332 541 332 484 353.5 c 128,-1,48
 427 375 427 375 347 373 c 0,49,50
 282 373 282 373 215 339.5 c 128,-1,51
 148 306 148 306 101 247 c 1,26,-1
EndSplineSet
EndChar

StartChar: arabic_2dots
Encoding: 65720 -1 330
Width: 517
GlyphClass: 1
Flags: W
LayerCount: 2
Fore
SplineSet
87 278 m 1,0,-1
 258 110 l 1,1,-1
 427 278 l 1,2,-1
 604 102 l 1,3,-1
 427 -76 l 1,4,-1
 258 94 l 1,5,-1
 87 -76 l 1,6,-1
 -88 102 l 1,7,-1
 87 278 l 1,0,-1
EndSplineSet
EndChar

StartChar: arabic_3dots
Encoding: 65721 -1 331
Width: 528
GlyphClass: 1
Flags: W
LayerCount: 2
Fore
SplineSet
255 488 m 1,0,-1
 421 322 l 1,1,-1
 255 156 l 1,2,-1
 89 322 l 1,3,-1
 255 488 l 1,0,-1
431 232 m 1,4,-1
 597 66 l 1,5,-1
 431 -100 l 1,6,-1
 265 66 l 1,7,-1
 431 232 l 1,4,-1
80 232 m 1,8,-1
 246 66 l 1,9,-1
 80 -100 l 1,10,-1
 -86 66 l 1,11,-1
 80 232 l 1,8,-1
EndSplineSet
EndChar

StartChar: arabic_3dots_a
Encoding: 65722 -1 332
Width: 528
GlyphClass: 1
Flags: W
LayerCount: 2
Fore
SplineSet
431 301 m 1,0,-1
 597 135 l 1,1,-1
 431 -31 l 1,2,-1
 265 135 l 1,3,-1
 431 301 l 1,0,-1
80 301 m 1,4,-1
 246 135 l 1,5,-1
 80 -31 l 1,6,-1
 -86 135 l 1,7,-1
 80 301 l 1,4,-1
255 45 m 1,8,-1
 421 -121 l 1,9,-1
 255 -287 l 1,10,-1
 89 -121 l 1,11,-1
 255 45 l 1,8,-1
EndSplineSet
EndChar

StartChar: arabic_dot
Encoding: 65723 -1 333
Width: 197
GlyphClass: 1
Flags: W
LayerCount: 2
Fore
SplineSet
96 289 m 1,0,-1
 283 102 l 1,1,-1
 96 -84 l 1,2,-1
 -90 102 l 1,3,-1
 96 289 l 1,0,-1
EndSplineSet
EndChar

StartChar: arabic_gaf_bar
Encoding: 65724 -1 334
Width: 787
GlyphClass: 1
Flags: W
LayerCount: 2
Fore
SplineSet
-60 1558 m 1,0,-1
 -60 1718 l 1,1,-1
 763 2053 l 1,2,-1
 763 1893 l 1,3,-1
 -60 1558 l 1,0,-1
EndSplineSet
EndChar

StartChar: asciicircum
Encoding: 94 94 337
Width: 917
VWidth: 1798
GlyphClass: 2
Flags: W
LayerCount: 2
Fore
SplineSet
630 479 m 1,0,-1
 460 932 l 1,1,-1
 290 479 l 1,2,-1
 36 479 l 1,3,-1
 335 1206 l 1,4,-1
 585 1206 l 1,5,-1
 884 479 l 1,6,-1
 630 479 l 1,0,-1
EndSplineSet
EndChar

StartChar: asciitilde
Encoding: 126 126 338
Width: 1295
VWidth: 1798
GlyphClass: 2
Flags: W
LayerCount: 2
Fore
SplineSet
957 550 m 1,0,-1
 1198 549 l 1,1,2
 1198 347 1198 347 1104.5 232 c 128,-1,3
 1011 117 1011 117 863 117 c 0,4,5
 785 117 785 117 724 148 c 128,-1,6
 663 179 663 179 594 247 c 0,7,8
 556 286 556 286 521.5 306 c 128,-1,9
 487 326 487 326 449 326 c 0,10,11
 398 326 398 326 365.5 276 c 128,-1,12
 333 226 333 226 333 155 c 1,13,-1
 94 159 l 1,14,15
 94 363 94 363 186.5 474.5 c 128,-1,16
 279 586 279 586 427 586 c 0,17,18
 504 586 504 586 569.5 554 c 128,-1,19
 635 522 635 522 699 457 c 0,20,21
 775 378 775 378 841 378 c 0,22,23
 892 378 892 378 924.5 428 c 128,-1,24
 957 478 957 478 957 550 c 1,0,-1
EndSplineSet
EndChar

StartChar: asterisk
Encoding: 42 42 339
Width: 953
VWidth: 1798
GlyphClass: 2
Flags: W
LayerCount: 2
Fore
SplineSet
125 434 m 1,0,-1
 352 706 l 1,1,-1
 27 796 l 1,2,-1
 92 985 l 1,3,-1
 410 854 l 1,4,-1
 386 1206 l 1,5,-1
 599 1206 l 1,6,-1
 573 847 l 1,7,-1
 884 975 l 1,8,-1
 948 784 l 1,9,-1
 618 694 l 1,10,-1
 837 429 l 1,11,-1
 665 311 l 1,12,-1
 481 605 l 1,13,-1
 297 321 l 1,14,-1
 125 434 l 1,0,-1
EndSplineSet
EndChar

StartChar: at
Encoding: 64 64 340
Width: 1834
VWidth: 1798
GlyphClass: 2
Flags: W
LayerCount: 2
Fore
SplineSet
1755 300 m 0,0,1
 1751 194 1751 194 1724 92 c 128,-1,2
 1697 -10 1697 -10 1642.5 -92 c 128,-1,3
 1588 -174 1588 -174 1504.5 -222.5 c 128,-1,4
 1421 -271 1421 -271 1304 -271 c 0,5,6
 1135 -271 1135 -271 1061 -134 c 1,7,8
 964 -267 964 -267 799 -267 c 0,9,10
 702 -267 702 -267 631 -211 c 128,-1,11
 560 -155 560 -155 525.5 -53 c 128,-1,12
 491 49 491 49 504 186 c 0,13,14
 524 355 524 355 591 479 c 128,-1,15
 658 603 658 603 760 671.5 c 128,-1,16
 862 740 862 740 987 740 c 0,17,18
 1106 740 1106 740 1173.5 706.5 c 128,-1,19
 1241 673 1241 673 1302 630 c 1,20,-1
 1252 43 l 2,21,22
 1242 -40 1242 -40 1275 -68 c 128,-1,23
 1308 -96 1308 -96 1348 -96 c 0,24,25
 1406 -96 1406 -96 1451 -45 c 128,-1,26
 1496 6 1496 6 1523 93.5 c 128,-1,27
 1550 181 1550 181 1553 290 c 0,28,29
 1564 499 1564 499 1503 656 c 128,-1,30
 1442 813 1442 813 1307.5 900.5 c 128,-1,31
 1173 988 1173 988 960 988 c 0,32,33
 758 988 758 988 611 885.5 c 128,-1,34
 464 783 464 783 381 606.5 c 128,-1,35
 298 430 298 430 287 208 c 0,36,37
 271 -152 271 -152 431.5 -332.5 c 128,-1,38
 592 -513 592 -513 895 -513 c 0,39,40
 982 -513 982 -513 1072.5 -494 c 128,-1,41
 1163 -475 1163 -475 1226 -448 c 1,42,-1
 1264 -614 l 1,43,44
 1194 -659 1194 -659 1089 -681 c 128,-1,45
 984 -703 984 -703 891 -703 c 0,46,47
 486 -703 486 -703 269 -472.5 c 128,-1,48
 52 -242 52 -242 68 208 c 0,49,50
 77 413 77 413 143 587 c 128,-1,51
 209 761 209 761 326 889.5 c 128,-1,52
 443 1018 443 1018 604 1089 c 128,-1,53
 765 1160 765 1160 964 1160 c 0,54,55
 1228 1160 1228 1160 1408 1051.5 c 128,-1,56
 1588 943 1588 943 1677 749.5 c 128,-1,57
 1766 556 1766 556 1755 300 c 0,0,1
754 186 m 1,58,59
 734 -77 734 -77 877 -77 c 0,60,61
 908 -77 908 -77 952 -46.5 c 128,-1,62
 996 -16 996 -16 1030 85 c 1,63,-1
 1069 541 l 1,64,65
 1038 549 1038 549 1006 549 c 0,66,67
 887 549 887 549 830 455.5 c 128,-1,68
 773 362 773 362 754 186 c 1,58,59
EndSplineSet
EndChar

StartChar: b
Encoding: 98 98 342
Width: 1153
VWidth: 1798
GlyphClass: 2
Flags: W
AnchorPoint: "Anchor-1" 598 -260 basechar 0
AnchorPoint: "Anchor-0" 634 1361 basechar 0
LayerCount: 2
Fore
SplineSet
1099 303 m 2,0,-1
 1099 282 l 2,1,2
 1099 119 1099 119 1054 -5.5 c 128,-1,3
 1009 -130 1009 -130 916 -200 c 128,-1,4
 823 -270 823 -270 679 -270 c 0,5,6
 591 -270 591 -270 526 -235 c 128,-1,7
 461 -200 461 -200 415 -139 c 1,8,-1
 400 -250 l 1,9,-1
 98 -250 l 1,10,-1
 98 1286 l 1,11,-1
 435 1286 l 1,12,-1
 435 746 l 1,13,14
 480 796 480 796 539.5 824 c 128,-1,15
 599 852 599 852 677 852 c 0,16,17
 822 852 822 852 915.5 781 c 128,-1,18
 1009 710 1009 710 1054 586 c 128,-1,19
 1099 462 1099 462 1099 303 c 2,0,-1
762 282 m 2,20,-1
 762 303 l 2,21,22
 762 382 762 382 749 447.5 c 128,-1,23
 736 513 736 513 700 552.5 c 128,-1,24
 664 592 664 592 593 592 c 0,25,26
 478 592 478 592 435 506 c 1,27,-1
 435 74 l 1,28,29
 478 -11 478 -11 595 -11 c 0,30,31
 668 -11 668 -11 703.5 26 c 128,-1,32
 739 63 739 63 750.5 129 c 128,-1,33
 762 195 762 195 762 282 c 2,20,-1
EndSplineSet
Substitution2: "'unic' Unicase lookup 2 subtable" B
Substitution2: "'smcp' Lowercase to Small Capitals lookup 1 subtable" B.smcp
EndChar

StartChar: backslash
Encoding: 92 92 343
Width: 874
VWidth: 1798
GlyphClass: 2
Flags: W
LayerCount: 2
Fore
SplineSet
586 -375 m 1,0,-1
 -21 1206 l 1,1,-1
 332 1206 l 1,2,-1
 940 -375 l 1,3,-1
 586 -375 l 1,0,-1
EndSplineSet
EndChar

StartChar: bar
Encoding: 124 124 344
Width: 524
VWidth: 1798
GlyphClass: 2
Flags: W
LayerCount: 2
Fore
SplineSet
356 1206 m 1,0,-1
 356 -520 l 1,1,-1
 173 -520 l 1,2,-1
 173 1206 l 1,3,-1
 356 1206 l 1,0,-1
EndSplineSet
EndChar

StartChar: braceleft
Encoding: 123 123 345
Width: 666
VWidth: 1798
GlyphClass: 2
Flags: W
LayerCount: 2
Fore
SplineSet
626 -433 m 1,0,-1
 562 -610 l 1,1,2
 425 -571 425 -571 346 -501.5 c 128,-1,3
 267 -432 267 -432 234.5 -340.5 c 128,-1,4
 202 -249 202 -249 202 -144 c 2,5,-1
 202 59 l 2,6,7
 202 148 202 148 164.5 201.5 c 128,-1,8
 127 255 127 255 41 255 c 1,9,-1
 41 482 l 1,10,11
 127 482 127 482 164.5 535.5 c 128,-1,12
 202 589 202 589 202 679 c 2,13,-1
 202 882 l 2,14,15
 202 987 202 987 234.5 1078.5 c 128,-1,16
 267 1170 267 1170 346 1239.5 c 128,-1,17
 425 1309 425 1309 562 1347 c 1,18,-1
 626 1171 l 1,19,20
 549 1140 549 1140 522 1062 c 128,-1,21
 495 984 495 984 495 882 c 2,22,-1
 495 679 l 2,23,24
 495 580 495 580 450.5 498 c 128,-1,25
 406 416 406 416 310 369 c 1,26,27
 406 322 406 322 450.5 240 c 128,-1,28
 495 158 495 158 495 59 c 2,29,-1
 495 -144 l 2,30,31
 495 -246 495 -246 522 -324 c 128,-1,32
 549 -402 549 -402 626 -433 c 1,0,-1
EndSplineSet
EndChar

StartChar: braceright
Encoding: 125 125 346
Width: 666
VWidth: 1798
GlyphClass: 2
Flags: W
LayerCount: 2
Fore
SplineSet
105 -610 m 1,0,-1
 41 -433 l 1,1,2
 119 -402 119 -402 145.5 -324 c 128,-1,3
 172 -246 172 -246 172 -144 c 2,4,-1
 172 59 l 2,5,6
 172 159 172 159 217 240.5 c 128,-1,7
 262 322 262 322 359 369 c 1,8,9
 262 416 262 416 217 497.5 c 128,-1,10
 172 579 172 579 172 679 c 2,11,-1
 172 882 l 2,12,13
 172 984 172 984 145.5 1062 c 128,-1,14
 119 1140 119 1140 41 1171 c 1,15,-1
 105 1347 l 1,16,17
 243 1309 243 1309 321.5 1239.5 c 128,-1,18
 400 1170 400 1170 432.5 1078.5 c 128,-1,19
 465 987 465 987 465 882 c 2,20,-1
 465 679 l 2,21,22
 465 589 465 589 503 535.5 c 128,-1,23
 541 482 541 482 627 482 c 1,24,-1
 627 255 l 1,25,26
 541 255 541 255 503 201.5 c 128,-1,27
 465 148 465 148 465 59 c 2,28,-1
 465 -144 l 2,29,30
 465 -249 465 -249 432.5 -340.5 c 128,-1,31
 400 -432 400 -432 321.5 -501.5 c 128,-1,32
 243 -571 243 -571 105 -610 c 1,0,-1
EndSplineSet
EndChar

StartChar: bracketleft
Encoding: 91 91 347
Width: 577
VWidth: 1798
GlyphClass: 2
Flags: W
LayerCount: 2
Fore
SplineSet
564 1210 m 1,0,-1
 446 1210 l 1,1,-1
 446 -354 l 1,2,-1
 564 -354 l 1,3,-1
 564 -599 l 1,4,-1
 138 -599 l 1,5,-1
 138 1456 l 1,6,-1
 564 1456 l 1,7,-1
 564 1210 l 1,0,-1
EndSplineSet
Position2: "Single Positioning lookup 9 subtable" dx=0 dy=0 dh=100 dv=0
Position2: "Single Positioning lookup 8 subtable" dx=0 dy=0 dh=160 dv=0
EndChar

StartChar: bracketright
Encoding: 93 93 348
Width: 577
VWidth: 1798
GlyphClass: 2
Flags: W
LayerCount: 2
Fore
SplineSet
14 1456 m 1,0,-1
 440 1456 l 1,1,-1
 440 -599 l 1,2,-1
 14 -599 l 1,3,-1
 14 -354 l 1,4,-1
 133 -354 l 1,5,-1
 133 1210 l 1,6,-1
 14 1210 l 1,7,-1
 14 1456 l 1,0,-1
EndSplineSet
EndChar

StartChar: breve
Encoding: 728 728 349
Width: 928
VWidth: 1798
GlyphClass: 2
Flags: W
LayerCount: 2
Fore
SplineSet
604 1288 m 1,0,-1
 835 1288 l 1,1,2
 835 1152 835 1152 735 1066.5 c 128,-1,3
 635 981 635 981 465 981 c 0,4,5
 294 981 294 981 194 1066.5 c 128,-1,6
 94 1152 94 1152 94 1288 c 1,7,-1
 324 1288 l 1,8,9
 324 1239 324 1239 356 1200 c 128,-1,10
 388 1161 388 1161 465 1161 c 256,11,12
 542 1161 542 1161 573 1200 c 128,-1,13
 604 1239 604 1239 604 1288 c 1,0,-1
EndSplineSet
EndChar

StartChar: brokenbar
Encoding: 166 166 350
Width: 525
VWidth: 1798
GlyphClass: 2
Flags: W
LayerCount: 2
Fore
SplineSet
411 1206 m 1,0,-1
 411 448 l 1,1,-1
 119 448 l 1,2,-1
 119 1206 l 1,3,-1
 411 1206 l 1,0,-1
411 -520 m 1,4,-1
 119 -520 l 1,5,-1
 119 275 l 1,6,-1
 411 275 l 1,7,-1
 411 -520 l 1,4,-1
EndSplineSet
EndChar

StartChar: bullet
Encoding: 8226 8226 351
Width: 758
GlyphClass: 2
Flags: W
LayerCount: 2
Fore
SplineSet
135 726 m 2,0,-1
 135 763 l 2,1,2
 135 869 135 869 203.5 936.5 c 128,-1,3
 272 1004 272 1004 387 1004 c 0,4,5
 506 1004 506 1004 574 936.5 c 128,-1,6
 642 869 642 869 642 763 c 2,7,-1
 642 726 l 2,8,9
 642 621 642 621 574.5 554.5 c 128,-1,10
 507 488 507 488 389 488 c 0,11,12
 273 488 273 488 204 554.5 c 128,-1,13
 135 621 135 621 135 726 c 2,0,-1
EndSplineSet
EndChar

StartChar: c
Encoding: 99 99 352
Width: 1065
VWidth: 1798
GlyphClass: 2
Flags: W
AnchorPoint: "Anchor-1" 533 -260 basechar 0
AnchorPoint: "Anchor-0" 533 1040 basechar 0
LayerCount: 2
Fore
SplineSet
552 -10 m 0,0,1
 623 -10 623 -10 662.5 28.5 c 128,-1,2
 702 67 702 67 700 136 c 1,3,-1
 1017 136 l 1,4,5
 1018 14 1018 14 957.5 -77.5 c 128,-1,6
 897 -169 897 -169 793.5 -219.5 c 128,-1,7
 690 -270 690 -270 560 -270 c 0,8,9
 391 -270 391 -270 278.5 -198 c 128,-1,10
 166 -126 166 -126 109.5 -1.5 c 128,-1,11
 53 123 53 123 53 279 c 2,12,-1
 53 302 l 2,13,14
 53 459 53 459 109 583 c 128,-1,15
 165 707 165 707 277.5 779.5 c 128,-1,16
 390 852 390 852 558 852 c 0,17,18
 693 852 693 852 796.5 801 c 128,-1,19
 900 750 900 750 959 653 c 128,-1,20
 1018 556 1018 556 1017 418 c 1,21,-1
 700 418 l 1,22,23
 702 491 702 491 664.5 541.5 c 128,-1,24
 627 592 627 592 550 592 c 0,25,26
 481 592 481 592 446.5 552 c 128,-1,27
 412 512 412 512 401 446 c 128,-1,28
 390 380 390 380 390 302 c 2,29,-1
 390 279 l 2,30,31
 390 199 390 199 401 133.5 c 128,-1,32
 412 68 412 68 447 29 c 128,-1,33
 482 -10 482 -10 552 -10 c 0,0,1
EndSplineSet
Substitution2: "'unic' Unicase lookup 2 subtable" C
Substitution2: "'smcp' Lowercase to Small Capitals lookup 1 subtable" C.smcp
EndChar

StartChar: caron
Encoding: 711 711 354
Width: 986
VWidth: 1798
GlyphClass: 2
Flags: W
LayerCount: 2
Fore
SplineSet
345 1287 m 1,0,-1
 492 1153 l 1,1,-1
 639 1287 l 1,2,-1
 926 1287 l 1,3,-1
 926 1276 l 1,4,-1
 601 993 l 1,5,-1
 384 993 l 1,6,-1
 56 1278 l 1,7,-1
 56 1287 l 1,8,-1
 345 1287 l 1,0,-1
EndSplineSet
EndChar

StartChar: cedilla
Encoding: 184 184 358
Width: 570
VWidth: 1798
GlyphClass: 2
Flags: W
LayerCount: 2
Fore
SplineSet
117 -240 m 1,0,-1
 374 -240 l 1,1,-1
 363 -301 l 1,2,3
 419 -311 419 -311 466 -349.5 c 128,-1,4
 513 -388 513 -388 513 -474 c 0,5,6
 513 -586 513 -586 418 -654 c 128,-1,7
 323 -722 323 -722 139 -722 c 1,8,-1
 132 -536 l 1,9,10
 171 -536 171 -536 196 -518 c 128,-1,11
 221 -500 221 -500 221 -459 c 0,12,13
 221 -421 221 -421 189.5 -405.5 c 128,-1,14
 158 -390 158 -390 86 -386 c 1,15,-1
 117 -240 l 1,0,-1
EndSplineSet
EndChar

StartChar: cent
Encoding: 162 162 359
Width: 1210
VWidth: 1798
GlyphClass: 2
Flags: W
LayerCount: 2
Fore
SplineSet
598 -10 m 0,0,1
 669 -10 669 -10 708.5 28.5 c 128,-1,2
 748 67 748 67 746 136 c 1,3,-1
 1063 136 l 1,4,5
 1064 -21 1064 -21 965 -127 c 128,-1,6
 866 -233 866 -233 711 -261 c 1,7,-1
 711 -495 l 1,8,-1
 511 -495 l 1,9,-1
 511 -263 l 1,10,11
 374 -243 374 -243 282.5 -168 c 128,-1,12
 191 -93 191 -93 145 22.5 c 128,-1,13
 99 138 99 138 99 279 c 2,14,-1
 99 302 l 2,15,16
 99 443 99 443 145 559 c 128,-1,17
 191 675 191 675 282.5 750 c 128,-1,18
 374 825 374 825 511 845 c 1,19,-1
 511 1068 l 1,20,-1
 711 1068 l 1,21,-1
 711 843 l 1,22,23
 870 815 870 815 967 705.5 c 128,-1,24
 1064 596 1064 596 1063 418 c 1,25,-1
 746 418 l 1,26,27
 748 491 748 491 710.5 541.5 c 128,-1,28
 673 592 673 592 596 592 c 0,29,30
 527 592 527 592 492.5 552 c 128,-1,31
 458 512 458 512 447 446 c 128,-1,32
 436 380 436 380 436 302 c 2,33,-1
 436 279 l 2,34,35
 436 199 436 199 447 133.5 c 128,-1,36
 458 68 458 68 493 29 c 128,-1,37
 528 -10 528 -10 598 -10 c 0,0,1
EndSplineSet
EndChar

StartChar: circumflex
Encoding: 710 710 360
Width: 1034
VWidth: 1798
GlyphClass: 2
Flags: W
LayerCount: 2
Fore
SplineSet
613 1286 m 1,0,-1
 941 1005 l 1,1,-1
 941 992 l 1,2,-1
 676 992 l 1,3,-1
 516 1128 l 1,4,-1
 358 992 l 1,5,-1
 98 992 l 1,6,-1
 98 1009 l 1,7,-1
 420 1286 l 1,8,-1
 613 1286 l 1,0,-1
EndSplineSet
EndChar

StartChar: colon
Encoding: 58 58 361
Width: 637
VWidth: 1798
GlyphClass: 2
Flags: W
LayerCount: 2
Fore
SplineSet
125 525 m 0,0,1
 125 605 125 605 182 657 c 128,-1,2
 239 709 239 709 319 709 c 256,3,4
 399 709 399 709 455.5 657 c 128,-1,5
 512 605 512 605 512 525 c 0,6,7
 512 446 512 446 455.5 393.5 c 128,-1,8
 399 341 399 341 319 341 c 0,9,10
 237 341 237 341 181 393.5 c 128,-1,11
 125 446 125 446 125 525 c 0,0,1
125 -65 m 0,12,13
 125 15 125 15 182 67 c 128,-1,14
 239 119 239 119 319 119 c 256,15,16
 399 119 399 119 455.5 67 c 128,-1,17
 512 15 512 15 512 -65 c 0,18,19
 512 -144 512 -144 455.5 -196.5 c 128,-1,20
 399 -249 399 -249 319 -249 c 0,21,22
 237 -249 237 -249 181 -196.5 c 128,-1,23
 125 -144 125 -144 125 -65 c 0,12,13
EndSplineSet
EndChar

StartChar: comma
Encoding: 44 44 362
Width: 552
VWidth: 1798
GlyphClass: 2
Flags: W
LayerCount: 2
Fore
SplineSet
421 4 m 1,0,-1
 419 -210 l 2,1,2
 419 -331 419 -331 359.5 -449 c 128,-1,3
 300 -567 300 -567 214 -642 c 1,4,-1
 43 -562 l 1,5,6
 64 -516 64 -516 89 -469.5 c 128,-1,7
 114 -423 114 -423 132 -365 c 128,-1,8
 150 -307 150 -307 150 -229 c 2,9,-1
 150 4 l 1,10,-1
 421 4 l 1,0,-1
EndSplineSet
EndChar

StartChar: commaaccent
Encoding: 65725 -1 363
Width: 442
GlyphClass: 1
Flags: W
LayerCount: 2
Fore
SplineSet
335 285 m 1,0,-1
 335 216 l 2,1,2
 335 116 335 116 291.5 16.5 c 128,-1,3
 248 -83 248 -83 193 -146 c 1,4,-1
 34 -66 l 1,5,6
 67 -13 67 -13 88.5 46.5 c 128,-1,7
 110 106 110 106 110 197 c 2,8,-1
 110 285 l 1,9,-1
 335 285 l 1,0,-1
EndSplineSet
EndChar

StartChar: commaaccentrotate
Encoding: 65726 -1 364
Width: 509
GlyphClass: 1
Flags: W
LayerCount: 2
Fore
SplineSet
119 1074 m 1,0,-1
 119 1214 l 2,1,2
 119 1324 119 1324 155 1412 c 128,-1,3
 191 1500 191 1500 261 1543 c 1,4,-1
 429 1470 l 1,5,6
 409 1429 409 1429 384 1358.5 c 128,-1,7
 359 1288 359 1288 359 1201 c 2,8,-1
 357 1074 l 1,9,-1
 119 1074 l 1,0,-1
EndSplineSet
EndChar

StartChar: copyright
Encoding: 169 169 365
Width: 1609
VWidth: 1798
GlyphClass: 2
Flags: W
LayerCount: 2
Fore
SplineSet
86 479 m 256,0,1
 86 638 86 638 141 774 c 128,-1,2
 196 910 196 910 294 1011.5 c 128,-1,3
 392 1113 392 1113 520.5 1169.5 c 128,-1,4
 649 1226 649 1226 796 1226 c 256,5,6
 943 1226 943 1226 1071.5 1169.5 c 128,-1,7
 1200 1113 1200 1113 1297.5 1011.5 c 128,-1,8
 1395 910 1395 910 1450.5 774 c 128,-1,9
 1506 638 1506 638 1506 479 c 256,10,11
 1506 320 1506 320 1450.5 184 c 128,-1,12
 1395 48 1395 48 1297.5 -54 c 128,-1,13
 1200 -156 1200 -156 1071.5 -213 c 128,-1,14
 943 -270 943 -270 796 -270 c 256,15,16
 649 -270 649 -270 520.5 -213 c 128,-1,17
 392 -156 392 -156 294 -54 c 128,-1,18
 196 48 196 48 141 184 c 128,-1,19
 86 320 86 320 86 479 c 256,0,1
208 479 m 256,20,21
 208 347 208 347 253.5 233.5 c 128,-1,22
 299 120 299 120 380 35 c 128,-1,23
 461 -50 461 -50 567.5 -97.5 c 128,-1,24
 674 -145 674 -145 796 -145 c 256,25,26
 918 -145 918 -145 1024 -97.5 c 128,-1,27
 1130 -50 1130 -50 1211 35 c 128,-1,28
 1292 120 1292 120 1337.5 233.5 c 128,-1,29
 1383 347 1383 347 1383 479 c 256,30,31
 1383 611 1383 611 1337.5 724.5 c 128,-1,32
 1292 838 1292 838 1211 922.5 c 128,-1,33
 1130 1007 1130 1007 1024 1054 c 128,-1,34
 918 1101 918 1101 796 1101 c 256,35,36
 674 1101 674 1101 567.5 1054 c 128,-1,37
 461 1007 461 1007 380 922.5 c 128,-1,38
 299 838 299 838 253.5 724.5 c 128,-1,39
 208 611 208 611 208 479 c 256,20,21
961 346 m 1,40,-1
 1117 346 l 1,41,42
 1117 189 1117 189 1027 110.5 c 128,-1,43
 937 32 937 32 782 32 c 0,44,45
 621 32 621 32 527 139.5 c 128,-1,46
 433 247 433 247 433 419 c 2,47,-1
 433 538 l 2,48,49
 433 710 433 710 527 817.5 c 128,-1,50
 621 925 621 925 782 925 c 0,51,52
 937 925 937 925 1027.5 846.5 c 128,-1,53
 1118 768 1118 768 1118 611 c 1,54,-1
 962 611 l 1,55,56
 962 707 962 707 916.5 748.5 c 128,-1,57
 871 790 871 790 782 790 c 0,58,59
 686 790 686 790 637 719.5 c 128,-1,60
 588 649 588 649 588 539 c 2,61,-1
 588 419 l 2,62,63
 588 307 588 307 637 237 c 128,-1,64
 686 167 686 167 782 167 c 0,65,66
 871 167 871 167 916 208 c 128,-1,67
 961 249 961 249 961 346 c 1,40,-1
EndSplineSet
EndChar

StartChar: crossbar
Encoding: 65727 -1 366
Width: 1004
GlyphClass: 1
Flags: W
LayerCount: 2
Fore
SplineSet
869 842 m 1,0,-1
 869 651 l 1,1,-1
 138 651 l 1,2,-1
 138 842 l 1,3,-1
 869 842 l 1,0,-1
EndSplineSet
EndChar

StartChar: currency
Encoding: 164 164 367
Width: 1398
VWidth: 1798
GlyphClass: 2
Flags: W
LayerCount: 2
Fore
SplineSet
104 358 m 0,0,1
 104 462 104 462 133 554.5 c 128,-1,2
 162 647 162 647 213 723 c 1,3,-1
 69 870 l 1,4,-1
 210 1014 l 1,5,-1
 352 869 l 1,6,7
 426 924 426 924 514.5 954 c 128,-1,8
 603 984 603 984 700 984 c 0,9,10
 798 984 798 984 886.5 953.5 c 128,-1,11
 975 923 975 923 1049 867 c 1,12,-1
 1193 1015 l 1,13,-1
 1335 870 l 1,14,-1
 1188 720 l 1,15,16
 1238 644 1238 644 1266 552 c 128,-1,17
 1294 460 1294 460 1294 358 c 0,18,19
 1294 260 1294 260 1268 171.5 c 128,-1,20
 1242 83 1242 83 1196 9 c 1,21,-1
 1335 -132 l 1,22,-1
 1193 -277 l 1,23,-1
 1062 -142 l 1,24,25
 987 -203 987 -203 894.5 -236.5 c 128,-1,26
 802 -270 802 -270 700 -270 c 256,27,28
 598 -270 598 -270 506 -237 c 128,-1,29
 414 -204 414 -204 339 -144 c 1,30,-1
 210 -276 l 1,31,-1
 69 -132 l 1,32,-1
 205 6 l 1,33,34
 157 80 157 80 130.5 169.5 c 128,-1,35
 104 259 104 259 104 358 c 0,0,1
290 358 m 256,36,37
 290 235 290 235 345 136.5 c 128,-1,38
 400 38 400 38 493 -19.5 c 128,-1,39
 586 -77 586 -77 700 -77 c 0,40,41
 813 -77 813 -77 906 -19.5 c 128,-1,42
 999 38 999 38 1054 136.5 c 128,-1,43
 1109 235 1109 235 1109 358 c 256,44,45
 1109 481 1109 481 1054 579.5 c 128,-1,46
 999 678 999 678 906 735 c 128,-1,47
 813 792 813 792 700 792 c 0,48,49
 586 792 586 792 493 735 c 128,-1,50
 400 678 400 678 345 579.5 c 128,-1,51
 290 481 290 481 290 358 c 256,36,37
EndSplineSet
EndChar

StartChar: d
Encoding: 100 100 368
Width: 1152
VWidth: 1798
GlyphClass: 2
Flags: W
AnchorPoint: "Anchor-1" 617 -250 basechar 0
AnchorPoint: "Anchor-0" 549 1362 basechar 0
LayerCount: 2
Fore
SplineSet
53 278 m 2,0,-1
 53 299 l 2,1,2
 53 464 53 464 101 588.5 c 128,-1,3
 149 713 149 713 242.5 782.5 c 128,-1,4
 336 852 336 852 474 852 c 0,5,6
 550 852 550 852 610.5 822 c 128,-1,7
 671 792 671 792 717 739 c 1,8,-1
 717 1286 l 1,9,-1
 1056 1286 l 1,10,-1
 1056 -250 l 1,11,-1
 752 -250 l 1,12,-1
 736 -134 l 1,13,14
 687 -197 687 -197 622 -233.5 c 128,-1,15
 557 -270 557 -270 472 -270 c 0,16,17
 335 -270 335 -270 241.5 -198.5 c 128,-1,18
 148 -127 148 -127 100.5 -3 c 128,-1,19
 53 121 53 121 53 278 c 2,0,-1
390 299 m 2,20,-1
 390 278 l 2,21,22
 390 157 390 157 425.5 73.5 c 128,-1,23
 461 -10 461 -10 558 -10 c 0,24,25
 670 -10 670 -10 717 83 c 1,26,-1
 717 498 l 1,27,28
 672 592 672 592 560 592 c 0,29,30
 466 592 466 592 428 508.5 c 128,-1,31
 390 425 390 425 390 299 c 2,20,-1
EndSplineSet
Substitution2: "'unic' Unicase lookup 2 subtable" D
Substitution2: "'smcp' Lowercase to Small Capitals lookup 1 subtable" D.smcp
EndChar

StartChar: dagger
Encoding: 8224 8224 369
Width: 1088
GlyphClass: 2
Flags: W
LayerCount: 2
Fore
SplineSet
1040 1082 m 1,0,-1
 1040 812 l 1,1,-1
 711 812 l 1,2,-1
 711 0 l 1,3,-1
 374 0 l 1,4,-1
 374 812 l 1,5,-1
 51 812 l 1,6,-1
 51 1082 l 1,7,-1
 374 1082 l 1,8,-1
 374 1456 l 1,9,-1
 711 1456 l 1,10,-1
 711 1082 l 1,11,-1
 1040 1082 l 1,0,-1
EndSplineSet
EndChar

StartChar: daggerdbl
Encoding: 8225 8225 370
Width: 1194
GlyphClass: 2
Flags: W
LayerCount: 2
Fore
SplineSet
1093 260 m 1,0,-1
 1093 0 l 1,1,-1
 765 0 l 1,2,-1
 765 -416 l 1,3,-1
 426 -416 l 1,4,-1
 426 0 l 1,5,-1
 104 0 l 1,6,-1
 104 260 l 1,7,-1
 426 260 l 1,8,-1
 426 822 l 1,9,-1
 104 822 l 1,10,-1
 104 1082 l 1,11,-1
 426 1082 l 1,12,-1
 426 1456 l 1,13,-1
 765 1456 l 1,14,-1
 765 1082 l 1,15,-1
 1093 1082 l 1,16,-1
 1093 822 l 1,17,-1
 765 822 l 1,18,-1
 765 260 l 1,19,-1
 1093 260 l 1,0,-1
EndSplineSet
EndChar

StartChar: dcroat
Encoding: 273 273 372
Width: 1322
VWidth: 1798
GlyphClass: 2
Flags: W
AnchorPoint: "Anchor-1" 617 -250 basechar 0
AnchorPoint: "Anchor-0" 549 1361 basechar 0
LayerCount: 2
Fore
SplineSet
53 278 m 2,0,-1
 53 299 l 2,1,2
 53 464 53 464 101 588.5 c 128,-1,3
 149 713 149 713 242.5 782.5 c 128,-1,4
 336 852 336 852 474 852 c 0,5,6
 550 852 550 852 610.5 822 c 128,-1,7
 671 792 671 792 717 739 c 1,8,-1
 717 965 l 1,9,-1
 465 965 l 1,10,-1
 465 1156 l 1,11,-1
 717 1156 l 1,12,-1
 717 1286 l 1,13,-1
 1056 1286 l 1,14,-1
 1056 1156 l 1,15,-1
 1196 1156 l 1,16,-1
 1196 965 l 1,17,-1
 1056 965 l 1,18,-1
 1056 -250 l 1,19,-1
 752 -250 l 1,20,-1
 736 -134 l 1,21,22
 687 -197 687 -197 622 -233.5 c 128,-1,23
 557 -270 557 -270 472 -270 c 0,24,25
 335 -270 335 -270 241.5 -198.5 c 128,-1,26
 148 -127 148 -127 100.5 -3 c 128,-1,27
 53 121 53 121 53 278 c 2,0,-1
390 299 m 2,28,-1
 390 278 l 2,29,30
 390 157 390 157 425.5 73.5 c 128,-1,31
 461 -10 461 -10 558 -10 c 0,32,33
 670 -10 670 -10 717 83 c 1,34,-1
 717 498 l 1,35,36
 672 592 672 592 560 592 c 0,37,38
 466 592 466 592 428 508.5 c 128,-1,39
 390 425 390 425 390 299 c 2,28,-1
EndSplineSet
Substitution2: "'unic' Unicase lookup 2 subtable" Dcroat
Substitution2: "'smcp' Lowercase to Small Capitals lookup 1 subtable" Dcroat.smcp
EndChar

StartChar: degree
Encoding: 176 176 373
Width: 814
VWidth: 1798
GlyphClass: 2
Flags: W
LayerCount: 2
Fore
SplineSet
126 945 m 256,0,1
 126 1022 126 1022 164 1086 c 128,-1,2
 202 1150 202 1150 266 1188 c 128,-1,3
 330 1226 330 1226 406 1226 c 256,4,5
 482 1226 482 1226 544.5 1188 c 128,-1,6
 607 1150 607 1150 644.5 1086 c 128,-1,7
 682 1022 682 1022 682 945 c 256,8,9
 682 868 682 868 644.5 805 c 128,-1,10
 607 742 607 742 544.5 705 c 128,-1,11
 482 668 482 668 406 668 c 256,12,13
 330 668 330 668 266 705 c 128,-1,14
 202 742 202 742 164 805 c 128,-1,15
 126 868 126 868 126 945 c 256,0,1
280 945 m 0,16,17
 280 892 280 892 317.5 856.5 c 128,-1,18
 355 821 355 821 406 821 c 256,19,20
 457 821 457 821 492 856 c 128,-1,21
 527 891 527 891 527 945 c 0,22,23
 527 1000 527 1000 492 1036.5 c 128,-1,24
 457 1073 457 1073 406 1073 c 256,25,26
 355 1073 355 1073 317.5 1036.5 c 128,-1,27
 280 1000 280 1000 280 945 c 0,16,17
EndSplineSet
EndChar

StartChar: dieresis
Encoding: 168 168 374
Width: 1013
VWidth: 1798
GlyphClass: 2
Flags: W
LayerCount: 2
Fore
SplineSet
95 1115 m 256,0,1
 95 1171 95 1171 140 1209.5 c 128,-1,2
 185 1248 185 1248 246 1248 c 0,3,4
 308 1248 308 1248 352.5 1209.5 c 128,-1,5
 397 1171 397 1171 397 1115 c 256,6,7
 397 1059 397 1059 352.5 1020.5 c 128,-1,8
 308 982 308 982 246 982 c 0,9,10
 185 982 185 982 140 1020.5 c 128,-1,11
 95 1059 95 1059 95 1115 c 256,0,1
614 1115 m 256,12,13
 614 1171 614 1171 659 1209.5 c 128,-1,14
 704 1248 704 1248 765 1248 c 0,15,16
 827 1248 827 1248 871.5 1209.5 c 128,-1,17
 916 1171 916 1171 916 1115 c 256,18,19
 916 1059 916 1059 871.5 1020.5 c 128,-1,20
 827 982 827 982 765 982 c 0,21,22
 704 982 704 982 659 1020.5 c 128,-1,23
 614 1059 614 1059 614 1115 c 256,12,13
EndSplineSet
EndChar

StartChar: divide
Encoding: 247 247 375
Width: 1204
VWidth: 1798
GlyphClass: 2
Flags: W
LayerCount: 2
Fore
SplineSet
441 651 m 0,0,1
 441 719 441 719 489.5 768 c 128,-1,2
 538 817 538 817 606 817 c 256,3,4
 674 817 674 817 722.5 768 c 128,-1,5
 771 719 771 719 771 651 c 256,6,7
 771 583 771 583 722.5 534.5 c 128,-1,8
 674 486 674 486 606 486 c 256,9,10
 538 486 538 486 489.5 533.5 c 128,-1,11
 441 581 441 581 441 651 c 0,0,1
110 147 m 1,12,-1
 110 398 l 1,13,-1
 1094 398 l 1,14,-1
 1094 147 l 1,15,-1
 110 147 l 1,12,-1
441 -111 m 0,16,17
 441 -43 441 -43 489.5 6 c 128,-1,18
 538 55 538 55 606 55 c 256,19,20
 674 55 674 55 722.5 6 c 128,-1,21
 771 -43 771 -43 771 -111 c 256,22,23
 771 -179 771 -179 722.5 -227.5 c 128,-1,24
 674 -276 674 -276 606 -276 c 256,25,26
 538 -276 538 -276 489.5 -228.5 c 128,-1,27
 441 -181 441 -181 441 -111 c 0,16,17
EndSplineSet
EndChar

StartChar: dollar
Encoding: 36 36 376
Width: 1187
VWidth: 1798
GlyphClass: 2
Flags: W
LayerCount: 2
Fore
SplineSet
761 136 m 0,0,1
 761 218 761 218 721.5 261 c 128,-1,2
 682 304 682 304 588 344 c 0,3,4
 455 398 455 398 353.5 455 c 128,-1,5
 252 512 252 512 194.5 597 c 128,-1,6
 137 682 137 682 137 818 c 0,7,8
 137 990 137 990 252.5 1098.5 c 128,-1,9
 368 1207 368 1207 555 1224 c 1,10,-1
 555 1435 l 1,11,-1
 714 1435 l 1,12,-1
 714 1220 l 1,13,14
 891 1194 891 1194 998 1073.5 c 128,-1,15
 1105 953 1105 953 1105 756 c 1,16,-1
 768 756 l 1,17,18
 768 871 768 871 724 921.5 c 128,-1,19
 680 972 680 972 614 972 c 0,20,21
 539 972 539 972 506.5 926 c 128,-1,22
 474 880 474 880 474 816 c 0,23,24
 474 749 474 749 510.5 705.5 c 128,-1,25
 547 662 547 662 647 617 c 0,26,27
 777 562 777 562 879 503 c 128,-1,28
 981 444 981 444 1039.5 358.5 c 128,-1,29
 1098 273 1098 273 1098 138 c 0,30,31
 1098 -38 1098 -38 987 -143 c 128,-1,32
 876 -248 876 -248 694 -267 c 1,33,-1
 694 -468 l 1,34,-1
 535 -468 l 1,35,-1
 535 -267 l 1,36,37
 420 -255 420 -255 316.5 -203.5 c 128,-1,38
 213 -152 213 -152 148 -49.5 c 128,-1,39
 83 53 83 53 83 217 c 1,40,-1
 420 217 l 1,41,42
 420 84 420 84 479.5 34 c 128,-1,43
 539 -16 539 -16 615 -16 c 256,44,45
 691 -16 691 -16 726 28.5 c 128,-1,46
 761 73 761 73 761 136 c 0,0,1
EndSplineSet
Substitution2: "'c2sc' Capitals to Small Capitals lookup 0 subtable" dollar.smcp
Position2: "'cpsp' Capital Spacing lookup 0 subtable" dx=36 dy=0 dh=72 dv=0
EndChar

StartChar: dollar.smcp
Encoding: 65728 -1 377
Width: 1119
GlyphClass: 2
Flags: W
LayerCount: 2
Fore
SplineSet
725 318 m 0,0,1
 725 368 725 368 681.5 400.5 c 128,-1,2
 638 433 638 433 525 460 c 0,3,4
 370 496 370 496 275.5 540 c 128,-1,5
 181 584 181 584 138 653 c 128,-1,6
 95 722 95 722 95 830 c 0,7,8
 95 927 95 927 146.5 1002 c 128,-1,9
 198 1077 198 1077 288 1123 c 128,-1,10
 378 1169 378 1169 493 1179 c 1,11,-1
 493 1395 l 1,12,-1
 653 1395 l 1,13,-1
 653 1175 l 1,14,15
 825 1154 825 1154 935 1063.5 c 128,-1,16
 1045 973 1045 973 1045 815 c 1,17,-1
 708 815 l 1,18,19
 708 865 708 865 665.5 906 c 128,-1,20
 623 947 623 947 550 947 c 0,21,22
 476 947 476 947 443 911.5 c 128,-1,23
 410 876 410 876 410 845 c 0,24,25
 410 801 410 801 449.5 773.5 c 128,-1,26
 489 746 489 746 589 720 c 1,27,28
 819 672 819 672 929.5 585.5 c 128,-1,29
 1040 499 1040 499 1040 329 c 0,30,31
 1040 179 1040 179 935 91.5 c 128,-1,32
 830 4 830 4 653 -12 c 1,33,-1
 653 -237 l 1,34,-1
 493 -237 l 1,35,-1
 493 -12 l 1,36,37
 380 -2 380 -2 280 41.5 c 128,-1,38
 180 85 180 85 117.5 168 c 128,-1,39
 55 251 55 251 55 379 c 1,40,-1
 393 379 l 1,41,42
 393 293 393 293 438 255 c 128,-1,43
 483 217 483 217 595 217 c 0,44,45
 650 217 650 217 678 234.5 c 128,-1,46
 706 252 706 252 715.5 275.5 c 128,-1,47
 725 299 725 299 725 318 c 0,0,1
EndSplineSet
EndChar

StartChar: dotaccent
Encoding: 729 729 378
Width: 563
VWidth: 1798
GlyphClass: 2
Flags: W
LayerCount: 2
Fore
SplineSet
107 1128 m 0,0,1
 107 1193 107 1193 153.5 1234 c 128,-1,2
 200 1275 200 1275 273 1275 c 0,3,4
 347 1275 347 1275 393 1234 c 128,-1,5
 439 1193 439 1193 439 1128 c 0,6,7
 439 1064 439 1064 393 1023 c 128,-1,8
 347 982 347 982 273 982 c 0,9,10
 200 982 200 982 153.5 1023 c 128,-1,11
 107 1064 107 1064 107 1128 c 0,0,1
EndSplineSet
EndChar

StartChar: dotbelow
Encoding: 803 803 379
Width: 0
VWidth: 1798
GlyphClass: 4
Flags: W
AnchorPoint: "Anchor-2" -597 -604 basemark 0
AnchorPoint: "Anchor-2" -597 -250 mark 0
AnchorPoint: "Anchor-1" -597 -250 mark 0
LayerCount: 2
Fore
SplineSet
-784 -480 m 256,0,1
 -784 -416 -784 -416 -732 -373.5 c 128,-1,2
 -680 -331 -680 -331 -597 -331 c 256,3,4
 -514 -331 -514 -331 -462 -373.5 c 128,-1,5
 -410 -416 -410 -416 -410 -480 c 256,6,7
 -410 -544 -410 -544 -462 -586.5 c 128,-1,8
 -514 -629 -514 -629 -597 -629 c 256,9,10
 -680 -629 -680 -629 -732 -586.5 c 128,-1,11
 -784 -544 -784 -544 -784 -480 c 256,0,1
EndSplineSet
EndChar

StartChar: dotlessi
Encoding: 305 305 380
Width: 584
VWidth: 1798
GlyphClass: 2
Flags: W
AnchorPoint: "Anchor-1" 249 -240 basechar 0
AnchorPoint: "Anchor-0" 252 1038 basechar 0
LayerCount: 2
Fore
SplineSet
462 832 m 1,0,-1
 462 -250 l 1,1,-1
 124 -250 l 1,2,-1
 124 832 l 1,3,-1
 462 832 l 1,0,-1
EndSplineSet
Substitution2: "'smcp' Lowercase to Small Capitals lookup 1 subtable" I.smcp
EndChar

StartChar: e
Encoding: 101 101 381
Width: 1116
VWidth: 1798
GlyphClass: 2
Flags: W
AnchorPoint: "Anchor-1" 568 -250 basechar 0
AnchorPoint: "Anchor-0" 565 1040 basechar 0
LayerCount: 2
Fore
SplineSet
619 -270 m 0,0,1
 443 -270 443 -270 318 -198 c 128,-1,2
 193 -126 193 -126 127 -6.5 c 128,-1,3
 61 113 61 113 61 255 c 2,4,-1
 61 293 l 2,5,6
 61 451 61 451 119 577.5 c 128,-1,7
 177 704 177 704 293.5 778 c 128,-1,8
 410 852 410 852 583 852 c 0,9,10
 813 852 813 852 943.5 709 c 128,-1,11
 1074 566 1074 566 1074 322 c 2,12,-1
 1074 185 l 1,13,-1
 405 185 l 1,14,15
 423 95 423 95 484 42.5 c 128,-1,16
 545 -10 545 -10 641 -10 c 0,17,18
 710 -10 710 -10 777 16 c 128,-1,19
 844 42 844 42 892 102 c 1,20,-1
 1045 -80 l 1,21,22
 995 -151 995 -151 885 -210.5 c 128,-1,23
 775 -270 775 -270 619 -270 c 0,0,1
580 592 m 0,24,25
 494 592 494 592 455 536.5 c 128,-1,26
 416 481 416 481 405 396 c 1,27,-1
 745 396 l 1,28,-1
 745 422 l 2,29,30
 746 502 746 502 703 547 c 128,-1,31
 660 592 660 592 580 592 c 0,24,25
EndSplineSet
Substitution2: "'unic' Unicase lookup 2 subtable" E.unic
Substitution2: "'smcp' Lowercase to Small Capitals lookup 1 subtable" E.smcp
EndChar

StartChar: eight
Encoding: 56 56 389
Width: 1187
VWidth: 1798
GlyphClass: 2
Flags: W
LayerCount: 2
Fore
SplineSet
1101 151 m 0,0,1
 1101 12 1101 12 1035.5 -82 c 128,-1,2
 970 -176 970 -176 855.5 -223 c 128,-1,3
 741 -270 741 -270 595 -270 c 0,4,5
 450 -270 450 -270 334.5 -223 c 128,-1,6
 219 -176 219 -176 152 -82 c 128,-1,7
 85 12 85 12 85 151 c 0,8,9
 85 272 85 272 147 361.5 c 128,-1,10
 209 451 209 451 314 501 c 1,11,12
 222 550 222 550 169 631 c 128,-1,13
 116 712 116 712 116 817 c 0,14,15
 116 951 116 951 177.5 1042 c 128,-1,16
 239 1133 239 1133 347 1180 c 128,-1,17
 455 1227 455 1227 593 1227 c 0,18,19
 733 1227 733 1227 841 1180 c 128,-1,20
 949 1133 949 1133 1010 1042 c 128,-1,21
 1071 951 1071 951 1071 817 c 0,22,23
 1071 712 1071 712 1018.5 630.5 c 128,-1,24
 966 549 966 549 875 500 c 1,25,26
 979 450 979 450 1040 361 c 128,-1,27
 1101 272 1101 272 1101 151 c 0,0,1
734 799 m 0,28,29
 734 876 734 876 698.5 921.5 c 128,-1,30
 663 967 663 967 593 967 c 0,31,32
 525 967 525 967 489.5 922.5 c 128,-1,33
 454 878 454 878 454 799 c 0,34,35
 454 721 454 721 489.5 673 c 128,-1,36
 525 625 525 625 595 625 c 256,37,38
 665 625 665 625 699.5 673 c 128,-1,39
 734 721 734 721 734 799 c 0,28,29
762 178 m 0,40,41
 762 267 762 267 716 316 c 128,-1,42
 670 365 670 365 593 365 c 0,43,44
 518 365 518 365 470.5 316 c 128,-1,45
 423 267 423 267 423 178 c 0,46,47
 423 90 423 90 471 40 c 128,-1,48
 519 -10 519 -10 595 -10 c 256,49,50
 671 -10 671 -10 716.5 40 c 128,-1,51
 762 90 762 90 762 178 c 0,40,41
EndSplineSet
Substitution2: "'ss01' Style Set 1 lookup 35 subtable" uni06F8
Substitution2: "'numr' Numerators lookup 21 subtable" eight.frac
Substitution2: "'dnom' Denominators lookup 20 subtable" eight.sup
Substitution2: "'frac' Diagonal Fractions lookup 19 subtable" eight.frac
Substitution2: "Single Substitution lookup 18 subtable" eight.sup
Substitution2: "'lnum' Lining Figures lookup 15 subtable" eight.pnum
Substitution2: "'onum' Oldstyle Figures lookup 14 subtable" eight.tnum
Substitution2: "'c2sc' Capitals to Small Capitals lookup 0 subtable" eight.smcp
Position2: "'cpsp' Capital Spacing lookup 0 subtable" dx=36 dy=0 dh=72 dv=0
EndChar

StartChar: eight.smcp
Encoding: 65731 -1 392
Width: 1076
GlyphClass: 2
Flags: W
LayerCount: 2
Fore
SplineSet
1007 323 m 0,0,1
 1007 209 1007 209 947 133.5 c 128,-1,2
 887 58 887 58 781.5 21 c 128,-1,3
 676 -16 676 -16 539 -16 c 0,4,5
 405 -16 405 -16 298.5 21 c 128,-1,6
 192 58 192 58 130.5 133.5 c 128,-1,7
 69 209 69 209 69 323 c 0,8,9
 69 420 69 420 121 490 c 128,-1,10
 173 560 173 560 261 600 c 1,11,12
 184 640 184 640 140 703 c 128,-1,13
 96 766 96 766 96 849 c 0,14,15
 96 959 96 959 153 1033 c 128,-1,16
 210 1107 210 1107 310 1144.5 c 128,-1,17
 410 1182 410 1182 537 1182 c 0,18,19
 734 1182 734 1182 856.5 1098 c 128,-1,20
 979 1014 979 1014 979 849 c 0,21,22
 979 766 979 766 936 702.5 c 128,-1,23
 893 639 893 639 817 600 c 1,24,25
 905 560 905 560 956 490 c 128,-1,26
 1007 420 1007 420 1007 323 c 0,0,1
642 827 m 0,27,28
 642 922 642 922 537 922 c 0,29,30
 434 922 434 922 434 827 c 0,31,32
 434 781 434 781 459.5 752 c 128,-1,33
 485 723 485 723 539 723 c 0,34,35
 595 723 595 723 618.5 752 c 128,-1,36
 642 781 642 781 642 827 c 0,27,28
670 357 m 0,37,38
 670 413 670 413 633 438 c 128,-1,39
 596 463 596 463 537 463 c 0,40,41
 482 463 482 463 444.5 438 c 128,-1,42
 407 413 407 413 407 357 c 0,43,44
 407 305 407 305 444.5 274 c 128,-1,45
 482 243 482 243 539 243 c 0,46,47
 598 243 598 243 634 274 c 128,-1,48
 670 305 670 305 670 357 c 0,37,38
EndSplineSet
EndChar

StartChar: eight.sup
Encoding: 65732 -1 393
Width: 768
GlyphClass: 2
Flags: W
LayerCount: 2
Fore
SplineSet
700 219 m 0,0,1
 700 103 700 103 611.5 46 c 128,-1,2
 523 -11 523 -11 385 -11 c 0,3,4
 249 -11 249 -11 158.5 46 c 128,-1,5
 68 103 68 103 68 219 c 0,6,7
 68 285 68 285 103 332 c 128,-1,8
 138 379 138 379 198 407 c 1,9,10
 146 433 146 433 116 476 c 128,-1,11
 86 519 86 519 86 575 c 0,12,13
 86 687 86 687 170.5 744 c 128,-1,14
 255 801 255 801 383 801 c 0,15,16
 515 801 515 801 598.5 744 c 128,-1,17
 682 687 682 687 682 575 c 0,18,19
 682 519 682 519 653 476 c 128,-1,20
 624 433 624 433 572 406 c 1,21,22
 631 379 631 379 665.5 332 c 128,-1,23
 700 285 700 285 700 219 c 0,0,1
457 560 m 0,24,25
 457 625 457 625 383 625 c 0,26,27
 311 625 311 625 311 560 c 0,28,29
 311 529 311 529 329.5 509.5 c 128,-1,30
 348 490 348 490 385 490 c 0,31,32
 423 490 423 490 440 509.5 c 128,-1,33
 457 529 457 529 457 560 c 0,24,25
476 242 m 0,34,35
 476 280 476 280 450 297 c 128,-1,36
 424 314 424 314 383 314 c 0,37,38
 345 314 345 314 319 297 c 128,-1,39
 293 280 293 280 293 242 c 0,40,41
 293 206 293 206 319 185.5 c 128,-1,42
 345 165 345 165 385 165 c 0,43,44
 426 165 426 165 451 185.5 c 128,-1,45
 476 206 476 206 476 242 c 0,34,35
EndSplineSet
EndChar

StartChar: emdash
Encoding: 8212 8212 397
Width: 1600
GlyphClass: 2
Flags: W
LayerCount: 2
Fore
SplineSet
1485 398 m 1,0,-1
 115 398 l 1,1,-1
 115 639 l 1,2,-1
 1485 639 l 1,3,-1
 1485 398 l 1,0,-1
EndSplineSet
EndChar

StartChar: endash
Encoding: 8211 8211 398
Width: 1345
GlyphClass: 2
Flags: W
LayerCount: 2
Fore
SplineSet
1230 398 m 1,0,-1
 115 398 l 1,1,-1
 115 639 l 1,2,-1
 1230 639 l 1,3,-1
 1230 398 l 1,0,-1
EndSplineSet
EndChar

StartChar: eng
Encoding: 331 331 399
Width: 1152
VWidth: 1798
GlyphClass: 2
Flags: W
AnchorPoint: "Anchor-1" 563 -240 basechar 0
AnchorPoint: "Anchor-0" 573 1040 basechar 0
LayerCount: 2
Fore
SplineSet
1065 -265 m 2,0,1
 1065 -470 1065 -470 955.5 -578.5 c 128,-1,2
 846 -687 846 -687 655 -687 c 0,3,4
 613 -687 613 -687 575.5 -683.5 c 128,-1,5
 538 -680 538 -680 495 -670 c 1,6,-1
 509 -415 l 1,7,8
 535 -421 535 -421 555 -424 c 128,-1,9
 575 -427 575 -427 609 -427 c 0,10,11
 726 -427 726 -427 726 -265 c 2,12,-1
 726 402 l 2,13,14
 726 511 726 511 692 551.5 c 128,-1,15
 658 592 658 592 597 592 c 0,16,17
 542 592 542 592 499 572.5 c 128,-1,18
 456 553 456 553 427 518 c 1,19,-1
 427 -250 l 1,20,-1
 90 -250 l 1,21,-1
 90 832 l 1,22,-1
 408 832 l 1,23,-1
 421 678 l 1,24,25
 473 760 473 760 551.5 806 c 128,-1,26
 630 852 630 852 727 852 c 0,27,28
 827 852 827 852 903 808 c 128,-1,29
 979 764 979 764 1022 665 c 128,-1,30
 1065 566 1065 566 1065 401 c 2,31,-1
 1065 -265 l 2,0,1
EndSplineSet
Substitution2: "'unic' Unicase lookup 2 subtable" Eng
Substitution2: "'smcp' Lowercase to Small Capitals lookup 1 subtable" Eng.smcp
EndChar

StartChar: eogonek
Encoding: 281 281 400
Width: 1116
VWidth: 1798
GlyphClass: 2
Flags: W
AnchorPoint: "Anchor-1" 568 -250 basechar 0
AnchorPoint: "Anchor-0" 565 1040 basechar 0
LayerCount: 2
Fore
SplineSet
903 -588 m 1,0,1
 878 -603 878 -603 838 -617.5 c 128,-1,2
 798 -632 798 -632 737 -632 c 0,3,4
 636 -632 636 -632 565 -577.5 c 128,-1,5
 494 -523 494 -523 494 -418 c 0,6,7
 494 -378 494 -378 504.5 -340 c 128,-1,8
 515 -302 515 -302 543 -266 c 1,9,10
 390 -250 390 -250 282 -176 c 128,-1,11
 174 -102 174 -102 117.5 11 c 128,-1,12
 61 124 61 124 61 255 c 2,13,-1
 61 293 l 2,14,15
 61 451 61 451 119 577.5 c 128,-1,16
 177 704 177 704 293.5 778 c 128,-1,17
 410 852 410 852 583 852 c 0,18,19
 813 852 813 852 943.5 709 c 128,-1,20
 1074 566 1074 566 1074 322 c 2,21,-1
 1074 185 l 1,22,-1
 405 185 l 1,23,24
 423 95 423 95 484 42.5 c 128,-1,25
 545 -10 545 -10 641 -10 c 0,26,27
 710 -10 710 -10 777 16 c 128,-1,28
 844 42 844 42 892 102 c 1,29,-1
 1045 -80 l 1,30,31
 1019 -117 1019 -117 977 -152 c 128,-1,32
 935 -187 935 -187 878 -214 c 1,33,-1
 881 -215 l 1,34,35
 801 -255 801 -255 768 -290.5 c 128,-1,36
 735 -326 735 -326 735 -376 c 0,37,38
 735 -402 735 -402 748.5 -420 c 128,-1,39
 762 -438 762 -438 795 -438 c 0,40,41
 821 -438 821 -438 836 -432 c 128,-1,42
 851 -426 851 -426 864 -420 c 1,43,-1
 903 -588 l 1,0,1
580 592 m 0,44,45
 494 592 494 592 455 536.5 c 128,-1,46
 416 481 416 481 405 396 c 1,47,-1
 745 396 l 1,48,-1
 745 422 l 2,49,50
 746 502 746 502 703 547 c 128,-1,51
 660 592 660 592 580 592 c 0,44,45
EndSplineSet
Substitution2: "'locl' Localized Forms in Latin lookup 8 subtable" eogonek.NAV
Substitution2: "'unic' Unicase lookup 2 subtable" Eogonek.unic
Substitution2: "'smcp' Lowercase to Small Capitals lookup 1 subtable" Eogonek.smcp
EndChar

StartChar: equal
Encoding: 61 61 402
Width: 1164
VWidth: 1798
GlyphClass: 2
Flags: W
LayerCount: 2
Fore
SplineSet
1044 348 m 1,0,-1
 130 348 l 1,1,-1
 130 589 l 1,2,-1
 1044 589 l 1,3,-1
 1044 348 l 1,0,-1
1044 -62 m 1,4,-1
 130 -62 l 1,5,-1
 130 179 l 1,6,-1
 1044 179 l 1,7,-1
 1044 -62 l 1,4,-1
EndSplineSet
EndChar

StartChar: estimated
Encoding: 8494 8494 403
Width: 1292
GlyphClass: 2
Flags: W
LayerCount: 2
Fore
SplineSet
1038 198 m 1,0,-1
 1040 94 l 1,1,2
 956 42 956 42 862 11 c 128,-1,3
 768 -20 768 -20 670 -20 c 0,4,5
 561 -20 561 -20 466 24 c 128,-1,6
 371 68 371 68 299 145 c 128,-1,7
 227 222 227 222 186.5 324 c 128,-1,8
 146 426 146 426 146 541 c 0,9,10
 146 657 146 657 190.5 758.5 c 128,-1,11
 235 860 235 860 310 937 c 128,-1,12
 385 1014 385 1014 478.5 1058 c 128,-1,13
 572 1102 572 1102 670 1102 c 0,14,15
 807 1102 807 1102 919.5 1031.5 c 128,-1,16
 1032 961 1032 961 1098.5 839 c 128,-1,17
 1165 717 1165 717 1165 561 c 2,18,-1
 1165 514 l 1,19,-1
 397 514 l 1,20,-1
 397 186 l 1,21,22
 452 135 452 135 522 105.5 c 128,-1,23
 592 76 592 76 670 76 c 0,24,25
 763 76 763 76 856.5 105.5 c 128,-1,26
 950 135 950 135 1038 198 c 1,0,-1
670 1008 m 0,27,28
 595 1008 595 1008 524.5 975 c 128,-1,29
 454 942 454 942 397 886 c 1,30,-1
 397 609 l 1,31,-1
 937 609 l 1,32,-1
 937 895 l 1,33,34
 885 947 885 947 816 977.5 c 128,-1,35
 747 1008 747 1008 670 1008 c 0,27,28
EndSplineSet
EndChar

StartChar: eth
Encoding: 240 240 404
Width: 1166
VWidth: 1798
GlyphClass: 2
Flags: W
LayerCount: 2
Fore
SplineSet
227 1085 m 1,0,-1
 334 1329 l 1,1,2
 571 1282 571 1282 750 1154 c 1,3,-1
 912 1254 l 1,4,-1
 989 1136 l 1,5,-1
 863 1058 l 1,6,7
 986 937 986 937 1055 772 c 128,-1,8
 1124 607 1124 607 1124 406 c 2,9,-1
 1124 343 l 2,10,11
 1124 161 1124 161 1053 23 c 128,-1,12
 982 -115 982 -115 859.5 -192.5 c 128,-1,13
 737 -270 737 -270 581 -270 c 0,14,15
 426 -270 426 -270 310 -204.5 c 128,-1,16
 194 -139 194 -139 129.5 -28.5 c 128,-1,17
 65 82 65 82 65 218 c 0,18,19
 65 440 65 440 180 575.5 c 128,-1,20
 295 711 295 711 518 711 c 0,21,22
 646 711 646 711 747 649 c 1,23,24
 721 722 721 722 681 782 c 128,-1,25
 641 842 641 842 591 890 c 1,26,-1
 413 780 l 1,27,-1
 335 898 l 1,28,-1
 471 982 l 1,29,30
 414 1017 414 1017 352 1042.5 c 128,-1,31
 290 1068 290 1068 227 1085 c 1,0,-1
402 218 m 0,32,33
 402 119 402 119 450.5 54.5 c 128,-1,34
 499 -10 499 -10 585 -10 c 0,35,36
 688 -10 688 -10 736.5 79.5 c 128,-1,37
 785 169 785 169 785 303 c 2,38,-1
 785 405 l 1,39,40
 758 432 758 432 710 451 c 128,-1,41
 662 470 662 470 592 470 c 0,42,43
 494 470 494 470 448 402.5 c 128,-1,44
 402 335 402 335 402 218 c 0,32,33
EndSplineSet
Substitution2: "'unic' Unicase lookup 2 subtable" Eth
Substitution2: "'smcp' Lowercase to Small Capitals lookup 1 subtable" Eth.smcp
EndChar

StartChar: exclam
Encoding: 33 33 405
Width: 617
VWidth: 1798
GlyphClass: 2
Flags: W
LayerCount: 2
Fore
SplineSet
152 1161 m 1,0,-1
 470 1161 l 1,1,-1
 453 249 l 1,2,-1
 170 249 l 1,3,-1
 152 1161 l 1,0,-1
115 -65 m 0,4,5
 115 15 115 15 172 67 c 128,-1,6
 229 119 229 119 309 119 c 256,7,8
 389 119 389 119 445.5 67 c 128,-1,9
 502 15 502 15 502 -65 c 0,10,11
 502 -144 502 -144 445.5 -196.5 c 128,-1,12
 389 -249 389 -249 309 -249 c 0,13,14
 227 -249 227 -249 171 -196.5 c 128,-1,15
 115 -144 115 -144 115 -65 c 0,4,5
EndSplineSet
EndChar

StartChar: exclamdown
Encoding: 161 161 407
Width: 616
VWidth: 1798
GlyphClass: 2
Flags: W
LayerCount: 2
Fore
SplineSet
497 683 m 256,0,1
 497 611 497 611 445 562.5 c 128,-1,2
 393 514 393 514 310 514 c 256,3,4
 227 514 227 514 175 562.5 c 128,-1,5
 123 611 123 611 123 683 c 256,6,7
 123 755 123 755 175 803.5 c 128,-1,8
 227 852 227 852 310 852 c 256,9,10
 393 852 393 852 445 803.5 c 128,-1,11
 497 755 497 755 497 683 c 256,0,1
128 -622 m 1,12,-1
 171 373 l 1,13,-1
 445 373 l 1,14,-1
 488 -622 l 1,15,-1
 128 -622 l 1,12,-1
EndSplineSet
EndChar

StartChar: f
Encoding: 102 102 408
Width: 743
VWidth: 1798
GlyphClass: 2
Flags: W
AnchorPoint: "Anchor-1" 330 -240 basechar 0
AnchorPoint: "Anchor-0" 502 1504 basechar 0
LayerCount: 2
Fore
SplineSet
508 -250 m 1,0,-1
 169 -250 l 1,1,-1
 169 598 l 1,2,-1
 13 598 l 1,3,-1
 13 832 l 1,4,-1
 169 832 l 1,5,-1
 169 920 l 2,6,7
 169 1108 169 1108 281.5 1207.5 c 128,-1,8
 394 1307 394 1307 584 1307 c 0,9,10
 628 1307 628 1307 667 1301 c 128,-1,11
 706 1295 706 1295 743 1286 c 1,12,-1
 744 1038 l 1,13,14
 726 1043 726 1043 707 1045 c 128,-1,15
 688 1047 688 1047 660 1047 c 0,16,17
 508 1047 508 1047 508 920 c 2,18,-1
 508 832 l 1,19,-1
 718 832 l 1,20,-1
 718 598 l 1,21,-1
 508 598 l 1,22,-1
 508 -250 l 1,0,-1
EndSplineSet
Substitution2: "'unic' Unicase lookup 2 subtable" F
Substitution2: "'smcp' Lowercase to Small Capitals lookup 1 subtable" F.smcp
EndChar

StartChar: f_f_i
Encoding: 64259 64259 410
Width: 1978
GlyphClass: 3
Flags: W
LayerCount: 2
Fore
SplineSet
508 0 m 1,0,-1
 169 0 l 1,1,-1
 169 848 l 1,2,-1
 13 848 l 1,3,-1
 13 1082 l 1,4,-1
 169 1082 l 1,5,-1
 169 1170 l 2,6,7
 169 1358 169 1358 281.5 1457.5 c 128,-1,8
 394 1557 394 1557 584 1557 c 0,9,10
 628 1557 628 1557 667 1551 c 128,-1,11
 706 1545 706 1545 743 1536 c 1,12,-1
 744 1288 l 1,13,14
 726 1293 726 1293 707 1295 c 128,-1,15
 688 1297 688 1297 660 1297 c 0,16,17
 508 1297 508 1297 508 1170 c 2,18,-1
 508 1082 l 1,19,-1
 849 1082 l 1,20,-1
 849 1110 l 2,21,22
 849 1328 849 1328 982.5 1442.5 c 128,-1,23
 1116 1557 1116 1557 1360 1557 c 0,24,25
 1451 1557 1451 1557 1536 1541 c 128,-1,26
 1621 1525 1621 1525 1712 1499 c 1,27,-1
 1666 1233 l 1,28,29
 1606 1249 1606 1249 1541.5 1263 c 128,-1,30
 1477 1277 1477 1277 1380 1277 c 0,31,32
 1289 1277 1289 1277 1238 1234 c 128,-1,33
 1187 1191 1187 1191 1187 1110 c 2,34,-1
 1187 1082 l 1,35,-1
 1399 1082 l 1,36,-1
 1399 848 l 1,37,-1
 1187 848 l 1,38,-1
 1187 0 l 1,39,-1
 849 0 l 1,40,-1
 849 848 l 1,41,-1
 508 848 l 1,42,-1
 508 0 l 1,0,-1
1867 1082 m 1,43,-1
 1867 0 l 1,44,-1
 1528 0 l 1,45,-1
 1528 1082 l 1,46,-1
 1867 1082 l 1,43,-1
EndSplineSet
Ligature2: "'liga' Standard Ligatures in Latin lookup 10 subtable" f f i
EndChar

StartChar: f_f_l
Encoding: 64260 64260 411
Width: 1978
GlyphClass: 3
Flags: W
LayerCount: 2
Fore
SplineSet
508 0 m 1,0,-1
 169 0 l 1,1,-1
 169 848 l 1,2,-1
 13 848 l 1,3,-1
 13 1082 l 1,4,-1
 169 1082 l 1,5,-1
 169 1170 l 2,6,7
 169 1358 169 1358 281.5 1457.5 c 128,-1,8
 394 1557 394 1557 584 1557 c 0,9,10
 628 1557 628 1557 667 1551 c 128,-1,11
 706 1545 706 1545 743 1536 c 1,12,-1
 744 1288 l 1,13,14
 726 1293 726 1293 707 1295 c 128,-1,15
 688 1297 688 1297 660 1297 c 0,16,17
 508 1297 508 1297 508 1170 c 2,18,-1
 508 1082 l 1,19,-1
 849 1082 l 1,20,-1
 849 1150 l 2,21,22
 849 1348 849 1348 975.5 1452.5 c 128,-1,23
 1102 1557 1102 1557 1331 1557 c 0,24,25
 1397 1557 1397 1557 1496 1553.5 c 128,-1,26
 1595 1550 1595 1550 1696 1545.5 c 128,-1,27
 1797 1541 1797 1541 1867 1536 c 1,28,-1
 1867 0 l 1,29,-1
 1528 0 l 1,30,-1
 1528 1290 l 1,31,32
 1492 1293 1492 1293 1455.5 1295 c 128,-1,33
 1419 1297 1419 1297 1383 1297 c 0,34,35
 1289 1297 1289 1297 1238 1259 c 128,-1,36
 1187 1221 1187 1221 1187 1150 c 2,37,-1
 1187 1082 l 1,38,-1
 1398 1082 l 1,39,-1
 1398 848 l 1,40,-1
 1187 848 l 1,41,-1
 1187 0 l 1,42,-1
 849 0 l 1,43,-1
 849 848 l 1,44,-1
 508 848 l 1,45,-1
 508 0 l 1,0,-1
EndSplineSet
Ligature2: "'liga' Standard Ligatures in Latin lookup 11 subtable" f f l
EndChar

StartChar: f_l
Encoding: 64258 64258 412
Width: 1299
GlyphClass: 3
Flags: W
LayerCount: 2
Fore
SplineSet
508 0 m 1,0,-1
 169 0 l 1,1,-1
 169 848 l 1,2,-1
 13 848 l 1,3,-1
 13 1082 l 1,4,-1
 169 1082 l 1,5,-1
 169 1150 l 2,6,7
 169 1348 169 1348 296 1452.5 c 128,-1,8
 423 1557 423 1557 652 1557 c 0,9,10
 718 1557 718 1557 817 1553.5 c 128,-1,11
 916 1550 916 1550 1016.5 1545.5 c 128,-1,12
 1117 1541 1117 1541 1187 1536 c 1,13,-1
 1187 0 l 1,14,-1
 849 0 l 1,15,-1
 849 1290 l 1,16,17
 813 1293 813 1293 776.5 1295 c 128,-1,18
 740 1297 740 1297 704 1297 c 0,19,20
 610 1297 610 1297 559 1259 c 128,-1,21
 508 1221 508 1221 508 1150 c 2,22,-1
 508 1082 l 1,23,-1
 718 1082 l 1,24,-1
 718 848 l 1,25,-1
 508 848 l 1,26,-1
 508 0 l 1,0,-1
EndSplineSet
Ligature2: "'liga' Standard Ligatures in Latin lookup 11 subtable" f l
EndChar

StartChar: fi
Encoding: 64257 64257 413
Width: 1303
GlyphClass: 3
Flags: W
LayerCount: 2
Fore
SplineSet
512 0 m 1,0,-1
 173 0 l 1,1,-1
 173 848 l 1,2,-1
 17 848 l 1,3,-1
 17 1082 l 1,4,-1
 173 1082 l 1,5,-1
 173 1110 l 2,6,7
 173 1328 173 1328 307 1442.5 c 128,-1,8
 441 1557 441 1557 684 1557 c 0,9,10
 776 1557 776 1557 861 1541 c 128,-1,11
 946 1525 946 1525 1037 1499 c 1,12,-1
 990 1233 l 1,13,14
 931 1249 931 1249 866.5 1263 c 128,-1,15
 802 1277 802 1277 705 1277 c 0,16,17
 614 1277 614 1277 563 1234 c 128,-1,18
 512 1191 512 1191 512 1110 c 2,19,-1
 512 1082 l 1,20,-1
 724 1082 l 1,21,-1
 724 848 l 1,22,-1
 512 848 l 1,23,-1
 512 0 l 1,0,-1
1191 1082 m 1,24,-1
 1191 0 l 1,25,-1
 853 0 l 1,26,-1
 853 1082 l 1,27,-1
 1191 1082 l 1,24,-1
EndSplineSet
Ligature2: "'liga' Standard Ligatures in Latin lookup 10 subtable" f i
EndChar

StartChar: figuredash
Encoding: 8210 8210 414
Width: 1025
GlyphClass: 2
Flags: W
LayerCount: 2
Fore
SplineSet
910 398 m 1,0,-1
 115 398 l 1,1,-1
 115 639 l 1,2,-1
 910 639 l 1,3,-1
 910 398 l 1,0,-1
EndSplineSet
EndChar

StartChar: five
Encoding: 53 53 415
Width: 1187
VWidth: 1798
GlyphClass: 2
Flags: W
LayerCount: 2
Fore
SplineSet
378 399 m 1,0,-1
 110 462 l 1,1,-1
 198 1206 l 1,2,-1
 1049 1206 l 1,3,-1
 1049 944 l 1,4,-1
 473 944 l 1,5,-1
 440 655 l 1,6,7
 464 669 464 669 521.5 688.5 c 128,-1,8
 579 708 579 708 649 708 c 0,9,10
 865 708 865 708 982 580.5 c 128,-1,11
 1099 453 1099 453 1099 219 c 0,12,13
 1099 94 1099 94 1044.5 -18 c 128,-1,14
 990 -130 990 -130 878 -200 c 128,-1,15
 766 -270 766 -270 593 -270 c 0,16,17
 496 -270 496 -270 404 -240 c 128,-1,18
 312 -210 312 -210 238.5 -153.5 c 128,-1,19
 165 -97 165 -97 122.5 -16.5 c 128,-1,20
 80 64 80 64 81 164 c 1,21,-1
 420 164 l 1,22,23
 425 85 425 85 471 37.5 c 128,-1,24
 517 -10 517 -10 591 -10 c 0,25,26
 658 -10 658 -10 695 24.5 c 128,-1,27
 732 59 732 59 746.5 116.5 c 128,-1,28
 761 174 761 174 761 242 c 0,29,30
 761 349 761 349 712.5 412 c 128,-1,31
 664 475 664 475 554 475 c 0,32,33
 481 475 481 475 439 450 c 128,-1,34
 397 425 397 425 378 399 c 1,0,-1
EndSplineSet
Substitution2: "'ss01' Style Set 1 lookup 35 subtable" uni06F5
Substitution2: "'numr' Numerators lookup 21 subtable" five.frac
Substitution2: "'dnom' Denominators lookup 20 subtable" five.sup
Substitution2: "'frac' Diagonal Fractions lookup 19 subtable" five.frac
Substitution2: "Single Substitution lookup 18 subtable" five.sup
Substitution2: "'onum' Oldstyle Figures lookup 14 subtable" five.tnum
Substitution2: "'c2sc' Capitals to Small Capitals lookup 0 subtable" five.smcp
Position2: "'cpsp' Capital Spacing lookup 0 subtable" dx=36 dy=0 dh=72 dv=0
EndChar

StartChar: five.onum
Encoding: 65737 -1 417
Width: 1131
GlyphClass: 1
Flags: W
LayerCount: 2
Fore
SplineSet
425 371 m 1,0,-1
 144 388 l 1,1,-1
 203 1164 l 1,2,-1
 1049 1164 l 1,3,-1
 1049 902 l 1,4,-1
 480 902 l 1,5,-1
 451 626 l 1,6,7
 522 666 522 666 661 666 c 0,8,9
 878 666 878 666 991 538.5 c 128,-1,10
 1104 411 1104 411 1104 177 c 0,11,12
 1104 42 1104 42 1043 -79.5 c 128,-1,13
 982 -201 982 -201 856.5 -277 c 128,-1,14
 731 -353 731 -353 537 -353 c 0,15,16
 422 -353 422 -353 311 -321.5 c 128,-1,17
 200 -290 200 -290 107 -230 c 1,18,-1
 208 6 l 1,19,20
 251 -26 251 -26 324 -58.5 c 128,-1,21
 397 -91 397 -91 492 -91 c 0,22,23
 599 -91 599 -91 659 -52 c 128,-1,24
 719 -13 719 -13 743 48 c 128,-1,25
 767 109 767 109 767 175 c 0,26,27
 767 288 767 288 722 360.5 c 128,-1,28
 677 433 677 433 569 433 c 0,29,30
 537 433 537 433 495 416.5 c 128,-1,31
 453 400 453 400 425 371 c 1,0,-1
EndSplineSet
EndChar

StartChar: five.smcp
Encoding: 65738 -1 418
Width: 1076
GlyphClass: 2
Flags: W
LayerCount: 2
Fore
SplineSet
347 498 m 1,0,-1
 79 561 l 1,1,-1
 163 1165 l 1,2,-1
 925 1165 l 1,3,-1
 925 913 l 1,4,-1
 435 913 l 1,5,-1
 407 729 l 1,6,7
 424 736 424 736 479.5 751.5 c 128,-1,8
 535 767 535 767 596 767 c 0,9,10
 794 767 794 767 894.5 671 c 128,-1,11
 995 575 995 575 995 396 c 0,12,13
 995 294 995 294 944.5 199.5 c 128,-1,14
 894 105 894 105 791 44.5 c 128,-1,15
 688 -16 688 -16 528 -16 c 0,16,17
 408 -16 408 -16 299.5 27 c 128,-1,18
 191 70 191 70 122.5 148.5 c 128,-1,19
 54 227 54 227 55 334 c 1,20,-1
 397 334 l 1,21,22
 396 282 396 282 431.5 262.5 c 128,-1,23
 467 243 467 243 528 243 c 0,24,25
 612 243 612 243 635 290.5 c 128,-1,26
 658 338 658 338 658 396 c 0,27,28
 658 468 658 468 621 509.5 c 128,-1,29
 584 551 584 551 504 551 c 0,30,31
 432 551 432 551 396 530.5 c 128,-1,32
 360 510 360 510 347 498 c 1,0,-1
EndSplineSet
EndChar

StartChar: five.sup
Encoding: 65739 -1 419
Width: 768
GlyphClass: 2
Flags: W
LayerCount: 2
Fore
SplineSet
254 337 m 1,0,-1
 76 380 l 1,1,-1
 132 789 l 1,2,-1
 647 789 l 1,3,-1
 647 619 l 1,4,-1
 314 619 l 1,5,-1
 294 494 l 1,6,7
 306 499 306 499 344 509.5 c 128,-1,8
 382 520 382 520 423 520 c 0,9,10
 557 520 557 520 625 455 c 128,-1,11
 693 390 693 390 693 268 c 0,12,13
 693 199 693 199 659 135 c 128,-1,14
 625 71 625 71 555.5 30 c 128,-1,15
 486 -11 486 -11 378 -11 c 0,16,17
 298 -11 298 -11 225 18 c 128,-1,18
 152 47 152 47 106 100.5 c 128,-1,19
 60 154 60 154 60 226 c 1,20,-1
 287 226 l 1,21,22
 286 191 286 191 311 178 c 128,-1,23
 336 165 336 165 378 165 c 0,24,25
 437 165 437 165 453 196.5 c 128,-1,26
 469 228 469 228 469 268 c 0,27,28
 469 317 469 317 443.5 345 c 128,-1,29
 418 373 418 373 362 373 c 0,30,31
 313 373 313 373 288.5 359 c 128,-1,32
 264 345 264 345 254 337 c 1,0,-1
EndSplineSet
EndChar

StartChar: florin
Encoding: 402 402 422
Width: 758
VWidth: 1798
GlyphClass: 2
Flags: W
LayerCount: 2
Fore
SplineSet
720 832 m 1,0,-1
 720 598 l 1,1,-1
 506 598 l 1,2,-1
 505 -285 l 2,3,4
 505 -480 505 -480 402 -583.5 c 128,-1,5
 299 -687 299 -687 118 -687 c 0,6,7
 75 -687 75 -687 38 -683.5 c 128,-1,8
 1 -680 1 -680 -42 -670 c 1,9,-1
 -27 -415 l 1,10,11
 -12 -419 -12 -419 14.5 -423 c 128,-1,12
 41 -427 41 -427 61 -427 c 0,13,14
 127 -427 127 -427 147.5 -391 c 128,-1,15
 168 -355 168 -355 168 -285 c 2,16,-1
 168 598 l 1,17,-1
 11 598 l 1,18,-1
 11 832 l 1,19,-1
 168 832 l 1,20,-1
 168 920 l 2,21,22
 168 1108 168 1108 281 1207.5 c 128,-1,23
 394 1307 394 1307 596 1307 c 0,24,25
 639 1307 639 1307 680 1301 c 128,-1,26
 721 1295 721 1295 764 1286 c 1,27,-1
 738 1037 l 1,28,29
 716 1042 716 1042 694 1044.5 c 128,-1,30
 672 1047 672 1047 638 1047 c 0,31,32
 576 1047 576 1047 541 1014.5 c 128,-1,33
 506 982 506 982 506 920 c 2,34,-1
 506 832 l 1,35,-1
 720 832 l 1,0,-1
EndSplineSet
EndChar

StartChar: four
Encoding: 52 52 423
Width: 1187
VWidth: 1798
GlyphClass: 2
Flags: W
LayerCount: 2
Fore
SplineSet
1127 319 m 1,0,-1
 1127 59 l 1,1,-1
 980 59 l 1,2,-1
 980 -250 l 1,3,-1
 643 -250 l 1,4,-1
 643 59 l 1,5,-1
 79 59 l 1,6,-1
 59 265 l 1,7,-1
 643 1204 l 1,8,-1
 643 1206 l 1,9,-1
 980 1206 l 1,10,-1
 980 319 l 1,11,-1
 1127 319 l 1,0,-1
381 319 m 1,12,-1
 643 319 l 1,13,-1
 643 769 l 1,14,-1
 621 733 l 1,15,-1
 381 319 l 1,12,-1
EndSplineSet
Substitution2: "'ss01' Style Set 1 lookup 35 subtable" uni06F4
Substitution2: "'numr' Numerators lookup 21 subtable" four.frac
Substitution2: "'dnom' Denominators lookup 20 subtable" four.sup
Substitution2: "'frac' Diagonal Fractions lookup 19 subtable" four.frac
Substitution2: "Single Substitution lookup 18 subtable" four.sup
Substitution2: "'onum' Oldstyle Figures lookup 14 subtable" four.tnum
Substitution2: "'c2sc' Capitals to Small Capitals lookup 0 subtable" four.smcp
Position2: "'cpsp' Capital Spacing lookup 0 subtable" dx=36 dy=0 dh=72 dv=0
EndChar

StartChar: four.onum
Encoding: 65742 -1 425
Width: 1177
GlyphClass: 1
Flags: W
LayerCount: 2
Fore
SplineSet
1118 261 m 1,0,-1
 1118 -1 l 1,1,-1
 970 -1 l 1,2,-1
 970 -292 l 1,3,-1
 633 -292 l 1,4,-1
 633 -1 l 1,5,-1
 55 -1 l 1,6,-1
 35 207 l 1,7,-1
 633 1162 l 1,8,-1
 633 1164 l 1,9,-1
 970 1164 l 1,10,-1
 970 261 l 1,11,-1
 1118 261 l 1,0,-1
356 261 m 1,12,-1
 633 261 l 1,13,-1
 633 725 l 1,14,-1
 612 691 l 1,15,-1
 356 261 l 1,12,-1
EndSplineSet
EndChar

StartChar: four.smcp
Encoding: 65743 -1 426
Width: 1076
GlyphClass: 2
Flags: W
LayerCount: 2
Fore
SplineSet
1019 494 m 1,0,-1
 1019 232 l 1,1,-1
 899 232 l 1,2,-1
 899 0 l 1,3,-1
 562 0 l 1,4,-1
 562 232 l 1,5,-1
 78 232 l 1,6,-1
 55 446 l 1,7,-1
 562 1159 l 1,8,-1
 562 1165 l 1,9,-1
 899 1165 l 1,10,-1
 899 494 l 1,11,-1
 1019 494 l 1,0,-1
371 494 m 1,12,-1
 562 494 l 1,13,-1
 562 769 l 1,14,-1
 544 743 l 1,15,-1
 371 494 l 1,12,-1
EndSplineSet
EndChar

StartChar: four.sup
Encoding: 65744 -1 427
Width: 768
GlyphClass: 2
Flags: W
LayerCount: 2
Fore
SplineSet
707 335 m 1,0,-1
 707 157 l 1,1,-1
 627 157 l 1,2,-1
 627 0 l 1,3,-1
 402 0 l 1,4,-1
 402 157 l 1,5,-1
 69 157 l 1,6,-1
 54 302 l 1,7,-1
 402 789 l 1,8,-1
 627 789 l 1,9,-1
 627 335 l 1,10,-1
 707 335 l 1,0,-1
265 335 m 1,11,-1
 402 335 l 1,12,-1
 402 525 l 1,13,-1
 387 503 l 1,14,-1
 265 335 l 1,11,-1
EndSplineSet
EndChar

StartChar: fraction
Encoding: 8260 8260 429
Width: 903
GlyphClass: 2
Flags: W
LayerCount: 2
Fore
SplineSet
883 1247 m 1,0,-1
 172 109 l 1,1,-1
 15 188 l 1,2,-1
 726 1326 l 1,3,-1
 883 1247 l 1,0,-1
EndSplineSet
EndChar

StartChar: g
Encoding: 103 103 431
Width: 1179
VWidth: 1798
GlyphClass: 2
Flags: W
AnchorPoint: "Anchor-1" 554 -697 basechar 0
AnchorPoint: "Anchor-0" 556 1040 basechar 0
LayerCount: 2
Fore
SplineSet
56 278 m 2,0,-1
 56 299 l 2,1,2
 56 464 56 464 109.5 588.5 c 128,-1,3
 163 713 163 713 262.5 782.5 c 128,-1,4
 362 852 362 852 499 852 c 0,5,6
 591 852 591 852 655 822 c 128,-1,7
 719 792 719 792 763 739 c 1,8,-1
 775 832 l 1,9,-1
 1081 832 l 1,10,-1
 1081 -208 l 2,11,12
 1081 -358 1081 -358 1012 -462.5 c 128,-1,13
 943 -567 943 -567 819.5 -621.5 c 128,-1,14
 696 -676 696 -676 531 -676 c 0,15,16
 422 -676 422 -676 309 -634.5 c 128,-1,17
 196 -593 196 -593 129 -514 c 1,18,-1
 270 -316 l 1,19,20
 311 -362 311 -362 373 -394.5 c 128,-1,21
 435 -427 435 -427 519 -427 c 0,22,23
 628 -427 628 -427 685.5 -369 c 128,-1,24
 743 -311 743 -311 743 -206 c 2,25,-1
 743 -162 l 1,26,27
 698 -213 698 -213 637 -241.5 c 128,-1,28
 576 -270 576 -270 497 -270 c 0,29,30
 361 -270 361 -270 262 -198.5 c 128,-1,31
 163 -127 163 -127 109.5 -3 c 128,-1,32
 56 121 56 121 56 278 c 2,0,-1
393 299 m 2,33,-1
 393 278 l 2,34,35
 393 157 393 157 440 73.5 c 128,-1,36
 487 -10 487 -10 583 -10 c 0,37,38
 693 -10 693 -10 743 64 c 1,39,-1
 743 518 l 1,40,41
 695 592 695 592 585 592 c 0,42,43
 491 592 491 592 442 508.5 c 128,-1,44
 393 425 393 425 393 299 c 2,33,-1
EndSplineSet
Substitution2: "'salt' Stylistic Alternatives lookup 13 subtable" g.alt
Substitution2: "'unic' Unicase lookup 2 subtable" G
Substitution2: "'smcp' Lowercase to Small Capitals lookup 1 subtable" G.smcp
EndChar

StartChar: g.alt
Encoding: 65746 -1 432
Width: 1083
GlyphClass: 2
Flags: W
LayerCount: 2
Fore
SplineSet
31 710 m 2,0,-1
 31 732 l 2,1,2
 31 843 31 843 91.5 926 c 128,-1,3
 152 1009 152 1009 262 1055.5 c 128,-1,4
 372 1102 372 1102 520 1102 c 0,5,6
 616 1102 616 1102 698 1082 c 1,7,-1
 1057 1082 l 1,8,-1
 1059 928 l 1,9,-1
 948 928 l 1,10,11
 1010 843 1010 843 1010 732 c 2,12,-1
 1010 710 l 2,13,14
 1010 606 1010 606 950 522 c 128,-1,15
 890 438 890 438 780.5 388.5 c 128,-1,16
 671 339 671 339 522 339 c 0,17,18
 449 339 449 339 383 352 c 1,19,20
 367 332 367 332 367 308 c 0,21,22
 367 263 367 263 403.5 250.5 c 128,-1,23
 440 238 440 238 494 238 c 2,24,-1
 685 238 l 2,25,26
 861 238 861 238 959.5 157 c 128,-1,27
 1058 76 1058 76 1058 -67 c 0,28,29
 1058 -152 1058 -152 992 -238 c 128,-1,30
 926 -324 926 -324 800 -381 c 128,-1,31
 674 -438 674 -438 494 -438 c 0,32,33
 327 -438 327 -438 212 -399.5 c 128,-1,34
 97 -361 97 -361 38 -298 c 128,-1,35
 -21 -235 -21 -235 -21 -162 c 0,36,37
 -21 -72 -21 -72 41 -11 c 128,-1,38
 103 50 103 50 185 83 c 1,39,40
 142 133 142 133 142 208 c 0,41,42
 142 272 142 272 176.5 316 c 128,-1,43
 211 360 211 360 258 391 c 1,44,45
 151 439 151 439 91 523 c 128,-1,46
 31 607 31 607 31 710 c 2,0,-1
366 732 m 2,47,-1
 366 710 l 2,48,49
 366 657 366 657 406 618 c 128,-1,50
 446 579 446 579 522 579 c 0,51,52
 597 579 597 579 636 618 c 128,-1,53
 675 657 675 657 675 710 c 2,54,-1
 675 732 l 2,55,56
 675 788 675 788 635 825 c 128,-1,57
 595 862 595 862 520 862 c 0,58,59
 447 862 447 862 406.5 825 c 128,-1,60
 366 788 366 788 366 732 c 2,47,-1
292 -82 m 0,61,62
 292 -129 292 -129 341.5 -164 c 128,-1,63
 391 -199 391 -199 494 -199 c 0,64,65
 622 -199 622 -199 672.5 -163 c 128,-1,66
 723 -127 723 -127 723 -87 c 0,67,68
 723 -58 723 -58 701 -30 c 128,-1,69
 679 -2 679 -2 619 -2 c 2,70,-1
 432 -2 l 2,71,72
 381 -2 381 -2 338 6 c 1,73,74
 318 -7 318 -7 305 -30 c 128,-1,75
 292 -53 292 -53 292 -82 c 0,61,62
EndSplineSet
EndChar

StartChar: germandbls
Encoding: 223 223 437
Width: 1330
VWidth: 1798
GlyphClass: 2
Flags: W
LayerCount: 2
Fore
SplineSet
472 843 m 2,0,-1
 472 -250 l 1,1,-1
 135 -250 l 1,2,-1
 135 849 l 2,3,4
 135 1078 135 1078 271.5 1194.5 c 128,-1,5
 408 1311 408 1311 648 1311 c 0,6,7
 768 1311 768 1311 868.5 1268 c 128,-1,8
 969 1225 969 1225 1030 1140.5 c 128,-1,9
 1091 1056 1091 1056 1091 931 c 0,10,11
 1091 859 1091 859 1076.5 818.5 c 128,-1,12
 1062 778 1062 778 1043.5 748.5 c 128,-1,13
 1025 719 1025 719 1010.5 683 c 128,-1,14
 996 647 996 647 996 585 c 0,15,16
 996 550 996 550 1024 515 c 128,-1,17
 1052 480 1052 480 1093 441.5 c 128,-1,18
 1134 403 1134 403 1175 356.5 c 128,-1,19
 1216 310 1216 310 1244 251.5 c 128,-1,20
 1272 193 1272 193 1272 118 c 0,21,22
 1272 -62 1272 -62 1151.5 -166 c 128,-1,23
 1031 -270 1031 -270 795 -270 c 0,24,25
 720 -270 720 -270 644 -256.5 c 128,-1,26
 568 -243 568 -243 526 -219 c 1,27,-1
 586 34 l 1,28,29
 616 18 616 18 669.5 4 c 128,-1,30
 723 -10 723 -10 796 -10 c 0,31,32
 856 -10 856 -10 896 22.5 c 128,-1,33
 936 55 936 55 936 115 c 0,34,35
 936 162 936 162 908 198 c 128,-1,36
 880 234 880 234 838.5 268.5 c 128,-1,37
 797 303 797 303 755.5 343 c 128,-1,38
 714 383 714 383 686 437 c 128,-1,39
 658 491 658 491 658 567 c 0,40,41
 658 637 658 637 672 679 c 128,-1,42
 686 721 686 721 705 753 c 128,-1,43
 724 785 724 785 738 822 c 128,-1,44
 752 859 752 859 752 917 c 0,45,46
 752 976 752 976 712.5 1014 c 128,-1,47
 673 1052 673 1052 611 1052 c 256,48,49
 549 1052 549 1052 510.5 1008 c 128,-1,50
 472 964 472 964 472 843 c 2,0,-1
EndSplineSet
Substitution2: "'smcp' Lowercase to Small Capitals lookup 1 subtable" Germandbls.smcp
EndChar

StartChar: grave
Encoding: 96 96 438
Width: 696
VWidth: 1798
GlyphClass: 2
Flags: W
LayerCount: 2
Fore
SplineSet
411 1286 m 1,0,-1
 610 972 l 1,1,-1
 337 972 l 1,2,-1
 55 1286 l 1,3,-1
 411 1286 l 1,0,-1
EndSplineSet
EndChar

StartChar: gravecomb
Encoding: 768 768 439
Width: 0
VWidth: 1798
GlyphClass: 4
Flags: W
AnchorPoint: "Anchor-3" -530 1391 basemark 0
AnchorPoint: "Anchor-3" -530 1040 mark 0
AnchorPoint: "Anchor-0" -530 1040 mark 0
LayerCount: 2
Fore
SplineSet
-555 1286 m 1,0,-1
 -355 972 l 1,1,-1
 -629 972 l 1,2,-1
 -911 1286 l 1,3,-1
 -555 1286 l 1,0,-1
EndSplineSet
EndChar

StartChar: greater
Encoding: 62 62 440
Width: 1051
VWidth: 1798
GlyphClass: 2
Flags: W
LayerCount: 2
Fore
SplineSet
111 173 m 1,0,-1
 656 362 l 1,1,-1
 111 547 l 1,2,-1
 111 853 l 1,3,-1
 991 493 l 1,4,-1
 991 227 l 1,5,-1
 111 -133 l 1,6,-1
 111 173 l 1,0,-1
EndSplineSet
EndChar

StartChar: greaterequal
Encoding: 8805 8805 441
Width: 1051
GlyphClass: 2
Flags: W
LayerCount: 2
Fore
SplineSet
111 559 m 1,0,-1
 656 712 l 1,1,-1
 111 862 l 1,2,-1
 111 1109 l 1,3,-1
 991 818 l 1,4,-1
 991 602 l 1,5,-1
 111 311 l 1,6,-1
 111 559 l 1,0,-1
991 241 m 1,7,-1
 991 1 l 1,8,-1
 112 1 l 1,9,-1
 112 241 l 1,10,-1
 991 241 l 1,7,-1
EndSplineSet
EndChar

StartChar: guillemotleft
Encoding: 171 171 442
Width: 988
VWidth: 1798
GlyphClass: 2
Flags: W
LayerCount: 2
Fore
SplineSet
510 -134 m 1,0,-1
 356 -276 l 1,1,2
 213 -117 213 -117 146 11.5 c 128,-1,3
 79 140 79 140 79 262 c 256,4,5
 79 384 79 384 145.5 512.5 c 128,-1,6
 212 641 212 641 356 799 c 1,7,-1
 510 655 l 1,8,9
 430 528 430 528 390 437 c 128,-1,10
 350 346 350 346 350 262 c 0,11,12
 350 177 350 177 390.5 85.5 c 128,-1,13
 431 -6 431 -6 510 -134 c 1,0,-1
913 -134 m 1,14,-1
 759 -276 l 1,15,16
 616 -117 616 -117 544 11.5 c 128,-1,17
 472 140 472 140 472 262 c 256,18,19
 472 384 472 384 543.5 512.5 c 128,-1,20
 615 641 615 641 759 799 c 1,21,-1
 913 655 l 1,22,23
 833 528 833 528 793 437 c 128,-1,24
 753 346 753 346 753 262 c 0,25,26
 753 177 753 177 793.5 85.5 c 128,-1,27
 834 -6 834 -6 913 -134 c 1,14,-1
EndSplineSet
EndChar

StartChar: guillemotright
Encoding: 187 187 443
Width: 988
VWidth: 1798
GlyphClass: 2
Flags: W
LayerCount: 2
Fore
SplineSet
478 -134 m 1,0,1
 558 -6 558 -6 597.5 85.5 c 128,-1,2
 637 177 637 177 637 262 c 0,3,4
 637 346 637 346 597.5 437 c 128,-1,5
 558 528 558 528 478 655 c 1,6,-1
 632 799 l 1,7,8
 775 641 775 641 842 512.5 c 128,-1,9
 909 384 909 384 909 262 c 256,10,11
 909 140 909 140 842 11.5 c 128,-1,12
 775 -117 775 -117 632 -276 c 1,13,-1
 478 -134 l 1,0,1
75 -134 m 1,14,15
 155 -6 155 -6 194.5 85.5 c 128,-1,16
 234 177 234 177 234 262 c 0,17,18
 234 346 234 346 194.5 437 c 128,-1,19
 155 528 155 528 75 655 c 1,20,-1
 229 799 l 1,21,22
 372 641 372 641 444 512.5 c 128,-1,23
 516 384 516 384 516 262 c 256,24,25
 516 140 516 140 444 11.5 c 128,-1,26
 372 -117 372 -117 229 -276 c 1,27,-1
 75 -134 l 1,14,15
EndSplineSet
EndChar

StartChar: guilsinglleft
Encoding: 8249 8249 444
Width: 651
GlyphClass: 2
Flags: W
LayerCount: 2
Fore
SplineSet
587 915 m 1,0,-1
 355 516 l 1,1,-1
 587 116 l 1,2,-1
 381 116 l 1,3,-1
 108 506 l 1,4,-1
 108 525 l 1,5,-1
 381 915 l 1,6,-1
 587 915 l 1,0,-1
EndSplineSet
EndChar

StartChar: guilsinglright
Encoding: 8250 8250 445
Width: 621
GlyphClass: 2
Flags: W
LayerCount: 2
Fore
SplineSet
77 115 m 1,0,-1
 308 515 l 1,1,-1
 77 914 l 1,2,-1
 283 914 l 1,3,-1
 556 524 l 1,4,-1
 556 505 l 1,5,-1
 283 115 l 1,6,-1
 77 115 l 1,0,-1
EndSplineSet
EndChar

StartChar: h
Encoding: 104 104 446
Width: 1156
VWidth: 1798
GlyphClass: 2
Flags: W
AnchorPoint: "Anchor-1" 588 -240 basechar 0
AnchorPoint: "Anchor-0" 501 1361 basechar 0
LayerCount: 2
Fore
SplineSet
425 1286 m 1,0,-1
 425 717 l 1,1,2
 476 781 476 781 546 816.5 c 128,-1,3
 616 852 616 852 701 852 c 0,4,5
 808 852 808 852 890 810 c 128,-1,6
 972 768 972 768 1018 673.5 c 128,-1,7
 1064 579 1064 579 1064 422 c 2,8,-1
 1064 -250 l 1,9,-1
 725 -250 l 1,10,-1
 725 424 l 2,11,12
 725 523 725 523 684.5 557.5 c 128,-1,13
 644 592 644 592 571 592 c 0,14,15
 516 592 516 592 481 575 c 128,-1,16
 446 558 446 558 425 527 c 1,17,-1
 425 -250 l 1,18,-1
 88 -250 l 1,19,-1
 88 1286 l 1,20,-1
 425 1286 l 1,0,-1
EndSplineSet
Substitution2: "'unic' Unicase lookup 2 subtable" H
Substitution2: "'smcp' Lowercase to Small Capitals lookup 1 subtable" H.smcp
EndChar

StartChar: hbar
Encoding: 295 295 447
Width: 1186
VWidth: 1798
GlyphClass: 2
Flags: W
AnchorPoint: "Anchor-1" 588 -240 basechar 0
AnchorPoint: "Anchor-0" 501 1361 basechar 0
LayerCount: 2
Fore
SplineSet
700 1152 m 1,0,-1
 700 961 l 1,1,-1
 455 961 l 1,2,-1
 455 717 l 1,3,4
 506 781 506 781 576 816.5 c 128,-1,5
 646 852 646 852 731 852 c 0,6,7
 838 852 838 852 920 810 c 128,-1,8
 1002 768 1002 768 1048 673.5 c 128,-1,9
 1094 579 1094 579 1094 422 c 2,10,-1
 1094 -250 l 1,11,-1
 755 -250 l 1,12,-1
 755 424 l 2,13,14
 755 523 755 523 714.5 557.5 c 128,-1,15
 674 592 674 592 601 592 c 0,16,17
 546 592 546 592 511 575 c 128,-1,18
 476 558 476 558 455 527 c 1,19,-1
 455 -250 l 1,20,-1
 118 -250 l 1,21,-1
 118 961 l 1,22,-1
 -31 961 l 1,23,-1
 -31 1152 l 1,24,-1
 118 1152 l 1,25,-1
 118 1286 l 1,26,-1
 455 1286 l 1,27,-1
 455 1152 l 1,28,-1
 700 1152 l 1,0,-1
EndSplineSet
Substitution2: "'unic' Unicase lookup 2 subtable" Hbar
Substitution2: "'smcp' Lowercase to Small Capitals lookup 1 subtable" Hbar.smcp
EndChar

StartChar: hook
Encoding: 777 777 449
Width: 0
VWidth: 1798
GlyphClass: 4
Flags: W
AnchorPoint: "Anchor-3" -590 1471 basemark 0
AnchorPoint: "Anchor-3" -590 1024 mark 0
AnchorPoint: "Anchor-0" -590 1024 mark 0
LayerCount: 2
Fore
SplineSet
-493 1026 m 1,0,-1
 -750 1026 l 1,1,-1
 -773 1152 l 1,2,3
 -700 1155 -700 1155 -668 1170.5 c 128,-1,4
 -636 1186 -636 1186 -636 1215 c 0,5,6
 -636 1255 -636 1255 -673.5 1268 c 128,-1,7
 -711 1281 -711 1281 -770 1281 c 1,8,-1
 -763 1426 l 1,9,10
 -557 1426 -557 1426 -450.5 1373.5 c 128,-1,11
 -344 1321 -344 1321 -344 1229 c 0,12,13
 -344 1163 -344 1163 -391 1129.5 c 128,-1,14
 -438 1096 -438 1096 -494 1088 c 1,15,-1
 -493 1026 l 1,0,-1
EndSplineSet
EndChar

StartChar: hungarumlaut
Encoding: 733 733 450
Width: 884
VWidth: 1798
GlyphClass: 2
Flags: W
LayerCount: 2
Fore
SplineSet
429 985 m 1,0,-1
 654 1285 l 1,1,-1
 933 1285 l 1,2,-1
 667 985 l 1,3,-1
 429 985 l 1,0,-1
41 985 m 1,4,-1
 239 1285 l 1,5,-1
 518 1285 l 1,6,-1
 281 985 l 1,7,-1
 41 985 l 1,4,-1
EndSplineSet
EndChar

StartChar: hyphen
Encoding: 45 45 451
Width: 995
VWidth: 1798
GlyphClass: 2
Flags: W
LayerCount: 2
Fore
SplineSet
885 143 m 1,0,-1
 110 143 l 1,1,-1
 110 394 l 1,2,-1
 885 394 l 1,3,-1
 885 143 l 1,0,-1
EndSplineSet
EndChar

StartChar: hyphendot
Encoding: 8231 8231 453
Width: 601
GlyphClass: 2
Flags: W
LayerCount: 2
Fore
SplineSet
114 629 m 256,0,1
 114 701 114 701 166 747 c 128,-1,2
 218 793 218 793 301 793 c 256,3,4
 384 793 384 793 436 747 c 128,-1,5
 488 701 488 701 488 629 c 256,6,7
 488 557 488 557 436 511 c 128,-1,8
 384 465 384 465 301 465 c 256,9,10
 218 465 218 465 166 511 c 128,-1,11
 114 557 114 557 114 629 c 256,0,1
EndSplineSet
EndChar

StartChar: i
Encoding: 105 105 455
Width: 563
VWidth: 1798
GlyphClass: 2
Flags: W
AnchorPoint: "Anchor-1" 249 -240 basechar 0
AnchorPoint: "Anchor-0" 251 1350 basechar 0
LayerCount: 2
Fore
SplineSet
93 1111 m 256,0,1
 93 1183 93 1183 145 1229 c 128,-1,2
 197 1275 197 1275 280 1275 c 256,3,4
 363 1275 363 1275 415 1229 c 128,-1,5
 467 1183 467 1183 467 1111 c 256,6,7
 467 1039 467 1039 415 993 c 128,-1,8
 363 947 363 947 280 947 c 256,9,10
 197 947 197 947 145 993 c 128,-1,11
 93 1039 93 1039 93 1111 c 256,0,1
451 832 m 1,12,-1
 451 -250 l 1,13,-1
 113 -250 l 1,14,-1
 113 832 l 1,15,-1
 451 832 l 1,12,-1
EndSplineSet
Substitution2: "Single Substitution lookup 3 subtable" uni0069.ccmp
Substitution2: "'unic' Unicase lookup 2 subtable" I
Substitution2: "'smcp' Lowercase to Small Capitals lookup 1 subtable" I.smcp
EndChar

StartChar: infinity
Encoding: 8734 8734 463
Width: 2171
GlyphClass: 2
Flags: W
LayerCount: 2
Fore
SplineSet
94 532 m 2,0,-1
 94 549 l 2,1,2
 94 707 94 707 158 832 c 128,-1,3
 222 957 222 957 340 1029.5 c 128,-1,4
 458 1102 458 1102 620 1102 c 0,5,6
 788 1102 788 1102 902 1017.5 c 128,-1,7
 1016 933 1016 933 1085 818 c 1,8,9
 1154 933 1154 933 1268 1017.5 c 128,-1,10
 1382 1102 1382 1102 1550 1102 c 0,11,12
 1714 1102 1714 1102 1832 1029.5 c 128,-1,13
 1950 957 1950 957 2013.5 832 c 128,-1,14
 2077 707 2077 707 2077 549 c 2,15,-1
 2077 532 l 2,16,17
 2077 375 2077 375 2013.5 250 c 128,-1,18
 1950 125 1950 125 1831.5 52.5 c 128,-1,19
 1713 -20 1713 -20 1548 -20 c 0,20,21
 1436 -20 1436 -20 1349 21 c 128,-1,22
 1262 62 1262 62 1196.5 130 c 128,-1,23
 1131 198 1131 198 1085 277 c 1,24,25
 1039 198 1039 198 973.5 130 c 128,-1,26
 908 62 908 62 821 21 c 128,-1,27
 734 -20 734 -20 622 -20 c 0,28,29
 459 -20 459 -20 340.5 52.5 c 128,-1,30
 222 125 222 125 158 250 c 128,-1,31
 94 375 94 375 94 532 c 2,0,-1
420 549 m 2,32,-1
 420 532 l 2,33,34
 420 411 420 411 477.5 330.5 c 128,-1,35
 535 250 535 250 645 250 c 0,36,37
 714 250 714 250 764.5 288 c 128,-1,38
 815 326 815 326 849 378.5 c 128,-1,39
 883 431 883 431 900 477 c 128,-1,40
 917 523 917 523 918 539 c 2,41,-1
 918 562 l 2,42,43
 917 577 917 577 900 620 c 128,-1,44
 883 663 883 663 850 712 c 128,-1,45
 817 761 817 761 765.5 796.5 c 128,-1,46
 714 832 714 832 643 832 c 0,47,48
 535 832 535 832 477.5 749.5 c 128,-1,49
 420 667 420 667 420 549 c 2,32,-1
1750 532 m 2,50,-1
 1750 549 l 2,51,52
 1750 667 1750 667 1693 749.5 c 128,-1,53
 1636 832 1636 832 1527 832 c 0,54,55
 1456 832 1456 832 1404.5 796.5 c 128,-1,56
 1353 761 1353 761 1320 712 c 128,-1,57
 1287 663 1287 663 1270.5 620 c 128,-1,58
 1254 577 1254 577 1252 562 c 2,59,-1
 1252 539 l 2,60,61
 1253 523 1253 523 1270 477 c 128,-1,62
 1287 431 1287 431 1320.5 378.5 c 128,-1,63
 1354 326 1354 326 1405 288 c 128,-1,64
 1456 250 1456 250 1525 250 c 0,65,66
 1634 250 1634 250 1692 330.5 c 128,-1,67
 1750 411 1750 411 1750 532 c 2,50,-1
EndSplineSet
EndChar

StartChar: integral
Encoding: 8747 8747 464
Width: 627
GlyphClass: 2
Flags: W
LayerCount: 2
Fore
SplineSet
467 -25 m 2,0,1
 467 -230 467 -230 357.5 -333.5 c 128,-1,2
 248 -437 248 -437 57 -437 c 0,3,4
 15 -437 15 -437 -22 -433.5 c 128,-1,5
 -59 -430 -59 -430 -102 -420 c 1,6,-1
 -88 -165 l 1,7,8
 -65 -170 -65 -170 -48 -173.5 c 128,-1,9
 -31 -177 -31 -177 3 -177 c 0,10,11
 66 -177 66 -177 97.5 -141 c 128,-1,12
 129 -105 129 -105 129 -25 c 2,13,-1
 129 1171 l 2,14,15
 129 1359 129 1359 242 1458.5 c 128,-1,16
 355 1558 355 1558 557 1558 c 0,17,18
 599 1558 599 1558 640 1552 c 128,-1,19
 681 1546 681 1546 724 1537 c 1,20,-1
 700 1288 l 1,21,22
 676 1293 676 1293 654.5 1295.5 c 128,-1,23
 633 1298 633 1298 599 1298 c 0,24,25
 467 1298 467 1298 467 1171 c 2,26,-1
 467 -25 l 2,0,1
EndSplineSet
EndChar

StartChar: j
Encoding: 106 106 467
Width: 554
VWidth: 1798
GlyphClass: 2
Flags: W
AnchorPoint: "Anchor-1" 190 -709 basechar 0
AnchorPoint: "Anchor-0" 223 1350 basechar 0
LayerCount: 2
Fore
SplineSet
95 1111 m 256,0,1
 95 1183 95 1183 147 1229 c 128,-1,2
 199 1275 199 1275 282 1275 c 256,3,4
 365 1275 365 1275 417 1229 c 128,-1,5
 469 1183 469 1183 469 1111 c 256,6,7
 469 1039 469 1039 417 993 c 128,-1,8
 365 947 365 947 282 947 c 256,9,10
 199 947 199 947 147 993 c 128,-1,11
 95 1039 95 1039 95 1111 c 256,0,1
120 832 m 1,12,-1
 458 832 l 1,13,-1
 458 -285 l 2,14,15
 458 -480 458 -480 347 -583.5 c 128,-1,16
 236 -687 236 -687 43 -687 c 0,17,18
 0 -687 0 -687 -36.5 -683.5 c 128,-1,19
 -73 -680 -73 -680 -117 -670 c 1,20,-1
 -117 -415 l 1,21,22
 -91 -419 -91 -419 -69 -421.5 c 128,-1,23
 -47 -424 -47 -424 -21 -424 c 0,24,25
 120 -424 120 -424 120 -285 c 2,26,-1
 120 832 l 1,12,-1
EndSplineSet
Substitution2: "Single Substitution lookup 3 subtable" uni006A.ccmp
Substitution2: "'unic' Unicase lookup 2 subtable" J
Substitution2: "'smcp' Lowercase to Small Capitals lookup 1 subtable" J.smcp
EndChar

StartChar: k
Encoding: 107 107 469
Width: 1120
VWidth: 1798
GlyphClass: 2
Flags: W
AnchorPoint: "Anchor-1" 529 -179 basechar 0
AnchorPoint: "Anchor-0" 549 1361 basechar 0
LayerCount: 2
Fore
SplineSet
766 -250 m 1,0,-1
 529 153 l 1,1,-1
 435 59 l 1,2,-1
 435 -250 l 1,3,-1
 98 -250 l 1,4,-1
 98 1287 l 1,5,-1
 435 1287 l 1,6,-1
 435 472 l 1,7,-1
 469 516 l 1,8,-1
 723 832 l 1,9,-1
 1127 832 l 1,10,-1
 747 387 l 1,11,-1
 1152 -250 l 1,12,-1
 766 -250 l 1,0,-1
EndSplineSet
Substitution2: "'unic' Unicase lookup 2 subtable" K
Substitution2: "'smcp' Lowercase to Small Capitals lookup 1 subtable" K.smcp
EndChar

StartChar: kgreenlandic
Encoding: 312 312 471
Width: 1243
VWidth: 1798
GlyphClass: 2
Flags: W
AnchorPoint: "Anchor-1" 590 -240 basechar 0
AnchorPoint: "Anchor-0" 590 1040 basechar 0
LayerCount: 2
Fore
SplineSet
777 -250 m 1,0,-1
 576 128 l 1,1,-1
 455 128 l 1,2,-1
 455 -250 l 1,3,-1
 118 -250 l 1,4,-1
 118 832 l 1,5,-1
 455 832 l 1,6,-1
 455 443 l 1,7,-1
 545 443 l 1,8,-1
 770 832 l 1,9,-1
 1203 832 l 1,10,-1
 860 326 l 1,11,-1
 1211 -250 l 1,12,-1
 777 -250 l 1,0,-1
EndSplineSet
EndChar

StartChar: l
Encoding: 108 108 472
Width: 563
VWidth: 1798
GlyphClass: 2
Flags: W
AnchorPoint: "Anchor-1" 249 -240 basechar 0
AnchorPoint: "Anchor-0" 249 1447 basechar 0
LayerCount: 2
Fore
SplineSet
451 1286 m 1,0,-1
 451 -250 l 1,1,-1
 113 -250 l 1,2,-1
 113 1286 l 1,3,-1
 451 1286 l 1,0,-1
EndSplineSet
Substitution2: "'unic' Unicase lookup 2 subtable" L
Substitution2: "'smcp' Lowercase to Small Capitals lookup 1 subtable" L.smcp
EndChar

StartChar: less
Encoding: 60 60 478
Width: 1045
VWidth: 1798
GlyphClass: 2
Flags: W
LayerCount: 2
Fore
SplineSet
931 548 m 1,0,-1
 384 360 l 1,1,-1
 931 175 l 1,2,-1
 931 -132 l 1,3,-1
 46 228 l 1,4,-1
 46 494 l 1,5,-1
 931 854 l 1,6,-1
 931 548 l 1,0,-1
EndSplineSet
EndChar

StartChar: lessequal
Encoding: 8804 8804 479
Width: 1045
GlyphClass: 2
Flags: W
LayerCount: 2
Fore
SplineSet
931 860 m 1,0,-1
 384 708 l 1,1,-1
 931 558 l 1,2,-1
 931 310 l 1,3,-1
 46 601 l 1,4,-1
 46 817 l 1,5,-1
 931 1108 l 1,6,-1
 931 860 l 1,0,-1
939 241 m 1,7,-1
 939 1 l 1,8,-1
 60 1 l 1,9,-1
 60 241 l 1,10,-1
 939 241 l 1,7,-1
EndSplineSet
EndChar

StartChar: lira
Encoding: 8356 8356 480
Width: 1230
GlyphClass: 2
Flags: W
LayerCount: 2
Fore
SplineSet
866 638 m 1,0,-1
 866 468 l 1,1,-1
 626 468 l 1,2,-1
 627 449 l 2,3,4
 627 393 627 393 613.5 349 c 128,-1,5
 600 305 600 305 568 270 c 1,6,-1
 1175 270 l 1,7,-1
 1176 0 l 1,8,-1
 106 0 l 1,9,-1
 106 270 l 1,10,-1
 210 270 l 1,11,12
 254 281 254 281 262 326 c 128,-1,13
 270 371 270 371 270 426 c 2,14,-1
 269 468 l 1,15,-1
 109 468 l 1,16,-1
 109 638 l 1,17,-1
 264 638 l 1,18,-1
 261 740 l 1,19,-1
 109 740 l 1,20,-1
 109 909 l 1,21,-1
 256 909 l 1,22,-1
 252 1039 l 1,23,24
 252 1246 252 1246 375.5 1360.5 c 128,-1,25
 499 1475 499 1475 706 1475 c 0,26,27
 936 1475 936 1475 1058 1357.5 c 128,-1,28
 1180 1240 1180 1240 1180 1048 c 1,29,-1
 851 1048 l 1,30,31
 851 1137 851 1137 810.5 1171 c 128,-1,32
 770 1205 770 1205 714 1205 c 0,33,34
 662 1205 662 1205 631.5 1164 c 128,-1,35
 601 1123 601 1123 601 1039 c 2,36,-1
 607 909 l 1,37,-1
 866 909 l 1,38,-1
 866 740 l 1,39,-1
 614 740 l 1,40,-1
 619 638 l 1,41,-1
 866 638 l 1,0,-1
EndSplineSet
Substitution2: "'c2sc' Capitals to Small Capitals lookup 0 subtable" lira.smcp
Position2: "'cpsp' Capital Spacing lookup 0 subtable" dx=36 dy=0 dh=72 dv=0
EndChar

StartChar: lira.smcp
Encoding: 65749 -1 481
Width: 1217
GlyphClass: 2
Flags: W
LayerCount: 2
Fore
SplineSet
918 492 m 1,0,-1
 918 309 l 1,1,-1
 512 309 l 1,2,3
 491 283 491 283 464 260 c 1,4,-1
 1126 260 l 1,5,-1
 1126 0 l 1,6,-1
 144 0 l 1,7,-1
 144 260 l 1,8,-1
 154 260 l 1,9,10
 188 269 188 269 208 309 c 1,11,-1
 73 309 l 1,12,-1
 73 492 l 1,13,-1
 235 492 l 1,14,15
 235 497 235 497 235 503 c 2,16,-1
 234 549 l 1,17,-1
 73 549 l 1,18,-1
 73 732 l 1,19,-1
 228 732 l 1,20,21
 223 945 223 945 342 1063 c 128,-1,22
 461 1181 461 1181 667 1181 c 0,23,24
 895 1181 895 1181 1006.5 1072.5 c 128,-1,25
 1118 964 1118 964 1118 787 c 1,26,-1
 779 787 l 1,27,28
 779 863 779 863 751.5 893.5 c 128,-1,29
 724 924 724 924 671 924 c 0,30,31
 614 924 614 924 586.5 874 c 128,-1,32
 559 824 559 824 565 732 c 1,33,-1
 918 732 l 1,34,-1
 918 549 l 1,35,-1
 576 549 l 1,36,-1
 578 524 l 2,37,38
 579 508 579 508 579 492 c 1,39,-1
 918 492 l 1,0,-1
EndSplineSet
EndChar

StartChar: logicalnot
Encoding: 172 172 482
Width: 1125
VWidth: 1798
GlyphClass: 2
Flags: W
LayerCount: 2
Fore
SplineSet
961 555 m 1,0,-1
 961 124 l 1,1,-1
 761 124 l 1,2,-1
 761 384 l 1,3,-1
 126 384 l 1,4,-1
 126 555 l 1,5,-1
 961 555 l 1,0,-1
EndSplineSet
EndChar

StartChar: longs
Encoding: 383 383 483
Width: 539
VWidth: 1798
GlyphClass: 2
Flags: W
AnchorPoint: "Anchor-1" 248 -240 basechar 0
AnchorPoint: "Anchor-0" 428 1504 basechar 0
LayerCount: 2
Fore
SplineSet
432 -250 m 1,0,-1
 95 -250 l 1,1,-1
 95 920 l 2,2,3
 95 1108 95 1108 207.5 1207.5 c 128,-1,4
 320 1307 320 1307 522 1307 c 0,5,6
 565 1307 565 1307 606 1301 c 128,-1,7
 647 1295 647 1295 690 1286 c 1,8,-1
 666 1037 l 1,9,10
 642 1042 642 1042 620 1044.5 c 128,-1,11
 598 1047 598 1047 564 1047 c 0,12,13
 432 1047 432 1047 432 920 c 2,14,-1
 432 -250 l 1,0,-1
EndSplineSet
EndChar

StartChar: longst
Encoding: 65750 -1 484
Width: 1353
GlyphClass: 3
Flags: W
LayerCount: 2
Fore
SplineSet
597 1557 m 0,0,1
 765 1557 765 1557 902 1520 c 128,-1,2
 1039 1483 1039 1483 1139 1449 c 1,3,-1
 1139 1082 l 1,4,-1
 1316 1082 l 1,5,-1
 1316 848 l 1,6,-1
 1139 848 l 1,7,-1
 1139 353 l 2,8,9
 1139 289 1139 289 1162.5 266.5 c 128,-1,10
 1186 244 1186 244 1248 244 c 0,11,12
 1277 244 1277 244 1296 245.5 c 128,-1,13
 1315 247 1315 247 1332 250 c 1,14,-1
 1332 9 l 1,15,16
 1243 -20 1243 -20 1142 -20 c 0,17,18
 979 -20 979 -20 890 57.5 c 128,-1,19
 801 135 801 135 801 311 c 2,20,-1
 801 848 l 1,21,-1
 664 848 l 1,22,-1
 664 1082 l 1,23,-1
 801 1082 l 1,24,-1
 801 1272 l 1,25,26
 785 1280 785 1280 742.5 1288.5 c 128,-1,27
 700 1297 700 1297 639 1297 c 0,28,29
 507 1297 507 1297 507 1170 c 2,30,-1
 507 0 l 1,31,-1
 169 0 l 1,32,-1
 169 848 l 1,33,-1
 13 848 l 1,34,-1
 13 1082 l 1,35,-1
 169 1082 l 1,36,-1
 169 1170 l 2,37,38
 169 1358 169 1358 282 1457.5 c 128,-1,39
 395 1557 395 1557 597 1557 c 0,0,1
EndSplineSet
Ligature2: "'dlig' Discretionary Ligatures lookup 12 subtable" longs t
EndChar

StartChar: lozenge
Encoding: 9674 9674 485
Width: 1048
GlyphClass: 2
Flags: W
LayerCount: 2
Fore
SplineSet
26 727 m 1,0,-1
 378 1456 l 1,1,-1
 677 1456 l 1,2,-1
 1028 727 l 1,3,-1
 676 0 l 1,4,-1
 378 0 l 1,5,-1
 26 727 l 1,0,-1
359 727 m 1,6,-1
 528 342 l 1,7,-1
 695 727 l 1,8,-1
 529 1116 l 1,9,-1
 359 727 l 1,6,-1
EndSplineSet
EndChar

StartChar: lslash
Encoding: 322 322 486
Width: 663
VWidth: 1798
GlyphClass: 2
Flags: W
AnchorPoint: "Anchor-1" 280 -240 basechar 0
AnchorPoint: "Anchor-0" 280 1447 basechar 0
LayerCount: 2
Fore
SplineSet
629 717 m 1,0,-1
 629 537 l 1,1,-1
 495 495 l 1,2,-1
 495 -250 l 1,3,-1
 156 -250 l 1,4,-1
 156 390 l 1,5,-1
 27 350 l 1,6,-1
 27 530 l 1,7,-1
 156 570 l 1,8,-1
 156 1286 l 1,9,-1
 495 1286 l 1,10,-1
 495 675 l 1,11,-1
 629 717 l 1,0,-1
EndSplineSet
Substitution2: "'smcp' Lowercase to Small Capitals lookup 1 subtable" Lslash.smcp
EndChar

StartChar: m
Encoding: 109 109 487
Width: 1764
VWidth: 1798
GlyphClass: 2
Flags: W
AnchorPoint: "Anchor-1" 897 -240 basechar 0
AnchorPoint: "Anchor-0" 911 1040 basechar 0
LayerCount: 2
Fore
SplineSet
582 592 m 0,0,1
 534 592 534 592 496.5 568 c 128,-1,2
 459 544 459 544 435 503 c 1,3,-1
 435 -250 l 1,4,-1
 98 -250 l 1,5,-1
 98 832 l 1,6,-1
 414 832 l 1,7,-1
 426 705 l 1,8,9
 478 774 478 774 555.5 813 c 128,-1,10
 633 852 633 852 734 852 c 0,11,12
 829 852 829 852 900.5 813 c 128,-1,13
 972 774 972 774 1011 689 c 1,14,15
 1062 765 1062 765 1141.5 808.5 c 128,-1,16
 1221 852 1221 852 1328 852 c 0,17,18
 1427 852 1427 852 1503.5 812 c 128,-1,19
 1580 772 1580 772 1623 680 c 128,-1,20
 1666 588 1666 588 1666 431 c 2,21,-1
 1666 -250 l 1,22,-1
 1328 -250 l 1,23,-1
 1328 431 l 2,24,25
 1328 532 1328 532 1293.5 562 c 128,-1,26
 1259 592 1259 592 1199 592 c 0,27,28
 1147 592 1147 592 1109.5 568.5 c 128,-1,29
 1072 545 1072 545 1049 503 c 1,30,31
 1050 488 1050 488 1050 472 c 2,32,-1
 1050 -250 l 1,33,-1
 713 -250 l 1,34,-1
 713 429 l 2,35,36
 713 532 713 532 678.5 562 c 128,-1,37
 644 592 644 592 582 592 c 0,0,1
EndSplineSet
Substitution2: "'unic' Unicase lookup 2 subtable" M.unic
Substitution2: "'smcp' Lowercase to Small Capitals lookup 1 subtable" M.smcp
EndChar

StartChar: macron
Encoding: 175 175 488
Width: 1066
VWidth: 1798
GlyphClass: 2
Flags: W
LayerCount: 2
Fore
SplineSet
875 1208 m 1,0,-1
 875 1035 l 1,1,-1
 181 1035 l 1,2,-1
 181 1208 l 1,3,-1
 875 1208 l 1,0,-1
EndSplineSet
EndChar

StartChar: mu
Encoding: 181 181 491
Width: 1314
VWidth: 1798
GlyphClass: 2
Flags: W
LayerCount: 2
Fore
SplineSet
133 832 m 1,0,-1
 470 832 l 1,1,-1
 470 212 l 2,2,3
 470 78 470 78 513.5 35.5 c 128,-1,4
 557 -7 557 -7 634 -7 c 0,5,6
 701 -7 701 -7 745 17.5 c 128,-1,7
 789 42 789 42 814 84 c 1,8,-1
 814 832 l 1,9,-1
 1152 832 l 1,10,-1
 1152 -250 l 1,11,-1
 834 -250 l 1,12,-1
 830 -197 l 1,13,14
 742 -271 742 -271 619 -271 c 0,15,16
 534 -271 534 -271 470 -236 c 1,17,-1
 470 -666 l 1,18,-1
 133 -666 l 1,19,-1
 133 832 l 1,0,-1
EndSplineSet
EndChar

StartChar: multiply
Encoding: 215 215 492
Width: 1088
VWidth: 1798
GlyphClass: 2
Flags: W
LayerCount: 2
Fore
SplineSet
367 265 m 1,0,-1
 102 536 l 1,1,-1
 277 717 l 1,2,-1
 544 446 l 1,3,-1
 811 717 l 1,4,-1
 986 536 l 1,5,-1
 721 265 l 1,6,-1
 988 -7 l 1,7,-1
 812 -188 l 1,8,-1
 544 85 l 1,9,-1
 276 -188 l 1,10,-1
 100 -7 l 1,11,-1
 367 265 l 1,0,-1
EndSplineSet
EndChar

StartChar: n
Encoding: 110 110 493
Width: 1156
VWidth: 1798
GlyphClass: 2
Flags: W
AnchorPoint: "Anchor-1" 563 -240 basechar 0
AnchorPoint: "Anchor-0" 573 1040 basechar 0
LayerCount: 2
Fore
SplineSet
572 592 m 0,0,1
 519 592 519 592 483.5 571.5 c 128,-1,2
 448 551 448 551 426 515 c 1,3,-1
 426 -250 l 1,4,-1
 89 -250 l 1,5,-1
 89 832 l 1,6,-1
 405 832 l 1,7,-1
 416 706 l 1,8,9
 529 852 529 852 724 852 c 0,10,11
 825 852 825 852 901.5 812 c 128,-1,12
 978 772 978 772 1021 680 c 128,-1,13
 1064 588 1064 588 1064 431 c 2,14,-1
 1064 -250 l 1,15,-1
 725 -250 l 1,16,-1
 725 432 l 2,17,18
 725 530 725 530 685 561 c 128,-1,19
 645 592 645 592 572 592 c 0,0,1
EndSplineSet
Substitution2: "'unic' Unicase lookup 2 subtable" N.unic
Substitution2: "'smcp' Lowercase to Small Capitals lookup 1 subtable" N.smcp
EndChar

StartChar: naira
Encoding: 8358 8358 495
Width: 1686
GlyphClass: 2
Flags: W
LayerCount: 2
Fore
SplineSet
1645 673 m 1,0,-1
 1645 513 l 1,1,-1
 1450 513 l 1,2,-1
 1450 0 l 1,3,-1
 1101 0 l 1,4,-1
 809 513 l 1,5,-1
 585 513 l 1,6,-1
 585 0 l 1,7,-1
 234 0 l 1,8,-1
 234 513 l 1,9,-1
 41 513 l 1,10,-1
 41 673 l 1,11,-1
 234 673 l 1,12,-1
 234 843 l 1,13,-1
 41 843 l 1,14,-1
 41 1003 l 1,15,-1
 234 1003 l 1,16,-1
 234 1456 l 1,17,-1
 585 1456 l 1,18,-1
 843 1003 l 1,19,-1
 1100 1003 l 1,20,-1
 1100 1456 l 1,21,-1
 1450 1456 l 1,22,-1
 1450 1003 l 1,23,-1
 1645 1003 l 1,24,-1
 1645 843 l 1,25,-1
 1450 843 l 1,26,-1
 1450 673 l 1,27,-1
 1645 673 l 1,0,-1
585 673 m 1,28,-1
 718 673 l 1,29,-1
 621 843 l 1,30,-1
 585 843 l 1,31,-1
 585 673 l 1,28,-1
1030 673 m 1,32,-1
 1100 673 l 1,33,-1
 1100 843 l 1,34,-1
 933 843 l 1,35,-1
 1030 673 l 1,32,-1
EndSplineSet
EndChar

StartChar: nine
Encoding: 57 57 500
Width: 1187
VWidth: 1798
GlyphClass: 2
Flags: W
LayerCount: 2
Fore
SplineSet
303 0 m 1,0,-1
 323 0 l 2,1,2
 503 0 503 0 617 72.5 c 128,-1,3
 731 145 731 145 753 313 c 1,4,5
 704 269 704 269 641 242 c 128,-1,6
 578 215 578 215 509 215 c 0,7,8
 377 215 377 215 280.5 276.5 c 128,-1,9
 184 338 184 338 132 448.5 c 128,-1,10
 80 559 80 559 80 707 c 0,11,12
 80 849 80 849 145 967 c 128,-1,13
 210 1085 210 1085 324.5 1156 c 128,-1,14
 439 1227 439 1227 587 1227 c 0,15,16
 727 1227 727 1227 842.5 1157.5 c 128,-1,17
 958 1088 958 1088 1027 955 c 128,-1,18
 1096 822 1096 822 1096 631 c 2,19,-1
 1096 515 l 2,20,21
 1096 256 1096 256 994 81.5 c 128,-1,22
 892 -93 892 -93 718 -181.5 c 128,-1,23
 544 -270 544 -270 329 -270 c 2,24,-1
 303 -270 l 1,25,-1
 303 0 l 1,0,-1
418 707 m 0,26,27
 418 601 418 601 463.5 529.5 c 128,-1,28
 509 458 509 458 601 458 c 0,29,30
 660 458 660 458 699 485.5 c 128,-1,31
 738 513 738 513 758 552 c 1,32,-1
 758 693 l 2,33,34
 758 833 758 833 711 900 c 128,-1,35
 664 967 664 967 584 967 c 0,36,37
 531 967 531 967 494 928.5 c 128,-1,38
 457 890 457 890 437.5 830 c 128,-1,39
 418 770 418 770 418 707 c 0,26,27
EndSplineSet
Substitution2: "'ss01' Style Set 1 lookup 35 subtable" uni06F9
Substitution2: "'numr' Numerators lookup 21 subtable" nine.frac
Substitution2: "'dnom' Denominators lookup 20 subtable" nine.sup
Substitution2: "'frac' Diagonal Fractions lookup 19 subtable" nine.frac
Substitution2: "Single Substitution lookup 18 subtable" nine.sup
Substitution2: "'onum' Oldstyle Figures lookup 14 subtable" nine.tnum
Substitution2: "'c2sc' Capitals to Small Capitals lookup 0 subtable" nine.smcp
Position2: "'cpsp' Capital Spacing lookup 0 subtable" dx=36 dy=0 dh=72 dv=0
EndChar

StartChar: nine.onum
Encoding: 65752 -1 502
Width: 1179
GlyphClass: 1
Flags: W
LayerCount: 2
Fore
SplineSet
506 -54 m 0,0,1
 622 -54 622 -54 690 17.5 c 128,-1,2
 758 89 758 89 781 247 c 1,3,4
 662 162 662 162 498 162 c 0,5,6
 299 162 299 162 187.5 297.5 c 128,-1,7
 76 433 76 433 76 664 c 0,8,9
 76 806 76 806 139.5 924 c 128,-1,10
 203 1042 203 1042 316.5 1113 c 128,-1,11
 430 1184 430 1184 581 1184 c 0,12,13
 736 1184 736 1184 860.5 1117 c 128,-1,14
 985 1050 985 1050 1058 921.5 c 128,-1,15
 1131 793 1131 793 1131 608 c 2,16,-1
 1131 462 l 2,17,18
 1131 198 1131 198 1054 26 c 128,-1,19
 977 -146 977 -146 845 -230 c 128,-1,20
 713 -314 713 -314 548 -314 c 0,21,22
 466 -314 466 -314 388 -296.5 c 128,-1,23
 310 -279 310 -279 231 -251 c 1,24,-1
 293 -10 l 1,25,26
 341 -27 341 -27 391 -40.5 c 128,-1,27
 441 -54 441 -54 506 -54 c 0,0,1
413 664 m 0,28,29
 413 549 413 549 457 477 c 128,-1,30
 501 405 501 405 593 405 c 0,31,32
 659 405 659 405 709 422.5 c 128,-1,33
 759 440 759 440 793 467 c 1,34,-1
 793 650 l 2,35,36
 793 790 793 790 738 857 c 128,-1,37
 683 924 683 924 603 924 c 0,38,39
 542 924 542 924 499.5 885.5 c 128,-1,40
 457 847 457 847 435 787 c 128,-1,41
 413 727 413 727 413 664 c 0,28,29
EndSplineSet
EndChar

StartChar: nine.smcp
Encoding: 65753 -1 503
Width: 1076
GlyphClass: 2
Flags: W
LayerCount: 2
Fore
SplineSet
294 236 m 1,0,-1
 314 236 l 2,1,2
 401 236 401 236 473 247.5 c 128,-1,3
 545 259 545 259 594 301.5 c 128,-1,4
 643 344 643 344 659 438 c 1,5,6
 615 406 615 406 562 387.5 c 128,-1,7
 509 369 509 369 456 369 c 0,8,9
 282 369 282 369 174 462 c 128,-1,10
 66 555 66 555 66 756 c 0,11,12
 66 872 66 872 128 968.5 c 128,-1,13
 190 1065 190 1065 296.5 1123.5 c 128,-1,14
 403 1182 403 1182 536 1182 c 0,15,16
 655 1182 655 1182 761.5 1136 c 128,-1,17
 868 1090 868 1090 935.5 985 c 128,-1,18
 1003 880 1003 880 1003 702 c 2,19,-1
 1003 619 l 2,20,21
 1003 423 1003 423 945 298 c 128,-1,22
 887 173 887 173 789 103.5 c 128,-1,23
 691 34 691 34 569 7 c 128,-1,24
 447 -20 447 -20 319 -20 c 2,25,-1
 294 -20 l 1,26,-1
 294 236 l 1,0,-1
405 750 m 0,27,28
 405 606 405 606 553 606 c 0,29,30
 596 606 596 606 623.5 618.5 c 128,-1,31
 651 631 651 631 666 647 c 1,32,-1
 666 770 l 2,33,34
 666 854 666 854 634 888 c 128,-1,35
 602 922 602 922 536 922 c 0,36,37
 475 922 475 922 440 871.5 c 128,-1,38
 405 821 405 821 405 750 c 0,27,28
EndSplineSet
EndChar

StartChar: nine.sup
Encoding: 65754 -1 504
Width: 768
GlyphClass: 2
Flags: W
LayerCount: 2
Fore
SplineSet
219 160 m 1,0,-1
 232 160 l 2,1,2
 293 160 293 160 342.5 167.5 c 128,-1,3
 392 175 392 175 425 204 c 128,-1,4
 458 233 458 233 468 297 c 1,5,6
 404 250 404 250 330 250 c 0,7,8
 211 250 211 250 138 313 c 128,-1,9
 65 376 65 376 65 512 c 0,10,11
 65 591 65 591 107 656.5 c 128,-1,12
 149 722 149 722 220.5 761.5 c 128,-1,13
 292 801 292 801 382 801 c 0,14,15
 464 801 464 801 536 769.5 c 128,-1,16
 608 738 608 738 653 667 c 128,-1,17
 698 596 698 596 698 476 c 2,18,-1
 698 419 l 2,19,20
 698 287 698 287 659.5 202 c 128,-1,21
 621 117 621 117 555.5 70 c 128,-1,22
 490 23 490 23 407 4.5 c 128,-1,23
 324 -14 324 -14 235 -14 c 2,24,-1
 219 -14 l 1,25,-1
 219 160 l 1,0,-1
291 508 m 0,26,27
 291 411 291 411 394 411 c 0,28,29
 424 411 424 411 443.5 420 c 128,-1,30
 463 429 463 429 473 440 c 1,31,-1
 473 522 l 2,32,33
 473 579 473 579 450.5 602 c 128,-1,34
 428 625 428 625 382 625 c 0,35,36
 339 625 339 625 315 590.5 c 128,-1,37
 291 556 291 556 291 508 c 0,26,27
EndSplineSet
EndChar

StartChar: notequal
Encoding: 8800 8800 506
Width: 1200
GlyphClass: 2
Flags: W
LayerCount: 2
Fore
SplineSet
1055 543 m 1,0,-1
 1055 283 l 1,1,-1
 491 283 l 1,2,-1
 385 76 l 1,3,-1
 255 138 l 1,4,-1
 330 283 l 1,5,-1
 128 283 l 1,6,-1
 128 543 l 1,7,-1
 463 543 l 1,8,-1
 555 722 l 1,9,-1
 128 722 l 1,10,-1
 128 982 l 1,11,-1
 689 982 l 1,12,-1
 790 1178 l 1,13,-1
 919 1115 l 1,14,-1
 851 982 l 1,15,-1
 1055 982 l 1,16,-1
 1055 722 l 1,17,-1
 717 722 l 1,18,-1
 625 543 l 1,19,-1
 1055 543 l 1,0,-1
EndSplineSet
EndChar

StartChar: nsuperior
Encoding: 8319 8319 507
Width: 852
GlyphClass: 2
Flags: W
LayerCount: 2
Fore
SplineSet
427 1272 m 0,0,1
 378 1272 378 1272 346.5 1252.5 c 128,-1,2
 315 1233 315 1233 298 1200 c 1,3,-1
 298 655 l 1,4,-1
 69 655 l 1,5,-1
 69 1456 l 1,6,-1
 253 1456 l 1,7,-1
 285 1332 l 1,8,9
 321 1395 321 1395 378 1430.5 c 128,-1,10
 435 1466 435 1466 512 1466 c 0,11,12
 639 1466 639 1466 709 1393.5 c 128,-1,13
 779 1321 779 1321 779 1159 c 2,14,-1
 779 655 l 1,15,-1
 551 655 l 1,16,-1
 551 1083 l 2,17,18
 551 1188 551 1188 520 1230 c 128,-1,19
 489 1272 489 1272 427 1272 c 0,0,1
EndSplineSet
EndChar

StartChar: numbersign
Encoding: 35 35 509
Width: 1190
VWidth: 1798
GlyphClass: 2
Flags: W
LayerCount: 2
Fore
SplineSet
185 -250 m 1,0,-1
 253 160 l 1,1,-1
 30 160 l 1,2,-1
 30 343 l 1,3,-1
 283 343 l 1,4,-1
 326 607 l 1,5,-1
 105 607 l 1,6,-1
 105 790 l 1,7,-1
 356 790 l 1,8,-1
 425 1206 l 1,9,-1
 623 1206 l 1,10,-1
 555 790 l 1,11,-1
 716 790 l 1,12,-1
 785 1206 l 1,13,-1
 984 1206 l 1,14,-1
 915 790 l 1,15,-1
 1146 790 l 1,16,-1
 1146 607 l 1,17,-1
 885 607 l 1,18,-1
 842 343 l 1,19,-1
 1070 343 l 1,20,-1
 1070 160 l 1,21,-1
 812 160 l 1,22,-1
 744 -250 l 1,23,-1
 545 -250 l 1,24,-1
 613 160 l 1,25,-1
 451 160 l 1,26,-1
 384 -250 l 1,27,-1
 185 -250 l 1,0,-1
481 343 m 1,28,-1
 643 343 l 1,29,-1
 686 607 l 1,30,-1
 525 607 l 1,31,-1
 481 343 l 1,28,-1
EndSplineSet
EndChar

StartChar: o
Encoding: 111 111 510
Width: 1151
VWidth: 1798
GlyphClass: 2
Flags: W
AnchorPoint: "Anchor-1" 584 -251 basechar 0
AnchorPoint: "Anchor-0" 575 1040 basechar 0
LayerCount: 2
Fore
SplineSet
53 280 m 2,0,-1
 53 301 l 2,1,2
 53 459 53 459 113 583.5 c 128,-1,3
 173 708 173 708 289 780 c 128,-1,4
 405 852 405 852 574 852 c 0,5,6
 744 852 744 852 860.5 780 c 128,-1,7
 977 708 977 708 1037 583.5 c 128,-1,8
 1097 459 1097 459 1097 301 c 2,9,-1
 1097 280 l 2,10,11
 1097 122 1097 122 1037 -2.5 c 128,-1,12
 977 -127 977 -127 861 -198.5 c 128,-1,13
 745 -270 745 -270 576 -270 c 0,14,15
 406 -270 406 -270 289.5 -198.5 c 128,-1,16
 173 -127 173 -127 113 -2.5 c 128,-1,17
 53 122 53 122 53 280 c 2,0,-1
390 301 m 2,18,-1
 390 280 l 2,19,20
 390 199 390 199 406.5 133 c 128,-1,21
 423 67 423 67 463 28.5 c 128,-1,22
 503 -10 503 -10 576 -10 c 0,23,24
 683 -10 683 -10 721.5 74 c 128,-1,25
 760 158 760 158 760 280 c 2,26,-1
 760 301 l 2,27,28
 760 380 760 380 743.5 446 c 128,-1,29
 727 512 727 512 687 552 c 128,-1,30
 647 592 647 592 574 592 c 0,31,32
 503 592 503 592 463 552 c 128,-1,33
 423 512 423 512 406.5 446 c 128,-1,34
 390 380 390 380 390 301 c 2,18,-1
EndSplineSet
Substitution2: "'unic' Unicase lookup 2 subtable" O
Substitution2: "'smcp' Lowercase to Small Capitals lookup 1 subtable" O.smcp
EndChar

StartChar: oe
Encoding: 339 339 515
Width: 1845
VWidth: 1798
GlyphClass: 2
Flags: W
AnchorPoint: "Anchor-1" 945 -251 basechar 0
AnchorPoint: "Anchor-0" 945 1040 basechar 0
LayerCount: 2
Fore
SplineSet
76 280 m 2,0,-1
 76 301 l 2,1,2
 76 459 76 459 136 583.5 c 128,-1,3
 196 708 196 708 312.5 780 c 128,-1,4
 429 852 429 852 598 852 c 0,5,6
 711 852 711 852 800.5 819.5 c 128,-1,7
 890 787 890 787 955 728 c 1,8,9
 1016 787 1016 787 1101 820 c 128,-1,10
 1186 853 1186 853 1295 852 c 0,11,12
 1516 852 1516 852 1640.5 720 c 128,-1,13
 1765 588 1765 588 1765 362 c 2,14,-1
 1765 185 l 1,15,-1
 1139 185 l 1,16,17
 1155 103 1155 103 1210.5 46.5 c 128,-1,18
 1266 -10 1266 -10 1365 -10 c 0,19,20
 1472 -10 1472 -10 1534 9.5 c 128,-1,21
 1596 29 1596 29 1664 57 c 1,22,-1
 1744 -149 l 1,23,24
 1680 -196 1680 -196 1568.5 -233 c 128,-1,25
 1457 -270 1457 -270 1319 -270 c 0,26,27
 1208 -270 1208 -270 1117.5 -236 c 128,-1,28
 1027 -202 1027 -202 960 -142 c 1,29,30
 895 -202 895 -202 804.5 -236 c 128,-1,31
 714 -270 714 -270 600 -270 c 0,32,33
 430 -270 430 -270 313 -198.5 c 128,-1,34
 196 -127 196 -127 136 -2.5 c 128,-1,35
 76 122 76 122 76 280 c 2,0,-1
1295 592 m 0,36,37
 1218 592 1218 592 1182.5 536.5 c 128,-1,38
 1147 481 1147 481 1137 396 c 1,39,-1
 1435 396 l 1,40,-1
 1435 422 l 2,41,42
 1435 502 1435 502 1402 547 c 128,-1,43
 1369 592 1369 592 1295 592 c 0,36,37
413 301 m 2,44,-1
 413 280 l 2,45,46
 413 158 413 158 452 74 c 128,-1,47
 491 -10 491 -10 600 -10 c 0,48,49
 707 -10 707 -10 746 74 c 128,-1,50
 785 158 785 158 785 280 c 2,51,-1
 785 301 l 2,52,53
 785 380 785 380 768.5 446 c 128,-1,54
 752 512 752 512 711.5 552 c 128,-1,55
 671 592 671 592 598 592 c 0,56,57
 527 592 527 592 486.5 552 c 128,-1,58
 446 512 446 512 429.5 446 c 128,-1,59
 413 380 413 380 413 301 c 2,44,-1
EndSplineSet
Substitution2: "'unic' Unicase lookup 2 subtable" OE
Substitution2: "'smcp' Lowercase to Small Capitals lookup 1 subtable" OE.smcp
EndChar

StartChar: ogonek
Encoding: 731 731 516
Width: 645
VWidth: 1798
GlyphClass: 2
Flags: W
LayerCount: 2
Fore
SplineSet
227 -190 m 1,0,-1
 413 -250 l 1,1,2
 333 -290 333 -290 300 -325.5 c 128,-1,3
 267 -361 267 -361 267 -411 c 0,4,5
 267 -437 267 -437 280.5 -455 c 128,-1,6
 294 -473 294 -473 327 -473 c 0,7,8
 353 -473 353 -473 368 -467 c 128,-1,9
 383 -461 383 -461 396 -455 c 1,10,-1
 435 -623 l 1,11,12
 410 -638 410 -638 370 -652.5 c 128,-1,13
 330 -667 330 -667 269 -667 c 0,14,15
 168 -667 168 -667 97 -612.5 c 128,-1,16
 26 -558 26 -558 26 -453 c 0,17,18
 26 -380 26 -380 66.5 -312.5 c 128,-1,19
 107 -245 107 -245 227 -190 c 1,0,-1
EndSplineSet
EndChar

StartChar: ohorn
Encoding: 417 417 518
Width: 1199
VWidth: 1798
GlyphClass: 2
Flags: W
AnchorPoint: "Anchor-1" 502 -250 basechar 0
AnchorPoint: "Anchor-0" 582 1040 basechar 0
LayerCount: 2
Fore
SplineSet
50 280 m 2,0,-1
 50 301 l 2,1,2
 50 459 50 459 110 583.5 c 128,-1,3
 170 708 170 708 286.5 780 c 128,-1,4
 403 852 403 852 572 852 c 0,5,6
 697 852 697 852 793.5 811.5 c 128,-1,7
 890 771 890 771 957 700 c 1,8,9
 992 733 992 733 1005.5 791 c 128,-1,10
 1019 849 1019 849 1019 927 c 1,11,-1
 1203 927 l 1,12,13
 1203 801 1203 801 1163 712.5 c 128,-1,14
 1123 624 1123 624 1038 578 c 1,15,16
 1095 457 1095 457 1095 301 c 2,17,-1
 1095 280 l 2,18,19
 1095 122 1095 122 1035 -2.5 c 128,-1,20
 975 -127 975 -127 859 -198.5 c 128,-1,21
 743 -270 743 -270 574 -270 c 0,22,23
 404 -270 404 -270 287 -198.5 c 128,-1,24
 170 -127 170 -127 110 -2.5 c 128,-1,25
 50 122 50 122 50 280 c 2,0,-1
388 301 m 2,26,-1
 388 280 l 2,27,28
 388 199 388 199 404.5 133 c 128,-1,29
 421 67 421 67 461 28.5 c 128,-1,30
 501 -10 501 -10 574 -10 c 0,31,32
 680 -10 680 -10 718.5 74 c 128,-1,33
 757 158 757 158 757 280 c 2,34,-1
 757 301 l 2,35,36
 757 380 757 380 741 446 c 128,-1,37
 725 512 725 512 685 552 c 128,-1,38
 645 592 645 592 572 592 c 0,39,40
 501 592 501 592 461 552 c 128,-1,41
 421 512 421 512 404.5 446 c 128,-1,42
 388 380 388 380 388 301 c 2,26,-1
EndSplineSet
EndChar

StartChar: one
Encoding: 49 49 521
Width: 1187
VWidth: 1798
GlyphClass: 2
Flags: W
LayerCount: 2
Fore
SplineSet
836 1206 m 1,0,-1
 836 -250 l 1,1,-1
 499 -250 l 1,2,-1
 499 826 l 1,3,-1
 167 729 l 1,4,-1
 167 985 l 1,5,-1
 805 1206 l 1,6,-1
 836 1206 l 1,0,-1
EndSplineSet
Substitution2: "'ss01' Style Set 1 lookup 35 subtable" uni06F1
Substitution2: "'numr' Numerators lookup 21 subtable" onesuperior
Substitution2: "'dnom' Denominators lookup 20 subtable" one.sup
Substitution2: "'frac' Diagonal Fractions lookup 19 subtable" onesuperior
Substitution2: "Single Substitution lookup 18 subtable" one.sup
Substitution2: "'onum' Oldstyle Figures lookup 14 subtable" one.tnum
Substitution2: "'c2sc' Capitals to Small Capitals lookup 0 subtable" one.smcp
Position2: "'cpsp' Capital Spacing lookup 0 subtable" dx=36 dy=0 dh=72 dv=0
EndChar

StartChar: one.onum
Encoding: 65756 -1 522
Width: 1208
GlyphClass: 1
Flags: W
LayerCount: 2
Fore
SplineSet
803 1164 m 1,0,-1
 803 0 l 1,1,-1
 466 0 l 1,2,-1
 466 784 l 1,3,-1
 134 687 l 1,4,-1
 134 943 l 1,5,-1
 772 1164 l 1,6,-1
 803 1164 l 1,0,-1
EndSplineSet
EndChar

StartChar: one.smcp
Encoding: 65757 -1 523
Width: 1076
GlyphClass: 2
Flags: W
LayerCount: 2
Fore
SplineSet
776 1160 m 1,0,-1
 776 0 l 1,1,-1
 440 0 l 1,2,-1
 440 786 l 1,3,-1
 149 728 l 1,4,-1
 149 974 l 1,5,-1
 748 1160 l 1,6,-1
 776 1160 l 1,0,-1
EndSplineSet
EndChar

StartChar: one.sup
Encoding: 65758 -1 524
Width: 768
GlyphClass: 2
Flags: W
LayerCount: 2
Fore
SplineSet
543 786 m 1,0,-1
 543 0 l 1,1,-1
 319 0 l 1,2,-1
 319 533 l 1,3,-1
 143 497 l 1,4,-1
 143 664 l 1,5,-1
 524 786 l 1,6,-1
 543 786 l 1,0,-1
EndSplineSet
EndChar

StartChar: onesuperior
Encoding: 185 185 529
Width: 768
VWidth: 1798
GlyphClass: 2
Flags: W
LayerCount: 2
Fore
SplineSet
543 1203 m 1,0,-1
 543 417 l 1,1,-1
 319 417 l 1,2,-1
 319 950 l 1,3,-1
 143 914 l 1,4,-1
 143 1081 l 1,5,-1
 524 1203 l 1,6,-1
 543 1203 l 1,0,-1
EndSplineSet
EndChar

StartChar: ordfeminine
Encoding: 170 170 530
Width: 905
VWidth: 1798
GlyphClass: 2
Flags: W
LayerCount: 2
Fore
SplineSet
601 455 m 1,0,1
 590 487 590 487 584 523 c 1,2,3
 553 490 553 490 503.5 465.5 c 128,-1,4
 454 441 454 441 383 441 c 0,5,6
 263 441 263 441 198.5 503.5 c 128,-1,7
 134 566 134 566 134 669 c 0,8,9
 134 779 134 779 218.5 839.5 c 128,-1,10
 303 900 303 900 475 900 c 2,11,-1
 577 900 l 1,12,-1
 577 951 l 2,13,14
 577 1078 577 1078 461 1078 c 0,15,16
 397 1078 397 1078 360 1052.5 c 128,-1,17
 323 1027 323 1027 323 979 c 1,18,-1
 150 993 l 1,19,20
 150 1094 150 1094 235 1160 c 128,-1,21
 320 1226 320 1226 461 1226 c 0,22,23
 592 1226 592 1226 672 1156.5 c 128,-1,24
 752 1087 752 1087 752 950 c 2,25,-1
 752 636 l 2,26,27
 752 587 752 587 758 543 c 128,-1,28
 764 499 764 499 778 455 c 1,29,-1
 601 455 l 1,0,1
426 585 m 0,30,31
 466 585 466 585 508 603.5 c 128,-1,32
 550 622 550 622 577 647 c 1,33,-1
 577 783 l 1,34,-1
 476 783 l 2,35,36
 389 783 389 783 349 750 c 128,-1,37
 309 717 309 717 309 673 c 0,38,39
 309 585 309 585 426 585 c 0,30,31
EndSplineSet
EndChar

StartChar: ordmasculine
Encoding: 186 186 531
Width: 939
VWidth: 1798
GlyphClass: 2
Flags: W
LayerCount: 2
Fore
SplineSet
118 794 m 2,0,-1
 118 871 l 2,1,2
 118 1026 118 1026 211.5 1126 c 128,-1,3
 305 1226 305 1226 464 1226 c 0,4,5
 625 1226 625 1226 718 1126 c 128,-1,6
 811 1026 811 1026 811 871 c 2,7,-1
 811 794 l 2,8,9
 811 639 811 639 718.5 539.5 c 128,-1,10
 626 440 626 440 466 440 c 256,11,12
 306 440 306 440 212 539.5 c 128,-1,13
 118 639 118 639 118 794 c 2,0,-1
293 871 m 2,14,-1
 293 794 l 2,15,16
 293 705 293 705 335.5 645.5 c 128,-1,17
 378 586 378 586 466 586 c 0,18,19
 552 586 552 586 594 645.5 c 128,-1,20
 636 705 636 705 636 794 c 2,21,-1
 636 871 l 2,22,23
 636 959 636 959 593.5 1018.5 c 128,-1,24
 551 1078 551 1078 464 1078 c 0,25,26
 378 1078 378 1078 335.5 1018.5 c 128,-1,27
 293 959 293 959 293 871 c 2,14,-1
EndSplineSet
EndChar

StartChar: oslash
Encoding: 248 248 532
Width: 1152
VWidth: 1798
GlyphClass: 2
Flags: W
AnchorPoint: "Anchor-0" 537 1039 basechar 0
LayerCount: 2
Fore
SplineSet
53 280 m 2,0,-1
 53 301 l 2,1,2
 53 459 53 459 113 583.5 c 128,-1,3
 173 708 173 708 289 780 c 128,-1,4
 405 852 405 852 574 852 c 0,5,6
 670 852 670 852 751 827 c 1,7,-1
 820 969 l 1,8,-1
 997 969 l 1,9,-1
 894 757 l 1,10,11
 994 684 994 684 1045.5 565.5 c 128,-1,12
 1097 447 1097 447 1097 301 c 2,13,-1
 1097 280 l 2,14,15
 1097 122 1097 122 1037 -2.5 c 128,-1,16
 977 -127 977 -127 861 -198.5 c 128,-1,17
 745 -270 745 -270 576 -270 c 0,18,19
 484 -270 484 -270 406 -248 c 1,20,-1
 334 -395 l 1,21,-1
 157 -395 l 1,22,-1
 262 -180 l 1,23,24
 159 -107 159 -107 106 12.5 c 128,-1,25
 53 132 53 132 53 280 c 2,0,-1
390 301 m 2,26,-1
 390 280 l 2,27,28
 390 236 390 236 394.5 196.5 c 128,-1,29
 399 157 399 157 409 123 c 1,30,-1
 633 583 l 1,31,32
 606 592 606 592 574 592 c 0,33,34
 503 592 503 592 463 552 c 128,-1,35
 423 512 423 512 406.5 446 c 128,-1,36
 390 380 390 380 390 301 c 2,26,-1
760 301 m 2,37,38
 760 341 760 341 756 378 c 128,-1,39
 752 415 752 415 744 448 c 1,40,-1
 524 -4 l 1,41,42
 548 -10 548 -10 576 -10 c 0,43,44
 683 -10 683 -10 721.5 74 c 128,-1,45
 760 158 760 158 760 280 c 2,46,-1
 760 301 l 2,37,38
EndSplineSet
Substitution2: "'unic' Unicase lookup 2 subtable" Oslash
Substitution2: "'smcp' Lowercase to Small Capitals lookup 1 subtable" Oslash.smcp
EndChar

StartChar: p
Encoding: 112 112 535
Width: 1153
VWidth: 1798
GlyphClass: 2
Flags: W
AnchorPoint: "Anchor-1" 231 -657 basechar 0
AnchorPoint: "Anchor-0" 629 1030 basechar 0
LayerCount: 2
Fore
SplineSet
1099 304 m 2,0,-1
 1099 283 l 2,1,2
 1099 126 1099 126 1051 0.5 c 128,-1,3
 1003 -125 1003 -125 909.5 -197.5 c 128,-1,4
 816 -270 816 -270 679 -270 c 0,5,6
 600 -270 600 -270 540 -241 c 128,-1,7
 480 -212 480 -212 435 -161 c 1,8,-1
 435 -666 l 1,9,-1
 98 -666 l 1,10,-1
 98 832 l 1,11,-1
 412 832 l 1,12,-1
 423 732 l 1,13,14
 469 789 469 789 531.5 820.5 c 128,-1,15
 594 852 594 852 678 852 c 0,16,17
 884 852 884 852 991.5 701.5 c 128,-1,18
 1099 551 1099 551 1099 304 c 2,0,-1
762 283 m 2,19,-1
 762 304 l 2,20,21
 762 430 762 430 725 511 c 128,-1,22
 688 592 688 592 594 592 c 0,23,24
 476 592 476 592 435 506 c 1,25,-1
 435 79 l 1,26,27
 456 37 456 37 495 13.5 c 128,-1,28
 534 -10 534 -10 596 -10 c 0,29,30
 660 -10 660 -10 696 29.5 c 128,-1,31
 732 69 732 69 747 135.5 c 128,-1,32
 762 202 762 202 762 283 c 2,19,-1
EndSplineSet
Substitution2: "'unic' Unicase lookup 2 subtable" P
Substitution2: "'smcp' Lowercase to Small Capitals lookup 1 subtable" P.smcp
EndChar

StartChar: paragraph
Encoding: 182 182 536
Width: 1001
VWidth: 1798
GlyphClass: 2
Flags: W
LayerCount: 2
Fore
SplineSet
886 -250 m 1,0,-1
 657 -250 l 1,1,-1
 657 270 l 1,2,-1
 574 270 l 2,3,4
 415 270 415 270 305.5 330.5 c 128,-1,5
 196 391 196 391 139 497 c 128,-1,6
 82 603 82 603 82 738 c 0,7,8
 82 872 82 872 139 978 c 128,-1,9
 196 1084 196 1084 305.5 1145 c 128,-1,10
 415 1206 415 1206 574 1206 c 2,11,-1
 886 1206 l 1,12,-1
 886 -250 l 1,0,-1
EndSplineSet
EndChar

StartChar: parenleft
Encoding: 40 40 537
Width: 730
VWidth: 1798
GlyphClass: 2
Flags: W
LayerCount: 2
Fore
SplineSet
399 342 m 256,0,1
 399 170 399 170 431 2.5 c 128,-1,2
 463 -165 463 -165 528 -298.5 c 128,-1,3
 593 -432 593 -432 693 -506 c 1,4,-1
 629 -672 l 1,5,6
 474 -605 474 -605 362 -454.5 c 128,-1,7
 250 -304 250 -304 190 -99 c 128,-1,8
 130 106 130 106 130 336 c 0,9,10
 130 508 130 508 164 669.5 c 128,-1,11
 198 831 198 831 263 968 c 128,-1,12
 328 1105 328 1105 420.5 1205.5 c 128,-1,13
 513 1306 513 1306 629 1356 c 1,14,-1
 693 1190 l 1,15,16
 593 1117 593 1117 528 982.5 c 128,-1,17
 463 848 463 848 431 681 c 128,-1,18
 399 514 399 514 399 342 c 256,0,1
EndSplineSet
Position2: "Single Positioning lookup 9 subtable" dx=0 dy=0 dh=80 dv=0
Position2: "Single Positioning lookup 8 subtable" dx=0 dy=0 dh=160 dv=0
EndChar

StartChar: parenright
Encoding: 41 41 538
Width: 730
VWidth: 1798
GlyphClass: 2
Flags: W
LayerCount: 2
Fore
SplineSet
331 342 m 256,0,1
 331 514 331 514 299 681 c 128,-1,2
 267 848 267 848 202 982.5 c 128,-1,3
 137 1117 137 1117 37 1190 c 1,4,-1
 101 1356 l 1,5,6
 256 1290 256 1290 368 1137.5 c 128,-1,7
 480 985 480 985 540 778.5 c 128,-1,8
 600 572 600 572 600 342 c 256,9,10
 600 112 600 112 540 -94.5 c 128,-1,11
 480 -301 480 -301 368 -453 c 128,-1,12
 256 -605 256 -605 101 -672 c 1,13,-1
 37 -506 l 1,14,15
 137 -432 137 -432 202 -298.5 c 128,-1,16
 267 -165 267 -165 299 2.5 c 128,-1,17
 331 170 331 170 331 342 c 256,0,1
EndSplineSet
EndChar

